Olga One Regular.ufo
<glyph name="exclam" format="2">
  <advance width="273"/>
  <unicode hex="0021"/>
  <outline>
    <contour>
      <point x="203" y="271" type="line"/>
      <point x="203" y="693" type="line"/>
      <point x="53" y="693" type="line"/>
      <point x="53" y="271" type="line"/>
    </contour>
    <contour>
      <point x="128" y="0" type="curve" smooth="yes"/>
      <point x="169" y="0"/>
      <point x="203" y="31"/>
      <point x="203" y="74" type="curve" smooth="yes"/>
      <point x="203" y="118"/>
      <point x="169" y="150"/>
      <point x="128" y="150" type="curve" smooth="yes"/>
      <point x="87" y="150"/>
      <point x="53" y="118"/>
      <point x="53" y="74" type="curve" smooth="yes"/>
      <point x="53" y="31"/>
      <point x="87" y="0"/>
    </contour>
  </outline>
</glyph>
<glyph name="quotedbl" format="2">
  <advance width="478"/>
  <unicode hex="0022"/>
  <outline>
    <contour>
      <point x="207" y="359" type="line"/>
      <point x="207" y="693" type="line"/>
      <point x="57" y="693" type="line"/>
      <point x="57" y="359" type="line"/>
    </contour>
    <contour>
      <point x="425" y="359" type="line"/>
      <point x="425" y="693" type="line"/>
      <point x="275" y="693" type="line"/>
      <point x="275" y="359" type="line"/>
    </contour>
  </outline>
</glyph>
<glyph name="numbersign" format="2">
  <advance width="694"/>
  <unicode hex="0023"/>
  <outline>
    <contour>
      <point x="257" y="0" type="line"/>
      <point x="321" y="608" type="line"/>
      <point x="179" y="608" type="line"/>
      <point x="115" y="0" type="line"/>
    </contour>
    <contour>
      <point x="507" y="0" type="line"/>
      <point x="571" y="608" type="line"/>
      <point x="429" y="608" type="line"/>
      <point x="365" y="0" type="line"/>
    </contour>
    <contour>
      <point x="650" y="371" type="line"/>
      <point x="650" y="515" type="line"/>
      <point x="71" y="515" type="line"/>
      <point x="71" y="371" type="line"/>
    </contour>
    <contour>
      <point x="619" y="114" type="line"/>
      <point x="619" y="257" type="line"/>
      <point x="40" y="257" type="line"/>
      <point x="40" y="114" type="line"/>
    </contour>
  </outline>
</glyph>
<glyph name="dollar" format="2">
  <advance width="609"/>
  <unicode hex="0024"/>
  <outline>
    <contour>
      <point x="306" y="0" type="line" smooth="yes"/>
      <point x="437" y="0"/>
      <point x="544" y="104"/>
      <point x="544" y="238" type="curve" smooth="yes"/>
      <point x="544" y="368" type="line"/>
      <point x="393" y="368" type="line"/>
      <point x="393" y="238" type="line" smooth="yes"/>
      <point x="393" y="188"/>
      <point x="354" y="150"/>
      <point x="306" y="150" type="curve" smooth="yes"/>
      <point x="30" y="150" type="line"/>
      <point x="30" y="0" type="line"/>
    </contour>
    <contour>
      <point x="180" y="326" type="line"/>
      <point x="180" y="456" type="line" smooth="yes"/>
      <point x="180" y="503"/>
      <point x="217" y="544"/>
      <point x="268" y="544" type="curve" smooth="yes"/>
      <point x="544" y="544" type="line"/>
      <point x="544" y="694" type="line"/>
      <point x="268" y="694" type="line" smooth="yes"/>
      <point x="138" y="694"/>
      <point x="30" y="590"/>
      <point x="30" y="456" type="curve" smooth="yes"/>
      <point x="30" y="326" type="line"/>
    </contour>
    <contour>
      <point x="342" y="-87" type="line"/>
      <point x="342" y="772" type="line"/>
      <point x="225" y="772" type="line"/>
      <point x="225" y="-87" type="line"/>
    </contour>
  </outline>
</glyph>
<glyph name="ampersand" format="2">
  <advance width="674"/>
  <unicode hex="0026"/>
  <outline>
    <contour>
      <point x="558" y="0" type="line"/>
      <point x="558" y="272" type="line"/>
      <point x="648" y="272" type="line"/>
      <point x="648" y="422" type="line"/>
      <point x="401" y="422" type="line"/>
      <point x="401" y="150" type="line"/>
      <point x="242" y="150" type="line" smooth="yes"/>
      <point x="208" y="150"/>
      <point x="181" y="175"/>
      <point x="181" y="211" type="curve" smooth="yes"/>
      <point x="181" y="244"/>
      <point x="206" y="272"/>
      <point x="242" y="272" type="curve" smooth="yes"/>
      <point x="344" y="272" type="line"/>
      <point x="344" y="421" type="line"/>
      <point x="242" y="421" type="line" smooth="yes"/>
      <point x="206" y="421"/>
      <point x="181" y="449"/>
      <point x="181" y="482" type="curve" smooth="yes"/>
      <point x="181" y="516"/>
      <point x="206" y="544"/>
      <point x="242" y="544" type="curve" smooth="yes"/>
      <point x="526" y="544" type="line"/>
      <point x="526" y="693" type="line"/>
      <point x="242" y="693" type="line" smooth="yes"/>
      <point x="109" y="693"/>
      <point x="31" y="582"/>
      <point x="31" y="480" type="curve" smooth="yes"/>
      <point x="31" y="433"/>
      <point x="44" y="387"/>
      <point x="80" y="348" type="curve"/>
      <point x="44" y="307"/>
      <point x="32" y="258"/>
      <point x="32" y="213" type="curve" smooth="yes"/>
      <point x="32" y="107"/>
      <point x="112" y="0"/>
      <point x="242" y="0" type="curve" smooth="yes"/>
    </contour>
  </outline>
</glyph>
<glyph name="parenleft" format="2">
  <advance width="227"/>
  <unicode hex="0028"/>
  <outline>
    <contour>
      <point x="303" y="-186" type="line"/>
      <point x="303" y="-36" type="line"/>
      <point x="267" y="-36" type="line" smooth="yes"/>
      <point x="219" y="-36"/>
      <point x="180" y="2"/>
      <point x="180" y="52" type="curve" smooth="yes"/>
      <point x="180" y="653" type="line" smooth="yes"/>
      <point x="180" y="703"/>
      <point x="219" y="741"/>
      <point x="267" y="741" type="curve" smooth="yes"/>
      <point x="303" y="741" type="line"/>
      <point x="303" y="891" type="line"/>
      <point x="267" y="891" type="line" smooth="yes"/>
      <point x="136" y="891"/>
      <point x="29" y="787"/>
      <point x="29" y="653" type="curve" smooth="yes"/>
      <point x="29" y="52" type="line" smooth="yes"/>
      <point x="29" y="-81"/>
      <point x="135" y="-186"/>
      <point x="267" y="-186" type="curve" smooth="yes"/>
    </contour>
  </outline>
</glyph>
<glyph name="parenright" format="2">
  <advance width="230"/>
  <unicode hex="0029"/>
  <outline>
    <contour>
      <point x="-52" y="-186" type="line" smooth="yes"/>
      <point x="79" y="-186"/>
      <point x="186" y="-82"/>
      <point x="186" y="52" type="curve" smooth="yes"/>
      <point x="186" y="653" type="line" smooth="yes"/>
      <point x="186" y="786"/>
      <point x="80" y="891"/>
      <point x="-52" y="891" type="curve" smooth="yes"/>
      <point x="-88" y="891" type="line"/>
      <point x="-88" y="741" type="line"/>
      <point x="-52" y="741" type="line" smooth="yes"/>
      <point x="-4" y="741"/>
      <point x="35" y="703"/>
      <point x="35" y="653" type="curve" smooth="yes"/>
      <point x="35" y="52" type="line" smooth="yes"/>
      <point x="35" y="2"/>
      <point x="-4" y="-36"/>
      <point x="-52" y="-36" type="curve" smooth="yes"/>
      <point x="-88" y="-36" type="line"/>
      <point x="-88" y="-186" type="line"/>
    </contour>
  </outline>
</glyph>
<glyph name="asterisk" format="2">
  <advance width="598"/>
  <unicode hex="002A"/>
  <outline>
    <contour>
      <point x="371" y="46" type="line"/>
      <point x="371" y="639" type="line"/>
      <point x="246" y="639" type="line"/>
      <point x="246" y="46" type="line"/>
    </contour>
    <contour>
      <point x="498" y="109" type="line"/>
      <point x="578" y="206" type="line"/>
      <point x="117" y="580" type="line"/>
      <point x="38" y="482" type="line"/>
    </contour>
    <contour>
      <point x="118" y="109" type="line"/>
      <point x="578" y="482" type="line"/>
      <point x="499" y="580" type="line"/>
      <point x="38" y="206" type="line"/>
    </contour>
  </outline>
</glyph>
<glyph name="plus" format="2">
  <advance width="536"/>
  <unicode hex="002B"/>
  <outline>
    <contour>
      <point x="502" y="293" type="line"/>
      <point x="502" y="410" type="line"/>
      <point x="31" y="410" type="line"/>
      <point x="31" y="293" type="line"/>
    </contour>
    <contour>
      <point x="332" y="116" type="line"/>
      <point x="332" y="587" type="line"/>
      <point x="216" y="587" type="line"/>
      <point x="216" y="116" type="line"/>
    </contour>
  </outline>
</glyph>
<glyph name="hyphenminus" format="2">
  <advance width="399"/>
  <unicode hex="002D"/>
  <outline>
    <contour>
      <point x="362" y="287" type="line"/>
      <point x="362" y="407" type="line"/>
      <point x="27" y="407" type="line"/>
      <point x="27" y="287" type="line"/>
    </contour>
  </outline>
</glyph>
<glyph name="period" format="2">
  <advance width="151"/>
  <unicode hex="002E"/>
  <outline>
    <contour>
      <point x="74" y="0" type="curve" smooth="yes"/>
      <point x="114" y="0"/>
      <point x="149" y="32"/>
      <point x="149" y="75" type="curve" smooth="yes"/>
      <point x="149" y="119"/>
      <point x="115" y="150"/>
      <point x="74" y="150" type="curve" smooth="yes"/>
      <point x="33" y="150"/>
      <point x="-1" y="119"/>
      <point x="-1" y="75" type="curve" smooth="yes"/>
      <point x="-1" y="32"/>
      <point x="34" y="0"/>
    </contour>
  </outline>
</glyph>
<glyph name="slash" format="2">
  <advance width="594"/>
  <unicode hex="002F"/>
  <outline>
    <contour>
      <point x="224" y="0" type="line"/>
      <point x="556" y="693" type="line"/>
      <point x="389" y="693" type="line"/>
      <point x="57" y="0" type="line"/>
    </contour>
  </outline>
</glyph>
<glyph name="two" format="2">
  <advance width="574"/>
  <unicode hex="0032"/>
  <outline>
    <contour>
      <point x="522" y="0" type="line"/>
      <point x="522" y="150" type="line"/>
      <point x="196" y="150" type="line"/>
      <point x="196" y="367" type="line"/>
      <point x="46" y="367" type="line"/>
      <point x="46" y="0" type="line"/>
    </contour>
    <contour>
      <point x="522" y="325" type="line"/>
      <point x="522" y="455" type="line" smooth="yes"/>
      <point x="522" y="585"/>
      <point x="419" y="693"/>
      <point x="284" y="693" type="curve" smooth="yes"/>
      <point x="46" y="693" type="line"/>
      <point x="46" y="543" type="line"/>
      <point x="284" y="543" type="line" smooth="yes"/>
      <point x="334" y="543"/>
      <point x="372" y="504"/>
      <point x="372" y="455" type="curve" smooth="yes"/>
      <point x="372" y="325" type="line"/>
    </contour>
  </outline>
</glyph>
<glyph name="three" format="2">
  <advance width="561"/>
  <unicode hex="0033"/>
  <outline>
    <contour>
      <point x="281" y="0" type="line" smooth="yes"/>
      <point x="413" y="0"/>
      <point x="519" y="108"/>
      <point x="519" y="238" type="curve" smooth="yes"/>
      <point x="519" y="455" type="line" smooth="yes"/>
      <point x="519" y="585"/>
      <point x="413" y="693"/>
      <point x="281" y="693" type="curve" smooth="yes"/>
      <point x="43" y="693" type="line"/>
      <point x="43" y="544" type="line"/>
      <point x="281" y="544" type="line" smooth="yes"/>
      <point x="331" y="544"/>
      <point x="369" y="504"/>
      <point x="369" y="455" type="curve" smooth="yes"/>
      <point x="369" y="238" type="line" smooth="yes"/>
      <point x="369" y="189"/>
      <point x="331" y="150"/>
      <point x="281" y="150" type="curve" smooth="yes"/>
      <point x="43" y="150" type="line"/>
      <point x="43" y="0" type="line"/>
    </contour>
    <contour>
      <point x="337" y="272" type="line"/>
      <point x="337" y="422" type="line"/>
      <point x="43" y="422" type="line"/>
      <point x="43" y="272" type="line"/>
    </contour>
  </outline>
</glyph>
<glyph name="four" format="2">
  <advance width="554"/>
  <unicode hex="0034"/>
  <outline>
    <contour>
      <point x="508" y="0" type="line"/>
      <point x="508" y="693" type="line"/>
      <point x="368" y="693" type="line"/>
      <point x="32" y="299" type="line"/>
      <point x="32" y="163" type="line"/>
      <point x="325" y="163" type="line"/>
      <point x="325" y="312" type="line"/>
      <point x="240" y="312" type="line"/>
      <point x="287" y="368"/>
      <point x="317" y="402"/>
      <point x="357" y="449" type="curve"/>
      <point x="357" y="0" type="line"/>
    </contour>
  </outline>
</glyph>
<glyph name="five" format="2">
  <advance width="569"/>
  <unicode hex="0035"/>
  <outline>
    <contour>
      <point x="282" y="0" type="line" smooth="yes"/>
      <point x="413" y="0"/>
      <point x="520" y="104"/>
      <point x="520" y="238" type="curve" smooth="yes"/>
      <point x="520" y="367" type="line"/>
      <point x="371" y="367" type="line"/>
      <point x="371" y="238" type="line" smooth="yes"/>
      <point x="371" y="188"/>
      <point x="331" y="150"/>
      <point x="282" y="150" type="curve" smooth="yes"/>
      <point x="44" y="150" type="line"/>
      <point x="44" y="0" type="line"/>
    </contour>
    <contour>
      <point x="195" y="325" type="line"/>
      <point x="195" y="543" type="line"/>
      <point x="520" y="543" type="line"/>
      <point x="520" y="693" type="line"/>
      <point x="44" y="693" type="line"/>
      <point x="44" y="325" type="line"/>
    </contour>
  </outline>
</glyph>
<glyph name="six" format="2">
  <advance width="614"/>
  <unicode hex="0036"/>
  <outline>
    <contour>
      <point x="327" y="0" type="line" smooth="yes"/>
      <point x="458" y="0"/>
      <point x="565" y="104"/>
      <point x="565" y="238" type="curve" smooth="yes"/>
      <point x="565" y="339"/>
      <point x="483" y="421"/>
      <point x="381" y="421" type="curve" smooth="yes"/>
      <point x="214" y="421" type="line"/>
      <point x="214" y="272" type="line"/>
      <point x="381" y="272" type="line" smooth="yes"/>
      <point x="399" y="272"/>
      <point x="415" y="257"/>
      <point x="415" y="238" type="curve" smooth="yes"/>
      <point x="415" y="187"/>
      <point x="374" y="150"/>
      <point x="327" y="150" type="curve" smooth="yes"/>
      <point x="273" y="150" type="line" smooth="yes"/>
      <point x="224" y="150"/>
      <point x="184" y="188"/>
      <point x="184" y="238" type="curve" smooth="yes"/>
      <point x="184" y="455" type="line" smooth="yes"/>
      <point x="184" y="505"/>
      <point x="223" y="544"/>
      <point x="273" y="544" type="curve" smooth="yes"/>
      <point x="456" y="544" type="line"/>
      <point x="456" y="693" type="line"/>
      <point x="273" y="693" type="line" smooth="yes"/>
      <point x="140" y="693"/>
      <point x="35" y="587"/>
      <point x="35" y="455" type="curve" smooth="yes"/>
      <point x="35" y="238" type="line" smooth="yes"/>
      <point x="35" y="103"/>
      <point x="143" y="0"/>
      <point x="273" y="0" type="curve" smooth="yes"/>
    </contour>
  </outline>
</glyph>
<glyph name="seven" format="2">
  <advance width="537"/>
  <unicode hex="0037"/>
  <outline>
    <contour>
      <point x="501" y="543" type="line"/>
      <point x="501" y="693" type="line"/>
      <point x="25" y="693" type="line"/>
      <point x="25" y="543" type="line"/>
    </contour>
    <contour>
      <point x="183" y="0" type="line"/>
      <point x="477" y="508" type="line"/>
      <point x="304" y="508" type="line"/>
      <point x="10" y="0" type="line"/>
    </contour>
  </outline>
</glyph>
<glyph name="eight" format="2">
  <advance width="622"/>
  <unicode hex="0038"/>
  <outline>
    <contour>
      <point x="326" y="0" type="line" smooth="yes"/>
      <point x="455" y="0"/>
      <point x="565" y="104"/>
      <point x="565" y="238" type="curve" smooth="yes"/>
      <point x="565" y="285"/>
      <point x="553" y="313"/>
      <point x="528" y="346" type="curve"/>
      <point x="553" y="379"/>
      <point x="565" y="408"/>
      <point x="565" y="455" type="curve" smooth="yes"/>
      <point x="565" y="585"/>
      <point x="459" y="693"/>
      <point x="326" y="693" type="curve" smooth="yes"/>
      <point x="272" y="693" type="line" smooth="yes"/>
      <point x="139" y="693"/>
      <point x="34" y="587"/>
      <point x="34" y="455" type="curve" smooth="yes"/>
      <point x="34" y="412"/>
      <point x="46" y="378"/>
      <point x="69" y="346" type="curve"/>
      <point x="46" y="314"/>
      <point x="34" y="281"/>
      <point x="34" y="238" type="curve" smooth="yes"/>
      <point x="34" y="103"/>
      <point x="142" y="0"/>
      <point x="272" y="0" type="curve" smooth="yes"/>
    </contour>
    <contour>
      <point x="381" y="421" type="curve" smooth="yes"/>
      <point x="218" y="421" type="line" smooth="yes"/>
      <point x="199" y="421"/>
      <point x="184" y="437"/>
      <point x="184" y="455" type="curve" smooth="yes"/>
      <point x="184" y="506"/>
      <point x="225" y="543"/>
      <point x="272" y="543" type="curve" smooth="yes"/>
      <point x="326" y="543" type="line" smooth="yes"/>
      <point x="376" y="543"/>
      <point x="414" y="504"/>
      <point x="414" y="455" type="curve" smooth="yes"/>
      <point x="414" y="436"/>
      <point x="399" y="421"/>
    </contour>
    <contour>
      <point x="326" y="150" type="curve" smooth="yes"/>
      <point x="272" y="150" type="line" smooth="yes"/>
      <point x="225" y="150"/>
      <point x="184" y="187"/>
      <point x="184" y="238" type="curve" smooth="yes"/>
      <point x="184" y="256"/>
      <point x="199" y="271"/>
      <point x="218" y="271" type="curve" smooth="yes"/>
      <point x="381" y="271" type="line" smooth="yes"/>
      <point x="399" y="271"/>
      <point x="414" y="257"/>
      <point x="414" y="238" type="curve" smooth="yes"/>
      <point x="414" y="189"/>
      <point x="376" y="150"/>
    </contour>
  </outline>
</glyph>
<glyph name="nine" format="2">
  <advance width="603"/>
  <unicode hex="0039"/>
  <outline>
    <contour>
      <point x="312" y="0" type="line" smooth="yes"/>
      <point x="443" y="0"/>
      <point x="549" y="106"/>
      <point x="549" y="238" type="curve" smooth="yes"/>
      <point x="549" y="455" type="line" smooth="yes"/>
      <point x="549" y="585"/>
      <point x="446" y="693"/>
      <point x="312" y="693" type="curve" smooth="yes"/>
      <point x="258" y="693" type="line" smooth="yes"/>
      <point x="126" y="693"/>
      <point x="19" y="588"/>
      <point x="19" y="455" type="curve" smooth="yes"/>
      <point x="19" y="354"/>
      <point x="101" y="272"/>
      <point x="203" y="272" type="curve" smooth="yes"/>
      <point x="369" y="272" type="line"/>
      <point x="369" y="421" type="line"/>
      <point x="203" y="421" type="line" smooth="yes"/>
      <point x="185" y="421"/>
      <point x="170" y="436"/>
      <point x="170" y="455" type="curve" smooth="yes"/>
      <point x="170" y="504"/>
      <point x="208" y="544"/>
      <point x="258" y="544" type="curve" smooth="yes"/>
      <point x="312" y="544" type="line" smooth="yes"/>
      <point x="360" y="544"/>
      <point x="400" y="504"/>
      <point x="400" y="455" type="curve" smooth="yes"/>
      <point x="400" y="238" type="line" smooth="yes"/>
      <point x="400" y="187"/>
      <point x="359" y="150"/>
      <point x="312" y="150" type="curve" smooth="yes"/>
      <point x="128" y="150" type="line"/>
      <point x="128" y="0" type="line"/>
    </contour>
  </outline>
</glyph>
<glyph name="colon" format="2">
  <advance width="189"/>
  <unicode hex="003A"/>
  <outline>
    <contour>
      <point x="88" y="0" type="curve" smooth="yes"/>
      <point x="132" y="0"/>
      <point x="164" y="34"/>
      <point x="164" y="75" type="curve" smooth="yes"/>
      <point x="164" y="119"/>
      <point x="130" y="150"/>
      <point x="88" y="150" type="curve" smooth="yes"/>
      <point x="49" y="150"/>
      <point x="14" y="119"/>
      <point x="14" y="75" type="curve" smooth="yes"/>
      <point x="14" y="33"/>
      <point x="48" y="0"/>
    </contour>
    <contour>
      <point x="88" y="544" type="curve" smooth="yes"/>
      <point x="130" y="544"/>
      <point x="164" y="576"/>
      <point x="164" y="620" type="curve" smooth="yes"/>
      <point x="164" y="661"/>
      <point x="132" y="694"/>
      <point x="88" y="694" type="curve" smooth="yes"/>
      <point x="49" y="694"/>
      <point x="14" y="662"/>
      <point x="14" y="620" type="curve" smooth="yes"/>
      <point x="14" y="576"/>
      <point x="49" y="544"/>
    </contour>
  </outline>
</glyph>
<glyph name="semicolon" format="2">
  <advance width="195"/>
  <unicode hex="003B"/>
  <outline>
    <contour>
      <point x="91" y="544" type="curve" smooth="yes"/>
      <point x="135" y="544"/>
      <point x="166" y="578"/>
      <point x="166" y="620" type="curve" smooth="yes"/>
      <point x="166" y="660"/>
      <point x="135" y="694"/>
      <point x="91" y="694" type="curve" smooth="yes"/>
      <point x="52" y="694"/>
      <point x="17" y="662"/>
      <point x="17" y="620" type="curve" smooth="yes"/>
      <point x="17" y="576"/>
      <point x="52" y="544"/>
    </contour>
    <contour>
      <point x="48" y="-65" type="curve" smooth="yes"/>
      <point x="57" y="-65"/>
      <point x="68" y="-59"/>
      <point x="80" y="-47" type="curve" smooth="yes"/>
      <point x="155" y="31" type="line"/>
      <point x="155" y="34" type="line"/>
      <point x="159" y="39" type="line"/>
      <point x="162" y="47" type="line"/>
      <point x="167" y="58"/>
      <point x="169" y="69"/>
      <point x="169" y="79" type="curve"/>
      <point x="168" y="89" type="line"/>
      <point x="165" y="102"/>
      <point x="160" y="113"/>
      <point x="153" y="122" type="curve" smooth="yes"/>
      <point x="145" y="131"/>
      <point x="135" y="137"/>
      <point x="124" y="142" type="curve" smooth="yes"/>
      <point x="113" y="147"/>
      <point x="101" y="149"/>
      <point x="89" y="149" type="curve" smooth="yes"/>
      <point x="71" y="149"/>
      <point x="55" y="143"/>
      <point x="40" y="132" type="curve" smooth="yes"/>
      <point x="25" y="120"/>
      <point x="17" y="100"/>
      <point x="17" y="73" type="curve" smooth="yes"/>
      <point x="17" y="-21" type="line" smooth="yes"/>
      <point x="17" y="-42"/>
      <point x="23" y="-56"/>
      <point x="36" y="-62" type="curve" smooth="yes"/>
      <point x="40" y="-64"/>
      <point x="44" y="-65"/>
    </contour>
  </outline>
</glyph>
<glyph name="less" format="2">
  <advance width="524"/>
  <unicode hex="003C"/>
  <outline>
    <contour>
      <point x="360" y="163" type="line"/>
      <point x="427" y="247" type="line"/>
      <point x="205" y="431" type="line"/>
      <point x="427" y="597" type="line"/>
      <point x="360" y="681" type="line"/>
      <point x="62" y="455" type="line"/>
      <point x="62" y="406" type="line"/>
    </contour>
  </outline>
</glyph>
<glyph name="equal" format="2">
  <advance width="505"/>
  <unicode hex="003D"/>
  <outline>
    <contour>
      <point x="463" y="232" type="line"/>
      <point x="463" y="336" type="line"/>
      <point x="27" y="336" type="line"/>
      <point x="27" y="232" type="line"/>
    </contour>
    <contour>
      <point x="463" y="383" type="line"/>
      <point x="463" y="486" type="line"/>
      <point x="27" y="486" type="line"/>
      <point x="27" y="383" type="line"/>
    </contour>
  </outline>
</glyph>
<glyph name="greater" format="2">
  <advance width="457"/>
  <unicode hex="003E"/>
  <outline>
    <contour>
      <point x="114" y="164" type="line"/>
      <point x="412" y="407" type="line"/>
      <point x="412" y="456" type="line"/>
      <point x="114" y="682" type="line"/>
      <point x="47" y="598" type="line"/>
      <point x="269" y="432" type="line"/>
      <point x="47" y="248" type="line"/>
    </contour>
  </outline>
</glyph>
<glyph name="question" format="2">
  <advance width="548"/>
  <unicode hex="003F"/>
  <outline>
    <contour>
      <point x="496" y="272" type="line"/>
      <point x="496" y="455" type="line" smooth="yes"/>
      <point x="496" y="585"/>
      <point x="390" y="693"/>
      <point x="257" y="693" type="curve" smooth="yes"/>
      <point x="19" y="693" type="line"/>
      <point x="19" y="544" type="line"/>
      <point x="257" y="544" type="line" smooth="yes"/>
      <point x="307" y="544"/>
      <point x="345" y="504"/>
      <point x="345" y="455" type="curve" smooth="yes"/>
      <point x="345" y="272" type="line"/>
    </contour>
    <contour>
      <point x="257" y="0" type="curve" smooth="yes"/>
      <point x="297" y="0"/>
      <point x="332" y="32"/>
      <point x="332" y="75" type="curve" smooth="yes"/>
      <point x="332" y="119"/>
      <point x="298" y="150"/>
      <point x="257" y="150" type="curve" smooth="yes"/>
      <point x="217" y="150"/>
      <point x="183" y="119"/>
      <point x="183" y="75" type="curve" smooth="yes"/>
      <point x="183" y="34"/>
      <point x="214" y="0"/>
    </contour>
  </outline>
</glyph>
<glyph name="at" format="2">
  <advance width="894"/>
  <unicode hex="0040"/>
  <outline>
    <contour>
      <point x="794" y="-110" type="line"/>
      <point x="794" y="10" type="line"/>
      <point x="269" y="10" type="line" smooth="yes"/>
      <point x="203" y="10"/>
      <point x="150" y="58"/>
      <point x="150" y="123" type="curve" smooth="yes"/>
      <point x="150" y="535" type="line" smooth="yes"/>
      <point x="150" y="601"/>
      <point x="203" y="649"/>
      <point x="269" y="649" type="curve" smooth="yes"/>
      <point x="618" y="649" type="line" smooth="yes"/>
      <point x="685" y="649"/>
      <point x="738" y="599"/>
      <point x="738" y="535" type="curve" smooth="yes"/>
      <point x="738" y="171" type="line"/>
      <point x="696" y="173" type="line"/>
      <point x="696" y="419" type="line" smooth="yes"/>
      <point x="696" y="523"/>
      <point x="607" y="608"/>
      <point x="496" y="608" type="curve" smooth="yes"/>
      <point x="376" y="608" type="line" smooth="yes"/>
      <point x="267" y="608"/>
      <point x="176" y="526"/>
      <point x="176" y="419" type="curve" smooth="yes"/>
      <point x="176" y="246" type="line" smooth="yes"/>
      <point x="176" y="142"/>
      <point x="265" y="57"/>
      <point x="376" y="57" type="curve" smooth="yes"/>
      <point x="864" y="57" type="line"/>
      <point x="864" y="535" type="line" smooth="yes"/>
      <point x="864" y="664"/>
      <point x="753" y="768"/>
      <point x="618" y="768" type="curve" smooth="yes"/>
      <point x="269" y="768" type="line" smooth="yes"/>
      <point x="133" y="768"/>
      <point x="23" y="664"/>
      <point x="23" y="535" type="curve" smooth="yes"/>
      <point x="23" y="123" type="line" smooth="yes"/>
      <point x="23" y="0"/>
      <point x="127" y="-110"/>
      <point x="269" y="-110" type="curve" smooth="yes"/>
    </contour>
    <contour>
      <point x="570" y="176" type="line"/>
      <point x="376" y="176" type="line" smooth="yes"/>
      <point x="332" y="176"/>
      <point x="302" y="208"/>
      <point x="302" y="246" type="curve" smooth="yes"/>
      <point x="302" y="419" type="line" smooth="yes"/>
      <point x="302" y="457"/>
      <point x="332" y="490"/>
      <point x="376" y="490" type="curve" smooth="yes"/>
      <point x="496" y="490" type="line" smooth="yes"/>
      <point x="540" y="490"/>
      <point x="570" y="457"/>
      <point x="570" y="419" type="curve" smooth="yes"/>
    </contour>
  </outline>
</glyph>
<glyph name="A" format="2">
  <advance width="573"/>
  <unicode hex="0041"/>
  <outline>
    <contour>
      <point x="576" y="0" type="line"/>
      <point x="275" y="725" type="line"/>
      <point x="-28" y="0" type="line"/>
      <point x="134" y="0" type="line"/>
      <point x="275" y="337" type="line"/>
      <point x="306" y="262"/>
      <point x="325" y="217"/>
      <point x="354" y="150" type="curve"/>
      <point x="237" y="150" type="line"/>
      <point x="175" y="0" type="line"/>
    </contour>
  </outline>
</glyph>
<glyph name="B" format="2">
  <advance width="599"/>
  <unicode hex="0042"/>
  <outline>
    <contour>
      <point x="330" y="150" type="curve" smooth="yes"/>
      <point x="196" y="150" type="line"/>
      <point x="196" y="272" type="line"/>
      <point x="330" y="272" type="line" smooth="yes"/>
      <point x="366" y="272"/>
      <point x="391" y="244"/>
      <point x="391" y="211" type="curve" smooth="yes"/>
      <point x="391" y="177"/>
      <point x="366" y="150"/>
    </contour>
    <contour>
      <point x="330" y="0" type="line" smooth="yes"/>
      <point x="464" y="0"/>
      <point x="540" y="111"/>
      <point x="540" y="213" type="curve" smooth="yes"/>
      <point x="540" y="258"/>
      <point x="528" y="307"/>
      <point x="492" y="348" type="curve"/>
      <point x="528" y="387"/>
      <point x="541" y="433"/>
      <point x="541" y="480" type="curve" smooth="yes"/>
      <point x="541" y="584"/>
      <point x="460" y="693"/>
      <point x="330" y="693" type="curve" smooth="yes"/>
      <point x="46" y="693" type="line"/>
      <point x="46" y="544" type="line"/>
      <point x="330" y="544" type="line" smooth="yes"/>
      <point x="366" y="544"/>
      <point x="391" y="516"/>
      <point x="391" y="482" type="curve" smooth="yes"/>
      <point x="391" y="449"/>
      <point x="366" y="421"/>
      <point x="330" y="421" type="curve" smooth="yes"/>
      <point x="46" y="421" type="line"/>
      <point x="46" y="0" type="line"/>
    </contour>
  </outline>
</glyph>
<glyph name="D" format="2">
  <advance width="637"/>
  <unicode hex="0044"/>
  <outline>
    <contour>
      <point x="258" y="0" type="line" smooth="yes"/>
      <point x="444" y="0"/>
      <point x="605" y="150"/>
      <point x="605" y="347" type="curve" smooth="yes"/>
      <point x="605" y="539"/>
      <point x="450" y="694"/>
      <point x="258" y="694" type="curve" smooth="yes"/>
      <point x="47" y="694" type="line"/>
      <point x="47" y="544" type="line"/>
      <point x="258" y="544" type="line" smooth="yes"/>
      <point x="367" y="544"/>
      <point x="455" y="457"/>
      <point x="455" y="347" type="curve" smooth="yes"/>
      <point x="455" y="238"/>
      <point x="368" y="150"/>
      <point x="258" y="150" type="curve" smooth="yes"/>
      <point x="196" y="150" type="line"/>
      <point x="196" y="512" type="line"/>
      <point x="47" y="512" type="line"/>
      <point x="47" y="0" type="line"/>
    </contour>
  </outline>
</glyph>
<glyph name="F" format="2">
  <advance width="549"/>
  <unicode hex="0046"/>
  <outline>
    <contour>
      <point x="515" y="543" type="line"/>
      <point x="515" y="693" type="line"/>
      <point x="231" y="693" type="line"/>
      <point x="231" y="543" type="line"/>
    </contour>
    <contour>
      <point x="195" y="0" type="line"/>
      <point x="195" y="271" type="line"/>
      <point x="460" y="271" type="line"/>
      <point x="460" y="421" type="line"/>
      <point x="195" y="421" type="line"/>
      <point x="195" y="693" type="line"/>
      <point x="45" y="693" type="line"/>
      <point x="45" y="0" type="line"/>
    </contour>
  </outline>
</glyph>
<glyph name="J" format="2">
  <advance width="301"/>
  <unicode hex="004A"/>
  <outline>
    <contour>
      <point x="7" y="0" type="line"/>
      <point x="149" y="0"/>
      <point x="266" y="104"/>
      <point x="266" y="238" type="curve" smooth="yes"/>
      <point x="266" y="693" type="line"/>
      <point x="115" y="693" type="line"/>
      <point x="115" y="238" type="line" smooth="yes"/>
      <point x="115" y="190"/>
      <point x="67" y="150"/>
      <point x="7" y="150" type="curve"/>
    </contour>
  </outline>
</glyph>
<glyph name="L" format="2">
  <advance width="437"/>
  <unicode hex="004C"/>
  <outline>
    <contour>
      <point x="433" y="0" type="line"/>
      <point x="433" y="150" type="line"/>
      <point x="194" y="150" type="line"/>
      <point x="194" y="693" type="line"/>
      <point x="44" y="693" type="line"/>
      <point x="44" y="0" type="line"/>
    </contour>
  </outline>
</glyph>
<glyph name="M" format="2">
  <advance width="801"/>
  <unicode hex="004D"/>
  <outline>
    <contour>
      <point x="733" y="0" type="line"/>
      <point x="733" y="694" type="line"/>
      <point x="591" y="694" type="line"/>
      <point x="406" y="250" type="line"/>
      <point x="486" y="55" type="line"/>
      <point x="584" y="287" type="line"/>
      <point x="584" y="0" type="line"/>
    </contour>
    <contour>
      <point x="480" y="0" type="line"/>
      <point x="192" y="694" type="line"/>
      <point x="49" y="694" type="line"/>
      <point x="49" y="0" type="line"/>
      <point x="199" y="0" type="line"/>
      <point x="199" y="287" type="line"/>
      <point x="320" y="0" type="line"/>
    </contour>
  </outline>
</glyph>
<glyph name="P" format="2">
  <advance width="565"/>
  <unicode hex="0050"/>
  <outline>
    <contour>
      <point x="185" y="0" type="line"/>
      <point x="185" y="217" type="line"/>
      <point x="295" y="217" type="line" smooth="yes"/>
      <point x="426" y="217"/>
      <point x="532" y="323"/>
      <point x="532" y="455" type="curve" smooth="yes"/>
      <point x="532" y="585"/>
      <point x="429" y="693"/>
      <point x="295" y="693" type="curve" smooth="yes"/>
      <point x="35" y="693" type="line"/>
      <point x="35" y="544" type="line"/>
      <point x="295" y="544" type="line" smooth="yes"/>
      <point x="343" y="544"/>
      <point x="382" y="505"/>
      <point x="382" y="455" type="curve" smooth="yes"/>
      <point x="382" y="407"/>
      <point x="343" y="368"/>
      <point x="295" y="368" type="curve" smooth="yes"/>
      <point x="35" y="368" type="line"/>
      <point x="35" y="0" type="line"/>
    </contour>
  </outline>
</glyph>
<glyph name="V" format="2">
  <advance width="732"/>
  <unicode hex="0056"/>
  <outline>
    <contour>
      <point x="455" y="60" type="line"/>
      <point x="712" y="693" type="line"/>
      <point x="552" y="693" type="line"/>
      <point x="373" y="253" type="line"/>
    </contour>
    <contour>
      <point x="441" y="0" type="line"/>
      <point x="152" y="693" type="line"/>
      <point x="-9" y="693" type="line"/>
      <point x="280" y="0" type="line"/>
    </contour>
  </outline>
</glyph>
<glyph name="X" format="2">
  <advance width="560"/>
  <unicode hex="0058"/>
  <outline>
    <contour>
      <point x="377" y="380" type="line"/>
      <point x="539" y="693" type="line"/>
      <point x="370" y="693" type="line"/>
      <point x="292" y="538" type="line"/>
    </contour>
    <contour>
      <point x="539" y="0" type="line"/>
      <point x="174" y="693" type="line"/>
      <point x="5" y="693" type="line"/>
      <point x="370" y="0" type="line"/>
    </contour>
    <contour>
      <point x="174" y="0" type="line"/>
      <point x="256" y="157" type="line"/>
      <point x="170" y="313" type="line"/>
      <point x="5" y="0" type="line"/>
    </contour>
  </outline>
</glyph>
<glyph name="Z" format="2">
  <advance width="602"/>
  <unicode hex="005A"/>
  <outline>
    <contour>
      <point x="548" y="0" type="line"/>
      <point x="548" y="150" type="line"/>
      <point x="221" y="150" type="line"/>
      <point x="524" y="515" type="line"/>
      <point x="330" y="515" type="line"/>
      <point x="18" y="137" type="line"/>
      <point x="18" y="0" type="line"/>
    </contour>
    <contour>
      <point x="548" y="544" type="line"/>
      <point x="548" y="694" type="line"/>
      <point x="18" y="694" type="line"/>
      <point x="18" y="544" type="line"/>
    </contour>
  </outline>
</glyph>
<glyph name="bracketleft" format="2">
  <advance width="254"/>
  <unicode hex="005B"/>
  <outline>
    <contour>
      <point x="397" y="-152" type="line"/>
      <point x="397" y="-40" type="line"/>
      <point x="207" y="-40" type="line"/>
      <point x="207" y="726" type="line"/>
      <point x="397" y="726" type="line"/>
      <point x="397" y="838" type="line"/>
      <point x="57" y="838" type="line"/>
      <point x="57" y="-152" type="line"/>
    </contour>
  </outline>
</glyph>
<glyph name="backslash" format="2">
  <advance width="594"/>
  <unicode hex="005C"/>
  <outline>
    <contour>
      <point x="556" y="0" type="line"/>
      <point x="224" y="693" type="line"/>
      <point x="57" y="693" type="line"/>
      <point x="389" y="0" type="line"/>
    </contour>
  </outline>
</glyph>
<glyph name="bracketright" format="2">
  <advance width="254"/>
  <unicode hex="005D"/>
  <outline>
    <contour>
      <point x="206" y="-152" type="line"/>
      <point x="206" y="838" type="line"/>
      <point x="-134" y="838" type="line"/>
      <point x="-134" y="726" type="line"/>
      <point x="56" y="726" type="line"/>
      <point x="56" y="-40" type="line"/>
      <point x="-134" y="-40" type="line"/>
      <point x="-134" y="-152" type="line"/>
    </contour>
  </outline>
</glyph>
<glyph name="asciicircum" format="2">
  <advance width="667"/>
  <unicode hex="005E"/>
  <outline>
    <contour>
      <point x="648" y="280" type="line"/>
      <point x="409" y="693" type="line"/>
      <point x="257" y="693" type="line"/>
      <point x="18" y="280" type="line"/>
      <point x="197" y="280" type="line"/>
      <point x="333" y="513" type="line"/>
      <point x="469" y="280" type="line"/>
    </contour>
  </outline>
</glyph>
<glyph name="underscore" format="2">
  <advance width="664"/>
  <unicode hex="005F"/>
  <outline>
    <contour>
      <point x="634" y="-166" type="line"/>
      <point x="634" y="-38" type="line"/>
      <point x="34" y="-38" type="line"/>
      <point x="34" y="-166" type="line"/>
    </contour>
  </outline>
</glyph>
<glyph name="grave" format="2">
  <advance width="423"/>
  <unicode hex="0060"/>
  <outline>
    <contour>
      <point x="337" y="730" type="line"/>
      <point x="230" y="867" type="line"/>
      <point x="80" y="867" type="line"/>
      <point x="182" y="730" type="line"/>
    </contour>
  </outline>
</glyph>
<glyph name="h" format="2">
  <advance width="665"/>
  <unicode hex="0068"/>
  <outline>
    <contour>
      <point x="596" y="0" type="line"/>
      <point x="596" y="694" type="line"/>
      <point x="446" y="694" type="line"/>
      <point x="446" y="422" type="line"/>
      <point x="65" y="422" type="line"/>
      <point x="65" y="0" type="line"/>
      <point x="216" y="0" type="line"/>
      <point x="216" y="272" type="line"/>
      <point x="446" y="272" type="line"/>
      <point x="446" y="0" type="line"/>
    </contour>
    <contour>
      <point x="216" y="454" type="line"/>
      <point x="216" y="694" type="line"/>
      <point x="65" y="694" type="line"/>
      <point x="65" y="454" type="line"/>
    </contour>
  </outline>
</glyph>
<glyph name="i" format="2">
  <advance width="260"/>
  <unicode hex="0069"/>
  <outline>
    <contour>
      <point x="207" y="0" type="line"/>
      <point x="207" y="693" type="line"/>
      <point x="57" y="693" type="line"/>
      <point x="57" y="0" type="line"/>
    </contour>
  </outline>
</glyph>
<glyph name="k" format="2">
  <advance width="636"/>
  <unicode hex="006B"/>
  <outline>
    <contour>
      <point x="617" y="0" type="line"/>
      <point x="545" y="106"/>
      <point x="458" y="239"/>
      <point x="385" y="347" type="curve"/>
      <point x="617" y="694" type="line"/>
      <point x="437" y="694" type="line"/>
      <point x="206" y="347" type="line"/>
      <point x="437" y="0" type="line"/>
    </contour>
    <contour>
      <point x="196" y="0" type="line"/>
      <point x="196" y="694" type="line"/>
      <point x="47" y="694" type="line"/>
      <point x="47" y="0" type="line"/>
    </contour>
  </outline>
</glyph>
<glyph name="n" format="2">
  <advance width="696"/>
  <unicode hex="006E"/>
  <outline>
    <contour>
      <point x="632" y="81" type="line"/>
      <point x="632" y="693" type="line"/>
      <point x="482" y="693" type="line"/>
      <point x="482" y="306" type="line"/>
    </contour>
    <contour>
      <point x="650" y="0" type="line"/>
      <point x="187" y="693" type="line"/>
      <point x="47" y="693" type="line"/>
      <point x="47" y="0" type="line"/>
      <point x="197" y="0" type="line"/>
      <point x="197" y="410" type="line"/>
      <point x="471" y="0" type="line"/>
    </contour>
  </outline>
</glyph>
<glyph name="q" format="2">
  <advance width="674"/>
  <unicode hex="0071"/>
  <outline>
    <contour>
      <point x="341" y="0" type="curve" smooth="yes"/>
      <point x="431" y="0"/>
      <point x="495" y="31"/>
      <point x="561" y="101" type="curve"/>
      <point x="461" y="276" type="line"/>
      <point x="288" y="276" type="line"/>
      <point x="359" y="151" type="line"/>
      <point x="350" y="150" type="line"/>
      <point x="311" y="150" type="line" smooth="yes"/>
      <point x="230" y="150"/>
      <point x="169" y="215"/>
      <point x="169" y="292" type="curve" smooth="yes"/>
      <point x="169" y="402" type="line" smooth="yes"/>
      <point x="169" y="483"/>
      <point x="234" y="544"/>
      <point x="311" y="544" type="curve" smooth="yes"/>
      <point x="341" y="544" type="line" smooth="yes"/>
      <point x="422" y="544"/>
      <point x="483" y="479"/>
      <point x="483" y="402" type="curve"/>
      <point x="481" y="303" type="line"/>
      <point x="582" y="128" type="line"/>
      <point x="611" y="175"/>
      <point x="633" y="234"/>
      <point x="633" y="292" type="curve" smooth="yes"/>
      <point x="633" y="402" type="line" smooth="yes"/>
      <point x="633" y="525"/>
      <point x="557" y="627"/>
      <point x="455" y="671" type="curve" smooth="yes"/>
      <point x="403" y="693"/>
      <point x="370" y="694"/>
      <point x="311" y="694" type="curve" smooth="yes"/>
      <point x="152" y="694"/>
      <point x="18" y="564"/>
      <point x="18" y="402" type="curve" smooth="yes"/>
      <point x="18" y="292" type="line" smooth="yes"/>
      <point x="18" y="171"/>
      <point x="92" y="68"/>
      <point x="198" y="23" type="curve" smooth="yes"/>
      <point x="249" y="1"/>
      <point x="282" y="0"/>
    </contour>
  </outline>
</glyph>
<glyph name="t" format="2">
  <advance width="538"/>
  <unicode hex="0074"/>
  <outline>
    <contour>
      <point x="530" y="544" type="line"/>
      <point x="530" y="694" type="line"/>
      <point x="11" y="694" type="line"/>
      <point x="11" y="544" type="line"/>
    </contour>
    <contour>
      <point x="345" y="0" type="line"/>
      <point x="345" y="510" type="line"/>
      <point x="196" y="510" type="line"/>
      <point x="196" y="0" type="line"/>
    </contour>
  </outline>
</glyph>
<glyph name="v" format="2">
  <advance width="732"/>
  <unicode hex="0076"/>
  <outline>
    <contour>
      <point x="455" y="60" type="line"/>
      <point x="712" y="693" type="line"/>
      <point x="552" y="693" type="line"/>
      <point x="373" y="253" type="line"/>
    </contour>
    <contour>
      <point x="441" y="0" type="line"/>
      <point x="152" y="693" type="line"/>
      <point x="-9" y="693" type="line"/>
      <point x="280" y="0" type="line"/>
    </contour>
  </outline>
</glyph>
<glyph name="w" format="2">
  <advance width="1051"/>
  <unicode hex="0077"/>
  <outline>
    <contour>
      <point x="783" y="60" type="line"/>
      <point x="1045" y="693" type="line"/>
      <point x="882" y="693" type="line"/>
      <point x="701" y="252" type="line"/>
    </contour>
    <contour>
      <point x="772" y="0" type="line"/>
      <point x="483" y="693" type="line"/>
      <point x="322" y="693" type="line"/>
      <point x="355" y="611"/>
      <point x="400" y="500"/>
      <point x="439" y="412" type="curve"/>
      <point x="376" y="257" type="line"/>
      <point x="456" y="63" type="line"/>
      <point x="520" y="217" type="line"/>
      <point x="610" y="0" type="line"/>
    </contour>
    <contour>
      <point x="618" y="449" type="line"/>
      <point x="718" y="693" type="line"/>
      <point x="557" y="693" type="line"/>
      <point x="537" y="642" type="line"/>
    </contour>
    <contour>
      <point x="446" y="0" type="line"/>
      <point x="157" y="693" type="line"/>
      <point x="-4" y="693" type="line"/>
      <point x="285" y="0" type="line"/>
    </contour>
  </outline>
</glyph>
<glyph name="y" format="2">
  <advance width="548"/>
  <unicode hex="0079"/>
  <outline>
    <contour>
      <point x="373" y="415" type="line"/>
      <point x="570" y="693" type="line"/>
      <point x="390" y="693" type="line"/>
      <point x="283" y="550" type="line"/>
    </contour>
    <contour>
      <point x="356" y="0" type="line"/>
      <point x="356" y="385" type="line"/>
      <point x="150" y="693" type="line"/>
      <point x="-29" y="693" type="line"/>
      <point x="207" y="340" type="line"/>
      <point x="207" y="0" type="line"/>
    </contour>
  </outline>
</glyph>
<glyph name="braceleft" format="2">
  <advance width="347"/>
  <unicode hex="007B"/>
  <outline>
    <contour>
      <point x="426" y="-264" type="line"/>
      <point x="426" y="-114" type="line"/>
      <point x="390" y="-114" type="line" smooth="yes"/>
      <point x="342" y="-114"/>
      <point x="303" y="-76"/>
      <point x="303" y="-26" type="curve" smooth="yes"/>
      <point x="303" y="183" type="line" smooth="yes"/>
      <point x="303" y="248"/>
      <point x="280" y="301"/>
      <point x="241" y="344" type="curve"/>
      <point x="280" y="387"/>
      <point x="303" y="441"/>
      <point x="303" y="506" type="curve" smooth="yes"/>
      <point x="303" y="700" type="line" smooth="yes"/>
      <point x="303" y="750"/>
      <point x="342" y="788"/>
      <point x="390" y="788" type="curve" smooth="yes"/>
      <point x="426" y="788" type="line"/>
      <point x="426" y="938" type="line"/>
      <point x="390" y="938" type="line" smooth="yes"/>
      <point x="323" y="938"/>
      <point x="264" y="911"/>
      <point x="222" y="869" type="curve" smooth="yes"/>
      <point x="180" y="827"/>
      <point x="152" y="781"/>
      <point x="152" y="656" type="curve" smooth="yes"/>
      <point x="152" y="506" type="line" smooth="yes"/>
      <point x="152" y="463"/>
      <point x="124" y="428"/>
      <point x="86" y="420" type="curve"/>
      <point x="65" y="421" type="line"/>
      <point x="29" y="421" type="line"/>
      <point x="29" y="268" type="line"/>
      <point x="87" y="268" type="line"/>
      <point x="122" y="260"/>
      <point x="152" y="227"/>
      <point x="152" y="183" type="curve" smooth="yes"/>
      <point x="152" y="-26" type="line" smooth="yes"/>
      <point x="152" y="-159"/>
      <point x="258" y="-264"/>
      <point x="390" y="-264" type="curve" smooth="yes"/>
    </contour>
  </outline>
</glyph>
<glyph name="bar" format="2">
  <advance width="200"/>
  <unicode hex="007C"/>
  <outline>
    <contour>
      <point x="158" y="-87" type="line"/>
      <point x="158" y="772" type="line"/>
      <point x="41" y="772" type="line"/>
      <point x="41" y="-87" type="line"/>
    </contour>
  </outline>
</glyph>
<glyph name="braceright" format="2">
  <advance width="347"/>
  <unicode hex="007D"/>
  <outline>
    <contour>
      <point x="-52" y="-264" type="line" smooth="yes"/>
      <point x="79" y="-264"/>
      <point x="186" y="-160"/>
      <point x="186" y="-26" type="curve" smooth="yes"/>
      <point x="186" y="183" type="line" smooth="yes"/>
      <point x="186" y="227"/>
      <point x="216" y="260"/>
      <point x="251" y="268" type="curve"/>
      <point x="309" y="268" type="line"/>
      <point x="309" y="421" type="line"/>
      <point x="273" y="421" type="line"/>
      <point x="252" y="420" type="line"/>
      <point x="214" y="428"/>
      <point x="186" y="463"/>
      <point x="186" y="506" type="curve" smooth="yes"/>
      <point x="186" y="656" type="line" smooth="yes"/>
      <point x="186" y="719"/>
      <point x="180" y="764"/>
      <point x="168" y="793" type="curve" smooth="yes"/>
      <point x="131" y="878"/>
      <point x="48" y="938"/>
      <point x="-52" y="938" type="curve" smooth="yes"/>
      <point x="-88" y="938" type="line"/>
      <point x="-88" y="788" type="line"/>
      <point x="-52" y="788" type="line" smooth="yes"/>
      <point x="-4" y="788"/>
      <point x="35" y="750"/>
      <point x="35" y="700" type="curve" smooth="yes"/>
      <point x="35" y="506" type="line" smooth="yes"/>
      <point x="35" y="441"/>
      <point x="58" y="387"/>
      <point x="97" y="344" type="curve"/>
      <point x="58" y="301"/>
      <point x="35" y="248"/>
      <point x="35" y="183" type="curve" smooth="yes"/>
      <point x="35" y="-26" type="line" smooth="yes"/>
      <point x="35" y="-76"/>
      <point x="-4" y="-114"/>
      <point x="-52" y="-114" type="curve" smooth="yes"/>
      <point x="-88" y="-114" type="line"/>
      <point x="-88" y="-264" type="line"/>
    </contour>
  </outline>
</glyph>
<glyph name="asciitilde" format="2">
  <advance width="758"/>
  <unicode hex="007E"/>
  <outline>
    <contour>
      <point x="107" y="250" type="line"/>
      <point x="163" y="322"/>
      <point x="206" y="362"/>
      <point x="233" y="370" type="curve"/>
      <point x="230" y="369" type="line"/>
      <point x="237" y="369"/>
      <point x="242" y="369"/>
      <point x="245" y="371" type="curve"/>
      <point x="268" y="371"/>
      <point x="299" y="354"/>
      <point x="336" y="326" type="curve" smooth="yes"/>
      <point x="402" y="276"/>
      <point x="452" y="256"/>
      <point x="500" y="256" type="curve" smooth="yes"/>
      <point x="514" y="256"/>
      <point x="526" y="257"/>
      <point x="535" y="259" type="curve" smooth="yes"/>
      <point x="592" y="273"/>
      <point x="638" y="299"/>
      <point x="727" y="416" type="curve"/>
      <point x="637" y="512" type="line"/>
      <point x="582" y="441"/>
      <point x="538" y="401"/>
      <point x="506" y="393" type="curve"/>
      <point x="480" y="393"/>
      <point x="457" y="400"/>
      <point x="408" y="438" type="curve" smooth="yes"/>
      <point x="373" y="465"/>
      <point x="342" y="483"/>
      <point x="311" y="494" type="curve"/>
      <point x="312" y="494" type="line"/>
      <point x="290" y="503"/>
      <point x="268" y="507"/>
      <point x="245" y="507" type="curve" smooth="yes"/>
      <point x="189" y="507"/>
      <point x="155" y="487"/>
      <point x="115" y="455" type="curve"/>
      <point x="115" y="456" type="line"/>
      <point x="90" y="435"/>
      <point x="59" y="402"/>
      <point x="17" y="347" type="curve"/>
    </contour>
  </outline>
</glyph>
<glyph name="exclamdown" format="2">
  <advance width="273"/>
  <unicode hex="00A1"/>
  <outline>
    <contour>
      <point x="128" y="543" type="curve" smooth="yes"/>
      <point x="169" y="543"/>
      <point x="203" y="575"/>
      <point x="203" y="619" type="curve" smooth="yes"/>
      <point x="203" y="662"/>
      <point x="169" y="693"/>
      <point x="128" y="693" type="curve" smooth="yes"/>
      <point x="87" y="693"/>
      <point x="53" y="662"/>
      <point x="53" y="619" type="curve" smooth="yes"/>
      <point x="53" y="575"/>
      <point x="87" y="543"/>
    </contour>
    <contour>
      <point x="203" y="0" type="line"/>
      <point x="203" y="422" type="line"/>
      <point x="53" y="422" type="line"/>
      <point x="53" y="0" type="line"/>
    </contour>
  </outline>
</glyph>
<glyph name="sterling" format="2">
  <advance width="585"/>
  <unicode hex="00A3"/>
  <outline>
    <contour>
      <point x="552" y="0" type="line"/>
      <point x="552" y="150" type="line"/>
      <point x="226" y="150" type="line"/>
      <point x="226" y="367" type="line"/>
      <point x="76" y="367" type="line"/>
      <point x="76" y="0" type="line"/>
    </contour>
    <contour>
      <point x="226" y="325" type="line"/>
      <point x="226" y="455" type="line" smooth="yes"/>
      <point x="226" y="504"/>
      <point x="264" y="543"/>
      <point x="314" y="543" type="curve" smooth="yes"/>
      <point x="552" y="543" type="line"/>
      <point x="552" y="693" type="line"/>
      <point x="314" y="693" type="line" smooth="yes"/>
      <point x="184" y="693"/>
      <point x="76" y="590"/>
      <point x="76" y="455" type="curve" smooth="yes"/>
      <point x="76" y="325" type="line"/>
    </contour>
    <contour>
      <point x="356" y="282" type="line"/>
      <point x="356" y="430" type="line"/>
      <point x="21" y="430" type="line"/>
      <point x="21" y="282" type="line"/>
    </contour>
  </outline>
</glyph>
<glyph name="currency" format="2">
  <advance width="625"/>
  <unicode hex="00A4"/>
  <outline>
    <contour>
      <point x="590" y="0" type="line"/>
      <point x="491" y="198" type="line"/>
      <point x="523" y="238"/>
      <point x="541" y="286"/>
      <point x="541" y="340" type="curve" smooth="yes"/>
      <point x="541" y="356" type="line" smooth="yes"/>
      <point x="541" y="408"/>
      <point x="523" y="457"/>
      <point x="492" y="497" type="curve"/>
      <point x="590" y="693" type="line"/>
      <point x="440" y="693" type="line"/>
      <point x="380" y="574" type="line"/>
      <point x="360" y="580"/>
      <point x="339" y="583"/>
      <point x="318" y="583" type="curve" smooth="yes"/>
      <point x="282" y="583"/>
      <point x="262" y="582"/>
      <point x="232" y="571" type="curve"/>
      <point x="171" y="693" type="line"/>
      <point x="21" y="693" type="line"/>
      <point x="123" y="489" type="line"/>
      <point x="96" y="450"/>
      <point x="80" y="405"/>
      <point x="80" y="356" type="curve" smooth="yes"/>
      <point x="80" y="294"/>
      <point x="89" y="254"/>
      <point x="123" y="207" type="curve"/>
      <point x="21" y="0" type="line"/>
      <point x="171" y="0" type="line"/>
      <point x="233" y="125" type="line"/>
      <point x="266" y="115"/>
      <point x="285" y="114"/>
      <point x="318" y="114" type="curve" smooth="yes"/>
      <point x="337" y="114"/>
      <point x="358" y="117"/>
      <point x="379" y="122" type="curve"/>
      <point x="440" y="0" type="line"/>
    </contour>
    <contour>
      <point x="318" y="259" type="curve" smooth="yes"/>
      <point x="303" y="259" type="line" smooth="yes"/>
      <point x="258" y="259"/>
      <point x="223" y="296"/>
      <point x="223" y="340" type="curve" smooth="yes"/>
      <point x="223" y="373"/>
      <point x="224" y="392"/>
      <point x="247" y="415" type="curve" smooth="yes"/>
      <point x="268" y="437"/>
      <point x="285" y="439"/>
      <point x="318" y="439" type="curve" smooth="yes"/>
      <point x="365" y="439"/>
      <point x="398" y="402"/>
      <point x="398" y="356" type="curve" smooth="yes"/>
      <point x="398" y="340" type="line" smooth="yes"/>
      <point x="398" y="297"/>
      <point x="365" y="259"/>
    </contour>
  </outline>
</glyph>
<glyph name="section" format="2">
  <advance width="539"/>
  <unicode hex="00A7"/>
  <outline>
    <contour>
      <point x="262" y="-125" type="line" smooth="yes"/>
      <point x="393" y="-125"/>
      <point x="500" y="-21"/>
      <point x="500" y="113" type="curve" smooth="yes"/>
      <point x="500" y="319" type="line" smooth="yes"/>
      <point x="500" y="450"/>
      <point x="396" y="557"/>
      <point x="262" y="557" type="curve" smooth="yes"/>
      <point x="180" y="557" type="line"/>
      <point x="180" y="580" type="line" smooth="yes"/>
      <point x="180" y="627"/>
      <point x="217" y="668"/>
      <point x="268" y="668" type="curve" smooth="yes"/>
      <point x="500" y="668" type="line"/>
      <point x="500" y="818" type="line"/>
      <point x="268" y="818" type="line" smooth="yes"/>
      <point x="138" y="818"/>
      <point x="30" y="714"/>
      <point x="30" y="580" type="curve" smooth="yes"/>
      <point x="30" y="356" type="line" smooth="yes"/>
      <point x="30" y="226"/>
      <point x="135" y="118"/>
      <point x="268" y="118" type="curve" smooth="yes"/>
      <point x="349" y="118" type="line"/>
      <point x="349" y="65"/>
      <point x="314" y="25"/>
      <point x="262" y="25" type="curve" smooth="yes"/>
      <point x="30" y="25" type="line"/>
      <point x="30" y="-125" type="line"/>
    </contour>
    <contour>
      <point x="350" y="268" type="line"/>
      <point x="268" y="268" type="line" smooth="yes"/>
      <point x="217" y="268"/>
      <point x="180" y="309"/>
      <point x="180" y="356" type="curve" smooth="yes"/>
      <point x="180" y="406" type="line"/>
      <point x="262" y="406" type="line" smooth="yes"/>
      <point x="312" y="406"/>
      <point x="350" y="367"/>
      <point x="350" y="319" type="curve" smooth="yes"/>
    </contour>
  </outline>
</glyph>
<glyph name="dieresis" format="2">
  <advance width="555"/>
  <unicode hex="00A8"/>
  <outline>
    <contour>
      <point x="171" y="728" type="curve" smooth="yes"/>
      <point x="211" y="728"/>
      <point x="246" y="760"/>
      <point x="246" y="803" type="curve" smooth="yes"/>
      <point x="246" y="847"/>
      <point x="212" y="878"/>
      <point x="171" y="878" type="curve" smooth="yes"/>
      <point x="130" y="878"/>
      <point x="96" y="847"/>
      <point x="96" y="803" type="curve" smooth="yes"/>
      <point x="96" y="763"/>
      <point x="128" y="728"/>
    </contour>
    <contour>
      <point x="396" y="728" type="curve" smooth="yes"/>
      <point x="436" y="728"/>
      <point x="471" y="760"/>
      <point x="471" y="803" type="curve" smooth="yes"/>
      <point x="471" y="847"/>
      <point x="437" y="878"/>
      <point x="396" y="878" type="curve" smooth="yes"/>
      <point x="355" y="878"/>
      <point x="321" y="847"/>
      <point x="321" y="803" type="curve" smooth="yes"/>
      <point x="321" y="763"/>
      <point x="353" y="728"/>
    </contour>
  </outline>
</glyph>
<glyph name="copyright" format="2">
  <advance width="569"/>
  <unicode hex="00A9"/>
  <outline>
    <contour>
      <point x="288" y="185" type="curve" smooth="yes"/>
      <point x="424" y="185"/>
      <point x="531" y="294"/>
      <point x="531" y="428" type="curve" smooth="yes"/>
      <point x="531" y="564"/>
      <point x="422" y="671"/>
      <point x="288" y="671" type="curve" smooth="yes"/>
      <point x="152" y="671"/>
      <point x="45" y="562"/>
      <point x="45" y="428" type="curve" smooth="yes"/>
      <point x="45" y="292"/>
      <point x="154" y="185"/>
    </contour>
    <contour>
      <point x="288" y="245" type="curve" smooth="yes"/>
      <point x="186" y="245"/>
      <point x="105" y="327"/>
      <point x="105" y="428" type="curve" smooth="yes"/>
      <point x="105" y="530"/>
      <point x="187" y="611"/>
      <point x="288" y="611" type="curve" smooth="yes"/>
      <point x="390" y="611"/>
      <point x="471" y="529"/>
      <point x="471" y="428" type="curve" smooth="yes"/>
      <point x="471" y="326"/>
      <point x="389" y="245"/>
    </contour>
    <contour>
      <point x="285" y="286" type="curve" smooth="yes"/>
      <point x="339" y="286"/>
      <point x="387" y="316"/>
      <point x="409" y="362" type="curve"/>
      <point x="378" y="381" type="line"/>
      <point x="354" y="341"/>
      <point x="312" y="333"/>
      <point x="285" y="333" type="curve" smooth="yes"/>
      <point x="234" y="333"/>
      <point x="193" y="374"/>
      <point x="193" y="428" type="curve" smooth="yes"/>
      <point x="193" y="479"/>
      <point x="232" y="523"/>
      <point x="285" y="523" type="curve" smooth="yes"/>
      <point x="307" y="523"/>
      <point x="348" y="509"/>
      <point x="365" y="479" type="curve"/>
      <point x="403" y="503" type="line"/>
      <point x="379" y="540"/>
      <point x="337" y="570"/>
      <point x="285" y="570" type="curve" smooth="yes"/>
      <point x="207" y="570"/>
      <point x="147" y="503"/>
      <point x="147" y="428" type="curve" smooth="yes"/>
      <point x="147" y="348"/>
      <point x="209" y="286"/>
    </contour>
  </outline>
</glyph>
<glyph name="ordfeminine" format="2">
  <advance width="279"/>
  <unicode hex="00AA"/>
  <outline>
    <contour>
      <point x="247" y="389" type="line"/>
      <point x="247" y="445" type="line"/>
      <point x="131" y="445" type="line" smooth="yes"/>
      <point x="110" y="445"/>
      <point x="94" y="458"/>
      <point x="94" y="480" type="curve"/>
      <point x="95" y="499"/>
      <point x="111" y="511"/>
      <point x="131" y="511" type="curve" smooth="yes"/>
      <point x="247" y="511" type="line"/>
      <point x="247" y="574" type="line" smooth="yes"/>
      <point x="247" y="622"/>
      <point x="204" y="664"/>
      <point x="147" y="664" type="curve" smooth="yes"/>
      <point x="31" y="664" type="line"/>
      <point x="31" y="608" type="line"/>
      <point x="147" y="608" type="line" smooth="yes"/>
      <point x="172" y="608"/>
      <point x="184" y="590"/>
      <point x="184" y="568" type="curve"/>
      <point x="131" y="568" type="line" smooth="yes"/>
      <point x="73" y="568"/>
      <point x="31" y="526"/>
      <point x="31" y="481" type="curve" smooth="yes"/>
      <point x="31" y="424"/>
      <point x="77" y="389"/>
      <point x="131" y="389" type="curve" smooth="yes"/>
    </contour>
  </outline>
</glyph>
<glyph name="guillemetleft" format="2">
  <advance width="914"/>
  <unicode hex="00AB"/>
  <outline>
    <contour>
      <point x="880" y="85" type="line"/>
      <point x="880" y="254" type="line"/>
      <point x="722" y="342" type="line"/>
      <point x="880" y="450" type="line"/>
      <point x="880" y="619" type="line"/>
      <point x="426" y="354" type="line"/>
    </contour>
    <contour>
      <point x="502" y="85" type="line"/>
      <point x="502" y="254" type="line"/>
      <point x="344" y="342" type="line"/>
      <point x="502" y="450" type="line"/>
      <point x="502" y="619" type="line"/>
      <point x="48" y="354" type="line"/>
    </contour>
  </outline>
</glyph>
<glyph name="softhyphen" format="2">
  <advance width="399"/>
  <unicode hex="00AD"/>
  <outline>
    <contour>
      <point x="362" y="282" type="line"/>
      <point x="362" y="430" type="line"/>
      <point x="27" y="430" type="line"/>
      <point x="27" y="282" type="line"/>
    </contour>
  </outline>
</glyph>
<glyph name="registered" format="2">
  <advance width="535"/>
  <unicode hex="00AE"/>
  <outline>
    <contour>
      <point x="270" y="192" type="curve" smooth="yes"/>
      <point x="407" y="192"/>
      <point x="513" y="301"/>
      <point x="513" y="434" type="curve" smooth="yes"/>
      <point x="513" y="570"/>
      <point x="404" y="677"/>
      <point x="270" y="677" type="curve" smooth="yes"/>
      <point x="133" y="677"/>
      <point x="28" y="567"/>
      <point x="28" y="434" type="curve" smooth="yes"/>
      <point x="28" y="297"/>
      <point x="137" y="192"/>
    </contour>
    <contour>
      <point x="270" y="245" type="curve" smooth="yes"/>
      <point x="166" y="245"/>
      <point x="81" y="329"/>
      <point x="81" y="434" type="curve" smooth="yes"/>
      <point x="81" y="537"/>
      <point x="163" y="624"/>
      <point x="270" y="624" type="curve" smooth="yes"/>
      <point x="373" y="624"/>
      <point x="460" y="541"/>
      <point x="460" y="434" type="curve" smooth="yes"/>
      <point x="460" y="332"/>
      <point x="377" y="245"/>
    </contour>
    <contour>
      <point x="386" y="297" type="line"/>
      <point x="329" y="395" type="line"/>
      <point x="366" y="413"/>
      <point x="381" y="445"/>
      <point x="381" y="477" type="curve" smooth="yes"/>
      <point x="381" y="524"/>
      <point x="344" y="573"/>
      <point x="283" y="573" type="curve" smooth="yes"/>
      <point x="176" y="573" type="line"/>
      <point x="176" y="514" type="line"/>
      <point x="283" y="514" type="line" smooth="yes"/>
      <point x="302" y="514"/>
      <point x="319" y="498"/>
      <point x="319" y="479" type="curve" smooth="yes"/>
      <point x="319" y="460"/>
      <point x="304" y="444"/>
      <point x="283" y="444" type="curve" smooth="yes"/>
      <point x="176" y="444" type="line"/>
      <point x="176" y="297" type="line"/>
      <point x="237" y="297" type="line"/>
      <point x="237" y="383" type="line"/>
      <point x="265" y="383" type="line"/>
      <point x="316" y="297" type="line"/>
    </contour>
  </outline>
</glyph>
<glyph name="degree" format="2">
  <advance width="328"/>
  <unicode hex="00B0"/>
  <outline>
    <contour>
      <point x="166" y="398" type="curve" smooth="yes"/>
      <point x="238" y="398"/>
      <point x="300" y="455"/>
      <point x="300" y="531" type="curve" smooth="yes"/>
      <point x="300" y="602"/>
      <point x="243" y="665"/>
      <point x="166" y="665" type="curve" smooth="yes"/>
      <point x="91" y="665"/>
      <point x="33" y="603"/>
      <point x="33" y="531" type="curve" smooth="yes"/>
      <point x="33" y="455"/>
      <point x="95" y="398"/>
    </contour>
    <contour>
      <point x="166" y="458" type="curve" smooth="yes"/>
      <point x="126" y="458"/>
      <point x="93" y="490"/>
      <point x="93" y="531" type="curve" smooth="yes"/>
      <point x="93" y="574"/>
      <point x="127" y="605"/>
      <point x="166" y="605" type="curve" smooth="yes"/>
      <point x="207" y="605"/>
      <point x="240" y="574"/>
      <point x="240" y="531" type="curve" smooth="yes"/>
      <point x="240" y="492"/>
      <point x="209" y="458"/>
    </contour>
  </outline>
</glyph>
<glyph name="plusminus" format="2">
  <advance width="532"/>
  <unicode hex="00B1"/>
  <outline>
    <contour>
      <point x="494" y="335" type="line"/>
      <point x="494" y="447" type="line"/>
      <point x="39" y="447" type="line"/>
      <point x="39" y="335" type="line"/>
    </contour>
    <contour>
      <point x="330" y="164" type="line"/>
      <point x="330" y="618" type="line"/>
      <point x="218" y="618" type="line"/>
      <point x="218" y="164" type="line"/>
    </contour>
    <contour>
      <point x="494" y="0" type="line"/>
      <point x="494" y="112" type="line"/>
      <point x="39" y="112" type="line"/>
      <point x="39" y="0" type="line"/>
    </contour>
  </outline>
</glyph>
<glyph name="twosuperior" format="2">
  <advance width="268"/>
  <unicode hex="00B2"/>
  <outline>
    <contour>
      <point x="225" y="387" type="line"/>
      <point x="225" y="447" type="line"/>
      <point x="94" y="447" type="line"/>
      <point x="94" y="534" type="line"/>
      <point x="34" y="534" type="line"/>
      <point x="34" y="387" type="line"/>
    </contour>
    <contour>
      <point x="225" y="517" type="line"/>
      <point x="225" y="569" type="line" smooth="yes"/>
      <point x="225" y="623"/>
      <point x="183" y="664"/>
      <point x="130" y="664" type="curve" smooth="yes"/>
      <point x="34" y="664" type="line"/>
      <point x="34" y="604" type="line"/>
      <point x="130" y="604" type="line" smooth="yes"/>
      <point x="149" y="604"/>
      <point x="165" y="588"/>
      <point x="165" y="569" type="curve" smooth="yes"/>
      <point x="165" y="517" type="line"/>
    </contour>
  </outline>
</glyph>
<glyph name="threesuperior" format="2">
  <advance width="249"/>
  <unicode hex="00B3"/>
  <outline>
    <contour>
      <point x="131" y="387" type="line" smooth="yes"/>
      <point x="184" y="387"/>
      <point x="227" y="431"/>
      <point x="227" y="482" type="curve" smooth="yes"/>
      <point x="227" y="569" type="line" smooth="yes"/>
      <point x="227" y="624"/>
      <point x="182" y="664"/>
      <point x="131" y="664" type="curve" smooth="yes"/>
      <point x="36" y="664" type="line"/>
      <point x="36" y="605" type="line"/>
      <point x="131" y="605" type="line" smooth="yes"/>
      <point x="150" y="605"/>
      <point x="167" y="590"/>
      <point x="167" y="569" type="curve" smooth="yes"/>
      <point x="167" y="482" type="line" smooth="yes"/>
      <point x="167" y="463"/>
      <point x="150" y="447"/>
      <point x="131" y="447" type="curve" smooth="yes"/>
      <point x="36" y="447" type="line"/>
      <point x="36" y="387" type="line"/>
    </contour>
    <contour>
      <point x="154" y="496" type="line"/>
      <point x="154" y="556" type="line"/>
      <point x="36" y="556" type="line"/>
      <point x="36" y="496" type="line"/>
    </contour>
  </outline>
</glyph>
<glyph name="acute" format="2">
  <advance width="372"/>
  <unicode hex="00B4"/>
  <outline>
    <contour>
      <point x="216" y="730" type="line"/>
      <point x="318" y="867" type="line"/>
      <point x="155" y="867" type="line"/>
      <point x="48" y="730" type="line"/>
    </contour>
  </outline>
</glyph>
<glyph name="mu" format="2">
  <advance width="603"/>
  <unicode hex="00B5"/>
  <outline>
    <contour>
      <point x="173" y="-129" type="line"/>
      <point x="173" y="123" type="line"/>
      <point x="209" y="102"/>
      <point x="255" y="91"/>
      <point x="295" y="91" type="curve" smooth="yes"/>
      <point x="338" y="91"/>
      <point x="381" y="100"/>
      <point x="420" y="123" type="curve"/>
      <point x="420" y="91" type="line"/>
      <point x="547" y="91" type="line"/>
      <point x="547" y="693" type="line"/>
      <point x="420" y="693" type="line"/>
      <point x="420" y="338" type="line"/>
      <point x="419" y="323"/>
      <point x="416" y="309"/>
      <point x="411" y="296" type="curve"/>
      <point x="391" y="252"/>
      <point x="347" y="221"/>
      <point x="300" y="221" type="curve" smooth="yes"/>
      <point x="232" y="221"/>
      <point x="175" y="272"/>
      <point x="175" y="345" type="curve" smooth="yes"/>
      <point x="175" y="693" type="line"/>
      <point x="46" y="693" type="line"/>
      <point x="46" y="-129" type="line"/>
    </contour>
  </outline>
</glyph>
<glyph name="paragraph" format="2">
  <advance width="789"/>
  <unicode hex="00B6"/>
  <outline>
    <contour>
      <point x="645" y="-74" type="line"/>
      <point x="645" y="634" type="line"/>
      <point x="759" y="634" type="line"/>
      <point x="759" y="728" type="line"/>
      <point x="282" y="727" type="line"/>
      <point x="212" y="726"/>
      <point x="150" y="697"/>
      <point x="106" y="657" type="curve" smooth="yes"/>
      <point x="49" y="604"/>
      <point x="33" y="549"/>
      <point x="33" y="469" type="curve" smooth="yes"/>
      <point x="33" y="328"/>
      <point x="150" y="233"/>
      <point x="294" y="233" type="curve"/>
      <point x="294" y="-74" type="line"/>
      <point x="393" y="-74" type="line"/>
      <point x="393" y="634" type="line"/>
      <point x="546" y="634" type="line"/>
      <point x="546" y="-74" type="line"/>
    </contour>
  </outline>
</glyph>
<glyph name="periodcentered" format="2">
  <advance width="256"/>
  <unicode hex="00B7"/>
  <outline>
    <contour>
      <point x="207" y="375" type="line"/>
      <point x="207" y="693" type="line"/>
      <point x="57" y="693" type="line"/>
      <point x="57" y="375" type="line"/>
    </contour>
  </outline>
</glyph>
<glyph name="onesuperior" format="2">
  <advance width="290"/>
  <unicode hex="00B9"/>
  <outline>
    <contour>
      <point x="149" y="387" type="curve" smooth="yes"/>
      <point x="216" y="387"/>
      <point x="266" y="441"/>
      <point x="266" y="504" type="curve" smooth="yes"/>
      <point x="266" y="548" type="line" smooth="yes"/>
      <point x="266" y="621"/>
      <point x="210" y="664"/>
      <point x="137" y="664" type="curve" smooth="yes"/>
      <point x="74" y="664"/>
      <point x="20" y="612"/>
      <point x="20" y="548" type="curve" smooth="yes"/>
      <point x="20" y="504" type="line" smooth="yes"/>
      <point x="20" y="433"/>
      <point x="76" y="387"/>
    </contour>
    <contour>
      <point x="149" y="447" type="curve" smooth="yes"/>
      <point x="110" y="447"/>
      <point x="81" y="462"/>
      <point x="81" y="504" type="curve" smooth="yes"/>
      <point x="81" y="548" type="line" smooth="yes"/>
      <point x="81" y="580"/>
      <point x="105" y="605"/>
      <point x="137" y="605" type="curve" smooth="yes"/>
      <point x="149" y="605" type="line" smooth="yes"/>
      <point x="181" y="605"/>
      <point x="206" y="579"/>
      <point x="206" y="548" type="curve" smooth="yes"/>
      <point x="206" y="504" type="line" smooth="yes"/>
      <point x="206" y="473"/>
      <point x="181" y="447"/>
    </contour>
  </outline>
</glyph>
<glyph name="ordmasculine" format="2">
  <advance width="162"/>
  <unicode hex="00BA"/>
  <outline>
    <contour>
      <point x="122" y="386" type="line"/>
      <point x="122" y="664" type="line"/>
      <point x="26" y="664" type="line"/>
      <point x="26" y="604" type="line"/>
      <point x="62" y="604" type="line"/>
      <point x="62" y="386" type="line"/>
    </contour>
  </outline>
</glyph>
<glyph name="guillemetright" format="2">
  <advance width="914"/>
  <unicode hex="00BB"/>
  <outline>
    <contour>
      <point x="426" y="85" type="line"/>
      <point x="880" y="354" type="line"/>
      <point x="426" y="619" type="line"/>
      <point x="426" y="450" type="line"/>
      <point x="584" y="342" type="line"/>
      <point x="426" y="254" type="line"/>
    </contour>
    <contour>
      <point x="48" y="85" type="line"/>
      <point x="502" y="354" type="line"/>
      <point x="48" y="619" type="line"/>
      <point x="48" y="450" type="line"/>
      <point x="206" y="342" type="line"/>
      <point x="48" y="254" type="line"/>
    </contour>
  </outline>
</glyph>
<glyph name="questiondown" format="2">
  <advance width="548"/>
  <unicode hex="00BF"/>
  <outline>
    <contour>
      <point x="496" y="0" type="line"/>
      <point x="496" y="149" type="line"/>
      <point x="258" y="149" type="line" smooth="yes"/>
      <point x="208" y="149"/>
      <point x="170" y="189"/>
      <point x="170" y="238" type="curve" smooth="yes"/>
      <point x="170" y="421" type="line"/>
      <point x="19" y="421" type="line"/>
      <point x="19" y="238" type="line" smooth="yes"/>
      <point x="19" y="108"/>
      <point x="125" y="0"/>
      <point x="258" y="0" type="curve" smooth="yes"/>
    </contour>
    <contour>
      <point x="258" y="543" type="curve" smooth="yes"/>
      <point x="298" y="543"/>
      <point x="332" y="574"/>
      <point x="332" y="618" type="curve" smooth="yes"/>
      <point x="332" y="659"/>
      <point x="301" y="693"/>
      <point x="258" y="693" type="curve" smooth="yes"/>
      <point x="218" y="693"/>
      <point x="183" y="661"/>
      <point x="183" y="618" type="curve" smooth="yes"/>
      <point x="183" y="574"/>
      <point x="217" y="543"/>
    </contour>
  </outline>
</glyph>
<glyph name="Agrave" format="2">
  <advance width="573"/>
  <unicode hex="00C0"/>
  <outline>
    <contour>
      <point x="576" y="0" type="line"/>
      <point x="275" y="725" type="line"/>
      <point x="-28" y="0" type="line"/>
      <point x="134" y="0" type="line"/>
      <point x="275" y="337" type="line"/>
      <point x="306" y="262"/>
      <point x="325" y="217"/>
      <point x="354" y="150" type="curve"/>
      <point x="237" y="150" type="line"/>
      <point x="175" y="0" type="line"/>
    </contour>
    <contour>
      <point x="421" y="731" type="line"/>
      <point x="314" y="868" type="line"/>
      <point x="151" y="868" type="line"/>
      <point x="253" y="731" type="line"/>
    </contour>
  </outline>
</glyph>
<glyph name="Acircumflex" format="2">
  <advance width="573"/>
  <unicode hex="00C2"/>
  <outline>
    <contour>
      <point x="576" y="0" type="line"/>
      <point x="275" y="725" type="line"/>
      <point x="-28" y="0" type="line"/>
      <point x="134" y="0" type="line"/>
      <point x="275" y="337" type="line"/>
      <point x="306" y="262"/>
      <point x="325" y="217"/>
      <point x="354" y="150" type="curve"/>
      <point x="237" y="150" type="line"/>
      <point x="175" y="0" type="line"/>
    </contour>
    <contour>
      <point x="478" y="731" type="line"/>
      <point x="376" y="868" type="line"/>
      <point x="196" y="868" type="line"/>
      <point x="94" y="731" type="line"/>
      <point x="244" y="731" type="line"/>
      <point x="286" y="788" type="line"/>
      <point x="328" y="731" type="line"/>
    </contour>
  </outline>
</glyph>
<glyph name="Atilde" format="2">
  <advance width="573"/>
  <unicode hex="00C3"/>
  <outline>
    <contour>
      <point x="576" y="0" type="line"/>
      <point x="275" y="725" type="line"/>
      <point x="-28" y="0" type="line"/>
      <point x="134" y="0" type="line"/>
      <point x="275" y="337" type="line"/>
      <point x="306" y="262"/>
      <point x="325" y="217"/>
      <point x="354" y="150" type="curve"/>
      <point x="237" y="150" type="line"/>
      <point x="175" y="0" type="line"/>
    </contour>
    <contour>
      <point x="146" y="715" type="line"/>
      <point x="163" y="738"/>
      <point x="177" y="756"/>
      <point x="188" y="769" type="curve" smooth="yes"/>
      <point x="205" y="790"/>
      <point x="207" y="793"/>
      <point x="217" y="793" type="curve"/>
      <point x="220" y="794" type="line"/>
      <point x="232" y="794"/>
      <point x="292" y="729"/>
      <point x="354" y="729" type="curve" smooth="yes"/>
      <point x="365" y="729"/>
      <point x="371" y="730"/>
      <point x="376" y="731" type="curve" smooth="yes"/>
      <point x="413" y="741"/>
      <point x="435" y="754"/>
      <point x="500" y="839" type="curve"/>
      <point x="425" y="922" type="line"/>
      <point x="392" y="875"/>
      <point x="368" y="851"/>
      <point x="355" y="844" type="curve"/>
      <point x="347" y="844"/>
      <point x="339" y="847"/>
      <point x="316" y="865" type="curve" smooth="yes"/>
      <point x="275" y="897"/>
      <point x="249" y="908"/>
      <point x="218" y="908" type="curve" smooth="yes"/>
      <point x="185" y="908"/>
      <point x="178" y="903"/>
      <point x="166" y="896" type="curve" smooth="yes"/>
      <point x="144" y="883"/>
      <point x="124" y="867"/>
      <point x="72" y="799" type="curve"/>
    </contour>
  </outline>
</glyph>
<glyph name="Adieresis" format="2">
  <advance width="573"/>
  <unicode hex="00C4"/>
  <outline>
    <contour>
      <point x="576" y="0" type="line"/>
      <point x="275" y="725" type="line"/>
      <point x="-28" y="0" type="line"/>
      <point x="134" y="0" type="line"/>
      <point x="275" y="337" type="line"/>
      <point x="306" y="262"/>
      <point x="325" y="217"/>
      <point x="354" y="150" type="curve"/>
      <point x="237" y="150" type="line"/>
      <point x="175" y="0" type="line"/>
    </contour>
    <contour>
      <point x="167" y="729" type="curve" smooth="yes"/>
      <point x="207" y="729"/>
      <point x="242" y="761"/>
      <point x="242" y="804" type="curve" smooth="yes"/>
      <point x="242" y="848"/>
      <point x="208" y="879"/>
      <point x="167" y="879" type="curve" smooth="yes"/>
      <point x="126" y="879"/>
      <point x="92" y="848"/>
      <point x="92" y="804" type="curve" smooth="yes"/>
      <point x="92" y="764"/>
      <point x="124" y="729"/>
    </contour>
    <contour>
      <point x="392" y="729" type="curve" smooth="yes"/>
      <point x="432" y="729"/>
      <point x="467" y="761"/>
      <point x="467" y="804" type="curve" smooth="yes"/>
      <point x="467" y="848"/>
      <point x="433" y="879"/>
      <point x="392" y="879" type="curve" smooth="yes"/>
      <point x="351" y="879"/>
      <point x="317" y="848"/>
      <point x="317" y="804" type="curve" smooth="yes"/>
      <point x="317" y="764"/>
      <point x="349" y="729"/>
    </contour>
  </outline>
</glyph>
<glyph name="Aring" format="2">
  <advance width="573"/>
  <unicode hex="00C5"/>
  <outline>
    <contour>
      <point x="576" y="0" type="line"/>
      <point x="275" y="725" type="line"/>
      <point x="-28" y="0" type="line"/>
      <point x="134" y="0" type="line"/>
      <point x="275" y="337" type="line"/>
      <point x="306" y="262"/>
      <point x="325" y="217"/>
      <point x="354" y="150" type="curve"/>
      <point x="237" y="150" type="line"/>
      <point x="175" y="0" type="line"/>
    </contour>
    <contour>
      <point x="286" y="723" type="curve" smooth="yes"/>
      <point x="353" y="723"/>
      <point x="411" y="779"/>
      <point x="411" y="848" type="curve" smooth="yes"/>
      <point x="411" y="914"/>
      <point x="356" y="973"/>
      <point x="286" y="973" type="curve" smooth="yes"/>
      <point x="216" y="973"/>
      <point x="161" y="914"/>
      <point x="161" y="848" type="curve" smooth="yes"/>
      <point x="161" y="777"/>
      <point x="221" y="723"/>
    </contour>
    <contour>
      <point x="286" y="783" type="curve" smooth="yes"/>
      <point x="249" y="783"/>
      <point x="221" y="813"/>
      <point x="221" y="848" type="curve" smooth="yes"/>
      <point x="221" y="883"/>
      <point x="249" y="913"/>
      <point x="286" y="913" type="curve" smooth="yes"/>
      <point x="321" y="913"/>
      <point x="351" y="885"/>
      <point x="351" y="848" type="curve" smooth="yes"/>
      <point x="351" y="811"/>
      <point x="321" y="783"/>
    </contour>
  </outline>
</glyph>
<glyph name="AE" format="2">
  <advance width="902"/>
  <unicode hex="00C6"/>
  <outline>
    <contour>
      <point x="859" y="0" type="line"/>
      <point x="859" y="150" type="line"/>
      <point x="702" y="150" type="line" smooth="yes"/>
      <point x="626" y="150"/>
      <point x="560" y="193"/>
      <point x="528" y="255" type="curve"/>
      <point x="513" y="292"/>
      <point x="506" y="303"/>
      <point x="506" y="347" type="curve" smooth="yes"/>
      <point x="506" y="456"/>
      <point x="593" y="544"/>
      <point x="702" y="544" type="curve" smooth="yes"/>
      <point x="859" y="544" type="line"/>
      <point x="859" y="694" type="line"/>
      <point x="702" y="694" type="line" smooth="yes"/>
      <point x="575" y="694"/>
      <point x="471" y="626"/>
      <point x="411" y="536" type="curve"/>
      <point x="333" y="725" type="line"/>
      <point x="30" y="0" type="line"/>
      <point x="192" y="0" type="line"/>
      <point x="333" y="337" type="line"/>
      <point x="412" y="150" type="line"/>
      <point x="295" y="150" type="line"/>
      <point x="233" y="0" type="line"/>
    </contour>
    <contour>
      <point x="859" y="272" type="line"/>
      <point x="859" y="422" type="line"/>
      <point x="553" y="422" type="line"/>
      <point x="542" y="391"/>
      <point x="537" y="369"/>
      <point x="537" y="347" type="curve" smooth="yes"/>
      <point x="537" y="328"/>
      <point x="542" y="304"/>
      <point x="555" y="272" type="curve"/>
    </contour>
  </outline>
</glyph>
<glyph name="Ccedilla" format="2">
  <advance width="554"/>
  <unicode hex="00C7"/>
  <outline>
    <contour>
      <point x="502" y="0" type="line"/>
      <point x="502" y="150" type="line"/>
      <point x="350" y="150" type="line" smooth="yes"/>
      <point x="241" y="150"/>
      <point x="153" y="237"/>
      <point x="153" y="346" type="curve" smooth="yes"/>
      <point x="153" y="455"/>
      <point x="240" y="543"/>
      <point x="350" y="543" type="curve" smooth="yes"/>
      <point x="502" y="543" type="line"/>
      <point x="502" y="693" type="line"/>
      <point x="350" y="693" type="line" smooth="yes"/>
      <point x="158" y="693"/>
      <point x="3" y="539"/>
      <point x="3" y="346" type="curve" smooth="yes"/>
      <point x="3" y="161"/>
      <point x="150" y="0"/>
      <point x="350" y="0" type="curve" smooth="yes"/>
    </contour>
    <contour>
      <point x="274" y="-280" type="line" smooth="yes"/>
      <point x="330" y="-280"/>
      <point x="377" y="-235"/>
      <point x="377" y="-178" type="curve" smooth="yes"/>
      <point x="377" y="-84" type="line"/>
      <point x="252" y="-84" type="line"/>
      <point x="252" y="76" type="line"/>
      <point x="170" y="76" type="line"/>
      <point x="170" y="-157" type="line"/>
      <point x="295" y="-157" type="line"/>
      <point x="295" y="-178" type="line" smooth="yes"/>
      <point x="295" y="-190"/>
      <point x="286" y="-199"/>
      <point x="274" y="-199" type="curve" smooth="yes"/>
      <point x="170" y="-199" type="line"/>
      <point x="170" y="-280" type="line"/>
    </contour>
  </outline>
</glyph>
<glyph name="Edieresis" format="2">
  <advance width="570"/>
  <unicode hex="00CB"/>
  <outline>
    <contour>
      <point x="517" y="0" type="line"/>
      <point x="517" y="150" type="line"/>
      <point x="360" y="150" type="line" smooth="yes"/>
      <point x="250" y="150"/>
      <point x="164" y="239"/>
      <point x="164" y="347" type="curve" smooth="yes"/>
      <point x="164" y="456"/>
      <point x="251" y="544"/>
      <point x="360" y="544" type="curve" smooth="yes"/>
      <point x="517" y="544" type="line"/>
      <point x="517" y="694" type="line"/>
      <point x="360" y="694" type="line" smooth="yes"/>
      <point x="168" y="694"/>
      <point x="14" y="538"/>
      <point x="14" y="347" type="curve" smooth="yes"/>
      <point x="14" y="161"/>
      <point x="162" y="0"/>
      <point x="360" y="0" type="curve" smooth="yes"/>
    </contour>
    <contour>
      <point x="517" y="272" type="line"/>
      <point x="517" y="422" type="line"/>
      <point x="211" y="422" type="line"/>
      <point x="200" y="391"/>
      <point x="195" y="369"/>
      <point x="195" y="347" type="curve" smooth="yes"/>
      <point x="195" y="328"/>
      <point x="200" y="304"/>
      <point x="213" y="272" type="curve"/>
    </contour>
    <contour>
      <point x="165" y="729" type="curve" smooth="yes"/>
      <point x="205" y="729"/>
      <point x="240" y="761"/>
      <point x="240" y="804" type="curve" smooth="yes"/>
      <point x="240" y="848"/>
      <point x="206" y="879"/>
      <point x="165" y="879" type="curve" smooth="yes"/>
      <point x="124" y="879"/>
      <point x="90" y="848"/>
      <point x="90" y="804" type="curve" smooth="yes"/>
      <point x="90" y="761"/>
      <point x="125" y="729"/>
    </contour>
    <contour>
      <point x="390" y="729" type="curve" smooth="yes"/>
      <point x="430" y="729"/>
      <point x="465" y="761"/>
      <point x="465" y="804" type="curve" smooth="yes"/>
      <point x="465" y="848"/>
      <point x="431" y="879"/>
      <point x="390" y="879" type="curve" smooth="yes"/>
      <point x="349" y="879"/>
      <point x="315" y="848"/>
      <point x="315" y="804" type="curve" smooth="yes"/>
      <point x="315" y="764"/>
      <point x="347" y="729"/>
    </contour>
  </outline>
</glyph>
<glyph name="Icircumflex" format="2">
  <advance width="260"/>
  <unicode hex="00CE"/>
  <outline>
    <contour>
      <point x="207" y="0" type="line"/>
      <point x="207" y="693" type="line"/>
      <point x="57" y="693" type="line"/>
      <point x="57" y="0" type="line"/>
    </contour>
    <contour>
      <point x="322" y="731" type="line"/>
      <point x="220" y="868" type="line"/>
      <point x="40" y="868" type="line"/>
      <point x="-62" y="731" type="line"/>
      <point x="88" y="731" type="line"/>
      <point x="130" y="788" type="line"/>
      <point x="172" y="731" type="line"/>
    </contour>
  </outline>
</glyph>
<glyph name="Idieresis" format="2">
  <advance width="260"/>
  <unicode hex="00CF"/>
  <outline>
    <contour>
      <point x="207" y="0" type="line"/>
      <point x="207" y="693" type="line"/>
      <point x="57" y="693" type="line"/>
      <point x="57" y="0" type="line"/>
    </contour>
    <contour>
      <point x="18" y="729" type="curve" smooth="yes"/>
      <point x="58" y="729"/>
      <point x="93" y="761"/>
      <point x="93" y="804" type="curve" smooth="yes"/>
      <point x="93" y="848"/>
      <point x="59" y="879"/>
      <point x="18" y="879" type="curve" smooth="yes"/>
      <point x="-23" y="879"/>
      <point x="-57" y="848"/>
      <point x="-57" y="804" type="curve" smooth="yes"/>
      <point x="-57" y="761"/>
      <point x="-22" y="729"/>
    </contour>
    <contour>
      <point x="243" y="729" type="curve" smooth="yes"/>
      <point x="283" y="729"/>
      <point x="318" y="761"/>
      <point x="318" y="804" type="curve" smooth="yes"/>
      <point x="318" y="848"/>
      <point x="284" y="879"/>
      <point x="243" y="879" type="curve" smooth="yes"/>
      <point x="202" y="879"/>
      <point x="168" y="848"/>
      <point x="168" y="804" type="curve" smooth="yes"/>
      <point x="168" y="761"/>
      <point x="203" y="729"/>
    </contour>
  </outline>
</glyph>
<glyph name="Eth" format="2">
  <advance width="700"/>
  <unicode hex="00D0"/>
  <outline>
    <contour>
      <point x="312" y="0" type="line" smooth="yes"/>
      <point x="498" y="0"/>
      <point x="659" y="150"/>
      <point x="659" y="347" type="curve" smooth="yes"/>
      <point x="659" y="539"/>
      <point x="504" y="694"/>
      <point x="312" y="694" type="curve" smooth="yes"/>
      <point x="101" y="694" type="line"/>
      <point x="101" y="544" type="line"/>
      <point x="312" y="544" type="line" smooth="yes"/>
      <point x="421" y="544"/>
      <point x="509" y="457"/>
      <point x="509" y="347" type="curve" smooth="yes"/>
      <point x="509" y="238"/>
      <point x="422" y="150"/>
      <point x="312" y="150" type="curve" smooth="yes"/>
      <point x="250" y="150" type="line"/>
      <point x="250" y="512" type="line"/>
      <point x="101" y="512" type="line"/>
      <point x="101" y="0" type="line"/>
    </contour>
    <contour>
      <point x="364" y="287" type="line"/>
      <point x="364" y="407" type="line"/>
      <point x="29" y="407" type="line"/>
      <point x="29" y="287" type="line"/>
    </contour>
  </outline>
</glyph>
<glyph name="Ntilde" format="2">
  <advance width="696"/>
  <unicode hex="00D1"/>
  <outline>
    <contour>
      <point x="632" y="81" type="line"/>
      <point x="632" y="693" type="line"/>
      <point x="482" y="693" type="line"/>
      <point x="482" y="306" type="line"/>
    </contour>
    <contour>
      <point x="650" y="0" type="line"/>
      <point x="187" y="693" type="line"/>
      <point x="47" y="693" type="line"/>
      <point x="47" y="0" type="line"/>
      <point x="197" y="0" type="line"/>
      <point x="197" y="410" type="line"/>
      <point x="471" y="0" type="line"/>
    </contour>
    <contour>
      <point x="208" y="715" type="line"/>
      <point x="225" y="738"/>
      <point x="239" y="756"/>
      <point x="250" y="769" type="curve" smooth="yes"/>
      <point x="267" y="790"/>
      <point x="269" y="793"/>
      <point x="279" y="793" type="curve"/>
      <point x="282" y="794" type="line"/>
      <point x="294" y="794"/>
      <point x="354" y="729"/>
      <point x="416" y="729" type="curve" smooth="yes"/>
      <point x="427" y="729"/>
      <point x="433" y="730"/>
      <point x="438" y="731" type="curve" smooth="yes"/>
      <point x="475" y="741"/>
      <point x="497" y="754"/>
      <point x="562" y="839" type="curve"/>
      <point x="487" y="922" type="line"/>
      <point x="454" y="875"/>
      <point x="430" y="851"/>
      <point x="417" y="844" type="curve"/>
      <point x="409" y="844"/>
      <point x="401" y="847"/>
      <point x="378" y="865" type="curve" smooth="yes"/>
      <point x="337" y="897"/>
      <point x="311" y="908"/>
      <point x="280" y="908" type="curve" smooth="yes"/>
      <point x="247" y="908"/>
      <point x="240" y="903"/>
      <point x="228" y="896" type="curve" smooth="yes"/>
      <point x="206" y="883"/>
      <point x="186" y="867"/>
      <point x="134" y="799" type="curve"/>
    </contour>
  </outline>
</glyph>
<glyph name="Oacute" format="2">
  <advance width="671"/>
  <unicode hex="00D3"/>
  <outline>
    <contour>
      <point x="341" y="0" type="curve" smooth="yes"/>
      <point x="504" y="0"/>
      <point x="633" y="132"/>
      <point x="633" y="292" type="curve" smooth="yes"/>
      <point x="633" y="401" type="line" smooth="yes"/>
      <point x="633" y="520"/>
      <point x="562" y="624"/>
      <point x="455" y="670" type="curve" smooth="yes"/>
      <point x="404" y="692"/>
      <point x="371" y="693"/>
      <point x="311" y="693" type="curve" smooth="yes"/>
      <point x="152" y="693"/>
      <point x="18" y="565"/>
      <point x="18" y="401" type="curve" smooth="yes"/>
      <point x="18" y="292" type="line" smooth="yes"/>
      <point x="18" y="173"/>
      <point x="88" y="70"/>
      <point x="198" y="23" type="curve" smooth="yes"/>
      <point x="249" y="1"/>
      <point x="282" y="0"/>
    </contour>
    <contour>
      <point x="341" y="150" type="curve" smooth="yes"/>
      <point x="311" y="150" type="line" smooth="yes"/>
      <point x="230" y="150"/>
      <point x="169" y="215"/>
      <point x="169" y="292" type="curve" smooth="yes"/>
      <point x="169" y="401" type="line" smooth="yes"/>
      <point x="169" y="481"/>
      <point x="231" y="544"/>
      <point x="311" y="544" type="curve" smooth="yes"/>
      <point x="341" y="544" type="line" smooth="yes"/>
      <point x="421" y="544"/>
      <point x="483" y="480"/>
      <point x="483" y="401" type="curve" smooth="yes"/>
      <point x="483" y="292" type="line" smooth="yes"/>
      <point x="483" y="211"/>
      <point x="418" y="150"/>
    </contour>
    <contour>
      <point x="368" y="731" type="line"/>
      <point x="470" y="868" type="line"/>
      <point x="307" y="868" type="line"/>
      <point x="200" y="731" type="line"/>
    </contour>
  </outline>
</glyph>
<glyph name="Otilde" format="2">
  <advance width="671"/>
  <unicode hex="00D5"/>
  <outline>
    <contour>
      <point x="341" y="0" type="curve" smooth="yes"/>
      <point x="504" y="0"/>
      <point x="633" y="132"/>
      <point x="633" y="292" type="curve" smooth="yes"/>
      <point x="633" y="401" type="line" smooth="yes"/>
      <point x="633" y="520"/>
      <point x="562" y="624"/>
      <point x="455" y="670" type="curve" smooth="yes"/>
      <point x="404" y="692"/>
      <point x="371" y="693"/>
      <point x="311" y="693" type="curve" smooth="yes"/>
      <point x="152" y="693"/>
      <point x="18" y="565"/>
      <point x="18" y="401" type="curve" smooth="yes"/>
      <point x="18" y="292" type="line" smooth="yes"/>
      <point x="18" y="173"/>
      <point x="88" y="70"/>
      <point x="198" y="23" type="curve" smooth="yes"/>
      <point x="249" y="1"/>
      <point x="282" y="0"/>
    </contour>
    <contour>
      <point x="341" y="150" type="curve" smooth="yes"/>
      <point x="311" y="150" type="line" smooth="yes"/>
      <point x="230" y="150"/>
      <point x="169" y="215"/>
      <point x="169" y="292" type="curve" smooth="yes"/>
      <point x="169" y="401" type="line" smooth="yes"/>
      <point x="169" y="481"/>
      <point x="231" y="544"/>
      <point x="311" y="544" type="curve" smooth="yes"/>
      <point x="341" y="544" type="line" smooth="yes"/>
      <point x="421" y="544"/>
      <point x="483" y="480"/>
      <point x="483" y="401" type="curve" smooth="yes"/>
      <point x="483" y="292" type="line" smooth="yes"/>
      <point x="483" y="211"/>
      <point x="418" y="150"/>
    </contour>
    <contour>
      <point x="195" y="715" type="line"/>
      <point x="212" y="738"/>
      <point x="226" y="756"/>
      <point x="237" y="769" type="curve" smooth="yes"/>
      <point x="254" y="790"/>
      <point x="256" y="793"/>
      <point x="266" y="793" type="curve"/>
      <point x="269" y="794" type="line"/>
      <point x="281" y="794"/>
      <point x="341" y="729"/>
      <point x="403" y="729" type="curve" smooth="yes"/>
      <point x="414" y="729"/>
      <point x="420" y="730"/>
      <point x="425" y="731" type="curve" smooth="yes"/>
      <point x="462" y="741"/>
      <point x="484" y="754"/>
      <point x="549" y="839" type="curve"/>
      <point x="474" y="922" type="line"/>
      <point x="441" y="875"/>
      <point x="417" y="851"/>
      <point x="404" y="844" type="curve"/>
      <point x="396" y="844"/>
      <point x="388" y="847"/>
      <point x="365" y="865" type="curve" smooth="yes"/>
      <point x="324" y="897"/>
      <point x="298" y="908"/>
      <point x="267" y="908" type="curve" smooth="yes"/>
      <point x="234" y="908"/>
      <point x="227" y="903"/>
      <point x="215" y="896" type="curve" smooth="yes"/>
      <point x="193" y="883"/>
      <point x="173" y="867"/>
      <point x="121" y="799" type="curve"/>
    </contour>
  </outline>
</glyph>
<glyph name="Odieresis" format="2">
  <advance width="671"/>
  <unicode hex="00D6"/>
  <outline>
    <contour>
      <point x="341" y="0" type="curve" smooth="yes"/>
      <point x="504" y="0"/>
      <point x="633" y="132"/>
      <point x="633" y="292" type="curve" smooth="yes"/>
      <point x="633" y="401" type="line" smooth="yes"/>
      <point x="633" y="520"/>
      <point x="562" y="624"/>
      <point x="455" y="670" type="curve" smooth="yes"/>
      <point x="404" y="692"/>
      <point x="371" y="693"/>
      <point x="311" y="693" type="curve" smooth="yes"/>
      <point x="152" y="693"/>
      <point x="18" y="565"/>
      <point x="18" y="401" type="curve" smooth="yes"/>
      <point x="18" y="292" type="line" smooth="yes"/>
      <point x="18" y="173"/>
      <point x="88" y="70"/>
      <point x="198" y="23" type="curve" smooth="yes"/>
      <point x="249" y="1"/>
      <point x="282" y="0"/>
    </contour>
    <contour>
      <point x="341" y="150" type="curve" smooth="yes"/>
      <point x="311" y="150" type="line" smooth="yes"/>
      <point x="230" y="150"/>
      <point x="169" y="215"/>
      <point x="169" y="292" type="curve" smooth="yes"/>
      <point x="169" y="401" type="line" smooth="yes"/>
      <point x="169" y="481"/>
      <point x="231" y="544"/>
      <point x="311" y="544" type="curve" smooth="yes"/>
      <point x="341" y="544" type="line" smooth="yes"/>
      <point x="421" y="544"/>
      <point x="483" y="480"/>
      <point x="483" y="401" type="curve" smooth="yes"/>
      <point x="483" y="292" type="line" smooth="yes"/>
      <point x="483" y="211"/>
      <point x="418" y="150"/>
    </contour>
    <contour>
      <point x="215" y="729" type="curve" smooth="yes"/>
      <point x="255" y="729"/>
      <point x="290" y="761"/>
      <point x="290" y="804" type="curve" smooth="yes"/>
      <point x="290" y="848"/>
      <point x="256" y="879"/>
      <point x="215" y="879" type="curve" smooth="yes"/>
      <point x="174" y="879"/>
      <point x="140" y="848"/>
      <point x="140" y="804" type="curve" smooth="yes"/>
      <point x="140" y="761"/>
      <point x="175" y="729"/>
    </contour>
    <contour>
      <point x="440" y="729" type="curve" smooth="yes"/>
      <point x="480" y="729"/>
      <point x="515" y="761"/>
      <point x="515" y="804" type="curve" smooth="yes"/>
      <point x="515" y="848"/>
      <point x="481" y="879"/>
      <point x="440" y="879" type="curve" smooth="yes"/>
      <point x="399" y="879"/>
      <point x="365" y="848"/>
      <point x="365" y="804" type="curve" smooth="yes"/>
      <point x="365" y="764"/>
      <point x="397" y="729"/>
    </contour>
  </outline>
</glyph>
<glyph name="multiply" format="2">
  <advance width="614"/>
  <unicode hex="00D7"/>
  <outline>
    <contour>
      <point x="464" y="72" type="line"/>
      <point x="569" y="176" type="line"/>
      <point x="146" y="599" type="line"/>
      <point x="41" y="494" type="line"/>
    </contour>
    <contour>
      <point x="153" y="64" type="line"/>
      <point x="576" y="487" type="line"/>
      <point x="471" y="592" type="line"/>
      <point x="49" y="169" type="line"/>
    </contour>
  </outline>
</glyph>
<glyph name="Ucircumflex" format="2">
  <advance width="708"/>
  <unicode hex="00DB"/>
  <outline>
    <contour>
      <point x="338" y="0" type="curve" smooth="yes"/>
      <point x="497" y="0"/>
      <point x="630" y="129"/>
      <point x="630" y="292" type="curve" smooth="yes"/>
      <point x="630" y="693" type="line"/>
      <point x="480" y="693" type="line"/>
      <point x="480" y="292" type="line" smooth="yes"/>
      <point x="480" y="211"/>
      <point x="415" y="150"/>
      <point x="338" y="150" type="curve" smooth="yes"/>
      <point x="254" y="150"/>
      <point x="191" y="211"/>
      <point x="191" y="292" type="curve" smooth="yes"/>
      <point x="191" y="693" type="line"/>
      <point x="40" y="693" type="line"/>
      <point x="40" y="292" type="line" smooth="yes"/>
      <point x="40" y="127"/>
      <point x="171" y="0"/>
    </contour>
    <contour>
      <point x="546" y="731" type="line"/>
      <point x="444" y="868" type="line"/>
      <point x="264" y="868" type="line"/>
      <point x="162" y="731" type="line"/>
      <point x="312" y="731" type="line"/>
      <point x="354" y="788" type="line"/>
      <point x="396" y="731" type="line"/>
    </contour>
  </outline>
</glyph>
<glyph name="Udieresis" format="2">
  <advance width="708"/>
  <unicode hex="00DC"/>
  <outline>
    <contour>
      <point x="338" y="0" type="curve" smooth="yes"/>
      <point x="497" y="0"/>
      <point x="630" y="129"/>
      <point x="630" y="292" type="curve" smooth="yes"/>
      <point x="630" y="693" type="line"/>
      <point x="480" y="693" type="line"/>
      <point x="480" y="292" type="line" smooth="yes"/>
      <point x="480" y="211"/>
      <point x="415" y="150"/>
      <point x="338" y="150" type="curve" smooth="yes"/>
      <point x="254" y="150"/>
      <point x="191" y="211"/>
      <point x="191" y="292" type="curve" smooth="yes"/>
      <point x="191" y="693" type="line"/>
      <point x="40" y="693" type="line"/>
      <point x="40" y="292" type="line" smooth="yes"/>
      <point x="40" y="127"/>
      <point x="171" y="0"/>
    </contour>
    <contour>
      <point x="234" y="729" type="curve" smooth="yes"/>
      <point x="274" y="729"/>
      <point x="309" y="761"/>
      <point x="309" y="804" type="curve" smooth="yes"/>
      <point x="309" y="848"/>
      <point x="275" y="879"/>
      <point x="234" y="879" type="curve" smooth="yes"/>
      <point x="193" y="879"/>
      <point x="159" y="848"/>
      <point x="159" y="804" type="curve" smooth="yes"/>
      <point x="159" y="761"/>
      <point x="194" y="729"/>
    </contour>
    <contour>
      <point x="459" y="729" type="curve" smooth="yes"/>
      <point x="502" y="729"/>
      <point x="534" y="764"/>
      <point x="534" y="804" type="curve" smooth="yes"/>
      <point x="534" y="848"/>
      <point x="500" y="879"/>
      <point x="459" y="879" type="curve" smooth="yes"/>
      <point x="418" y="879"/>
      <point x="384" y="848"/>
      <point x="384" y="804" type="curve" smooth="yes"/>
      <point x="384" y="764"/>
      <point x="416" y="729"/>
    </contour>
  </outline>
</glyph>
<glyph name="Thorn" format="2">
  <advance width="535"/>
  <unicode hex="00DE"/>
  <outline>
    <contour>
      <point x="158" y="-87" type="line"/>
      <point x="158" y="79" type="line"/>
      <point x="183" y="70"/>
      <point x="210" y="66"/>
      <point x="238" y="66" type="curve" smooth="yes"/>
      <point x="263" y="66" type="line" smooth="yes"/>
      <point x="398" y="66"/>
      <point x="502" y="175"/>
      <point x="502" y="305" type="curve" smooth="yes"/>
      <point x="502" y="394" type="line" smooth="yes"/>
      <point x="502" y="462"/>
      <point x="474" y="521"/>
      <point x="432" y="564" type="curve" smooth="yes"/>
      <point x="377" y="618"/>
      <point x="326" y="634"/>
      <point x="238" y="634" type="curve" smooth="yes"/>
      <point x="210" y="634"/>
      <point x="183" y="629"/>
      <point x="158" y="620" type="curve"/>
      <point x="158" y="772" type="line"/>
      <point x="41" y="772" type="line"/>
      <point x="41" y="-87" type="line"/>
    </contour>
    <contour>
      <point x="263" y="189" type="curve" smooth="yes"/>
      <point x="238" y="189" type="line" smooth="yes"/>
      <point x="207" y="189"/>
      <point x="180" y="200"/>
      <point x="158" y="220" type="curve"/>
      <point x="158" y="480" type="line"/>
      <point x="178" y="500"/>
      <point x="205" y="512"/>
      <point x="238" y="512" type="curve" smooth="yes"/>
      <point x="263" y="512" type="line" smooth="yes"/>
      <point x="327" y="512"/>
      <point x="379" y="462"/>
      <point x="379" y="394" type="curve" smooth="yes"/>
      <point x="379" y="305" type="line" smooth="yes"/>
      <point x="379" y="237"/>
      <point x="324" y="189"/>
    </contour>
  </outline>
</glyph>
<glyph name="germandbls" format="2">
  <advance width="595"/>
  <unicode hex="00DF"/>
  <outline>
    <contour>
      <point x="356" y="0" type="line" smooth="yes"/>
      <point x="490" y="0"/>
      <point x="566" y="111"/>
      <point x="566" y="213" type="curve" smooth="yes"/>
      <point x="566" y="258"/>
      <point x="554" y="307"/>
      <point x="518" y="348" type="curve"/>
      <point x="554" y="387"/>
      <point x="567" y="433"/>
      <point x="567" y="480" type="curve" smooth="yes"/>
      <point x="567" y="586"/>
      <point x="486" y="691"/>
      <point x="356" y="694" type="curve"/>
      <point x="279" y="694" type="line" smooth="yes"/>
      <point x="149" y="694"/>
      <point x="41" y="590"/>
      <point x="41" y="456" type="curve" smooth="yes"/>
      <point x="41" y="0" type="line"/>
      <point x="191" y="0" type="line"/>
      <point x="191" y="456" type="line" smooth="yes"/>
      <point x="191" y="503"/>
      <point x="228" y="544"/>
      <point x="279" y="544" type="curve" smooth="yes"/>
      <point x="356" y="544" type="line" smooth="yes"/>
      <point x="392" y="544"/>
      <point x="417" y="516"/>
      <point x="417" y="482" type="curve" smooth="yes"/>
      <point x="417" y="449"/>
      <point x="392" y="421"/>
      <point x="356" y="421" type="curve" smooth="yes"/>
      <point x="253" y="421" type="line"/>
      <point x="253" y="272" type="line"/>
      <point x="356" y="272" type="line" smooth="yes"/>
      <point x="392" y="272"/>
      <point x="417" y="244"/>
      <point x="417" y="211" type="curve" smooth="yes"/>
      <point x="417" y="177"/>
      <point x="392" y="150"/>
      <point x="356" y="150" type="curve" smooth="yes"/>
      <point x="253" y="150" type="line"/>
      <point x="253" y="0" type="line"/>
    </contour>
  </outline>
</glyph>
<glyph name="aacute" format="2">
  <advance width="573"/>
  <unicode hex="00E1"/>
  <outline>
    <contour>
      <point x="576" y="0" type="line"/>
      <point x="275" y="725" type="line"/>
      <point x="-28" y="0" type="line"/>
      <point x="134" y="0" type="line"/>
      <point x="275" y="337" type="line"/>
      <point x="306" y="262"/>
      <point x="325" y="217"/>
      <point x="354" y="150" type="curve"/>
      <point x="237" y="150" type="line"/>
      <point x="175" y="0" type="line"/>
    </contour>
    <contour>
      <point x="319" y="730" type="line"/>
      <point x="421" y="867" type="line"/>
      <point x="258" y="867" type="line"/>
      <point x="151" y="730" type="line"/>
    </contour>
  </outline>
</glyph>
<glyph name="atilde" format="2">
  <advance width="573"/>
  <unicode hex="00E3"/>
  <outline>
    <contour>
      <point x="576" y="0" type="line"/>
      <point x="275" y="725" type="line"/>
      <point x="-28" y="0" type="line"/>
      <point x="134" y="0" type="line"/>
      <point x="275" y="337" type="line"/>
      <point x="306" y="262"/>
      <point x="325" y="217"/>
      <point x="354" y="150" type="curve"/>
      <point x="237" y="150" type="line"/>
      <point x="175" y="0" type="line"/>
    </contour>
    <contour>
      <point x="146" y="714" type="line"/>
      <point x="163" y="737"/>
      <point x="177" y="755"/>
      <point x="188" y="768" type="curve" smooth="yes"/>
      <point x="205" y="789"/>
      <point x="207" y="792"/>
      <point x="217" y="792" type="curve"/>
      <point x="220" y="793" type="line"/>
      <point x="232" y="793"/>
      <point x="292" y="728"/>
      <point x="354" y="728" type="curve" smooth="yes"/>
      <point x="365" y="728"/>
      <point x="371" y="729"/>
      <point x="376" y="730" type="curve" smooth="yes"/>
      <point x="413" y="740"/>
      <point x="435" y="753"/>
      <point x="500" y="838" type="curve"/>
      <point x="425" y="921" type="line"/>
      <point x="392" y="874"/>
      <point x="368" y="850"/>
      <point x="355" y="843" type="curve"/>
      <point x="347" y="843"/>
      <point x="339" y="846"/>
      <point x="316" y="864" type="curve" smooth="yes"/>
      <point x="275" y="896"/>
      <point x="249" y="907"/>
      <point x="218" y="907" type="curve" smooth="yes"/>
      <point x="185" y="907"/>
      <point x="178" y="902"/>
      <point x="166" y="895" type="curve" smooth="yes"/>
      <point x="144" y="882"/>
      <point x="124" y="866"/>
      <point x="72" y="798" type="curve"/>
    </contour>
  </outline>
</glyph>
<glyph name="adieresis" format="2">
  <advance width="573"/>
  <unicode hex="00E4"/>
  <outline>
    <contour>
      <point x="576" y="0" type="line"/>
      <point x="275" y="725" type="line"/>
      <point x="-28" y="0" type="line"/>
      <point x="134" y="0" type="line"/>
      <point x="275" y="337" type="line"/>
      <point x="306" y="262"/>
      <point x="325" y="217"/>
      <point x="354" y="150" type="curve"/>
      <point x="237" y="150" type="line"/>
      <point x="175" y="0" type="line"/>
    </contour>
    <contour>
      <point x="167" y="728" type="curve" smooth="yes"/>
      <point x="207" y="728"/>
      <point x="242" y="760"/>
      <point x="242" y="803" type="curve" smooth="yes"/>
      <point x="242" y="847"/>
      <point x="208" y="878"/>
      <point x="167" y="878" type="curve" smooth="yes"/>
      <point x="126" y="878"/>
      <point x="92" y="847"/>
      <point x="92" y="803" type="curve" smooth="yes"/>
      <point x="92" y="763"/>
      <point x="124" y="728"/>
    </contour>
    <contour>
      <point x="392" y="728" type="curve" smooth="yes"/>
      <point x="432" y="728"/>
      <point x="467" y="760"/>
      <point x="467" y="803" type="curve" smooth="yes"/>
      <point x="467" y="847"/>
      <point x="433" y="878"/>
      <point x="392" y="878" type="curve" smooth="yes"/>
      <point x="351" y="878"/>
      <point x="317" y="847"/>
      <point x="317" y="803" type="curve" smooth="yes"/>
      <point x="317" y="763"/>
      <point x="349" y="728"/>
    </contour>
  </outline>
</glyph>
<glyph name="aring" format="2">
  <advance width="573"/>
  <unicode hex="00E5"/>
  <outline>
    <contour>
      <point x="576" y="0" type="line"/>
      <point x="275" y="725" type="line"/>
      <point x="-28" y="0" type="line"/>
      <point x="134" y="0" type="line"/>
      <point x="275" y="337" type="line"/>
      <point x="306" y="262"/>
      <point x="325" y="217"/>
      <point x="354" y="150" type="curve"/>
      <point x="237" y="150" type="line"/>
      <point x="175" y="0" type="line"/>
    </contour>
    <contour>
      <point x="286" y="722" type="curve" smooth="yes"/>
      <point x="353" y="722"/>
      <point x="411" y="778"/>
      <point x="411" y="847" type="curve" smooth="yes"/>
      <point x="411" y="913"/>
      <point x="356" y="972"/>
      <point x="286" y="972" type="curve" smooth="yes"/>
      <point x="216" y="972"/>
      <point x="161" y="913"/>
      <point x="161" y="847" type="curve" smooth="yes"/>
      <point x="161" y="776"/>
      <point x="221" y="722"/>
    </contour>
    <contour>
      <point x="286" y="782" type="curve" smooth="yes"/>
      <point x="249" y="782"/>
      <point x="221" y="812"/>
      <point x="221" y="847" type="curve" smooth="yes"/>
      <point x="221" y="882"/>
      <point x="249" y="912"/>
      <point x="286" y="912" type="curve" smooth="yes"/>
      <point x="321" y="912"/>
      <point x="351" y="884"/>
      <point x="351" y="847" type="curve" smooth="yes"/>
      <point x="351" y="810"/>
      <point x="321" y="782"/>
    </contour>
  </outline>
</glyph>
<glyph name="ccedilla" format="2">
  <advance width="554"/>
  <unicode hex="00E7"/>
  <outline>
    <contour>
      <point x="502" y="0" type="line"/>
      <point x="502" y="150" type="line"/>
      <point x="350" y="150" type="line" smooth="yes"/>
      <point x="241" y="150"/>
      <point x="153" y="237"/>
      <point x="153" y="346" type="curve" smooth="yes"/>
      <point x="153" y="455"/>
      <point x="240" y="543"/>
      <point x="350" y="543" type="curve" smooth="yes"/>
      <point x="502" y="543" type="line"/>
      <point x="502" y="693" type="line"/>
      <point x="350" y="693" type="line" smooth="yes"/>
      <point x="158" y="693"/>
      <point x="3" y="539"/>
      <point x="3" y="346" type="curve" smooth="yes"/>
      <point x="3" y="161"/>
      <point x="150" y="0"/>
      <point x="350" y="0" type="curve" smooth="yes"/>
    </contour>
    <contour>
      <point x="277" y="-280" type="line" smooth="yes"/>
      <point x="333" y="-280"/>
      <point x="380" y="-235"/>
      <point x="380" y="-178" type="curve" smooth="yes"/>
      <point x="380" y="-84" type="line"/>
      <point x="255" y="-84" type="line"/>
      <point x="255" y="76" type="line"/>
      <point x="173" y="76" type="line"/>
      <point x="173" y="-157" type="line"/>
      <point x="298" y="-157" type="line"/>
      <point x="298" y="-178" type="line" smooth="yes"/>
      <point x="298" y="-190"/>
      <point x="289" y="-199"/>
      <point x="277" y="-199" type="curve" smooth="yes"/>
      <point x="173" y="-199" type="line"/>
      <point x="173" y="-280" type="line"/>
    </contour>
  </outline>
</glyph>
<glyph name="ecircumflex" format="2">
  <advance width="570"/>
  <unicode hex="00EA"/>
  <outline>
    <contour>
      <point x="517" y="0" type="line"/>
      <point x="517" y="150" type="line"/>
      <point x="360" y="150" type="line" smooth="yes"/>
      <point x="250" y="150"/>
      <point x="164" y="239"/>
      <point x="164" y="347" type="curve" smooth="yes"/>
      <point x="164" y="456"/>
      <point x="251" y="544"/>
      <point x="360" y="544" type="curve" smooth="yes"/>
      <point x="517" y="544" type="line"/>
      <point x="517" y="694" type="line"/>
      <point x="360" y="694" type="line" smooth="yes"/>
      <point x="168" y="694"/>
      <point x="14" y="538"/>
      <point x="14" y="347" type="curve" smooth="yes"/>
      <point x="14" y="161"/>
      <point x="162" y="0"/>
      <point x="360" y="0" type="curve" smooth="yes"/>
    </contour>
    <contour>
      <point x="517" y="272" type="line"/>
      <point x="517" y="422" type="line"/>
      <point x="211" y="422" type="line"/>
      <point x="200" y="391"/>
      <point x="195" y="369"/>
      <point x="195" y="347" type="curve" smooth="yes"/>
      <point x="195" y="328"/>
      <point x="200" y="304"/>
      <point x="213" y="272" type="curve"/>
    </contour>
    <contour>
      <point x="477" y="730" type="line"/>
      <point x="375" y="867" type="line"/>
      <point x="195" y="867" type="line"/>
      <point x="93" y="730" type="line"/>
      <point x="243" y="730" type="line"/>
      <point x="285" y="787" type="line"/>
      <point x="327" y="730" type="line"/>
    </contour>
  </outline>
</glyph>
<glyph name="igrave" format="2">
  <advance width="260"/>
  <unicode hex="00EC"/>
  <outline>
    <contour>
      <point x="207" y="0" type="line"/>
      <point x="207" y="693" type="line"/>
      <point x="57" y="693" type="line"/>
      <point x="57" y="0" type="line"/>
    </contour>
    <contour>
      <point x="265" y="730" type="line"/>
      <point x="158" y="867" type="line"/>
      <point x="-5" y="867" type="line"/>
      <point x="97" y="730" type="line"/>
    </contour>
  </outline>
</glyph>
<glyph name="iacute" format="2">
  <advance width="260"/>
  <unicode hex="00ED"/>
  <outline>
    <contour>
      <point x="207" y="0" type="line"/>
      <point x="207" y="693" type="line"/>
      <point x="57" y="693" type="line"/>
      <point x="57" y="0" type="line"/>
    </contour>
    <contour>
      <point x="163" y="730" type="line"/>
      <point x="265" y="867" type="line"/>
      <point x="102" y="867" type="line"/>
      <point x="-5" y="730" type="line"/>
    </contour>
  </outline>
</glyph>
<glyph name="icircumflex" format="2">
  <advance width="260"/>
  <unicode hex="00EE"/>
  <outline>
    <contour>
      <point x="207" y="0" type="line"/>
      <point x="207" y="693" type="line"/>
      <point x="57" y="693" type="line"/>
      <point x="57" y="0" type="line"/>
    </contour>
    <contour>
      <point x="322" y="730" type="line"/>
      <point x="220" y="867" type="line"/>
      <point x="40" y="867" type="line"/>
      <point x="-62" y="730" type="line"/>
      <point x="88" y="730" type="line"/>
      <point x="130" y="787" type="line"/>
      <point x="172" y="730" type="line"/>
    </contour>
  </outline>
</glyph>
<glyph name="idieresis" format="2">
  <advance width="260"/>
  <unicode hex="00EF"/>
  <outline>
    <contour>
      <point x="207" y="0" type="line"/>
      <point x="207" y="693" type="line"/>
      <point x="57" y="693" type="line"/>
      <point x="57" y="0" type="line"/>
    </contour>
    <contour>
      <point x="18" y="728" type="curve" smooth="yes"/>
      <point x="58" y="728"/>
      <point x="93" y="760"/>
      <point x="93" y="803" type="curve" smooth="yes"/>
      <point x="93" y="847"/>
      <point x="59" y="878"/>
      <point x="18" y="878" type="curve" smooth="yes"/>
      <point x="-23" y="878"/>
      <point x="-57" y="847"/>
      <point x="-57" y="803" type="curve" smooth="yes"/>
      <point x="-57" y="760"/>
      <point x="-22" y="728"/>
    </contour>
    <contour>
      <point x="243" y="728" type="curve" smooth="yes"/>
      <point x="283" y="728"/>
      <point x="318" y="760"/>
      <point x="318" y="803" type="curve" smooth="yes"/>
      <point x="318" y="847"/>
      <point x="284" y="878"/>
      <point x="243" y="878" type="curve" smooth="yes"/>
      <point x="202" y="878"/>
      <point x="168" y="847"/>
      <point x="168" y="803" type="curve" smooth="yes"/>
      <point x="168" y="760"/>
      <point x="203" y="728"/>
    </contour>
  </outline>
</glyph>
<glyph name="ntilde" format="2">
  <advance width="696"/>
  <unicode hex="00F1"/>
  <outline>
    <contour>
      <point x="632" y="81" type="line"/>
      <point x="632" y="693" type="line"/>
      <point x="482" y="693" type="line"/>
      <point x="482" y="306" type="line"/>
    </contour>
    <contour>
      <point x="650" y="0" type="line"/>
      <point x="187" y="693" type="line"/>
      <point x="47" y="693" type="line"/>
      <point x="47" y="0" type="line"/>
      <point x="197" y="0" type="line"/>
      <point x="197" y="410" type="line"/>
      <point x="471" y="0" type="line"/>
    </contour>
    <contour>
      <point x="208" y="714" type="line"/>
      <point x="225" y="737"/>
      <point x="239" y="755"/>
      <point x="250" y="768" type="curve" smooth="yes"/>
      <point x="267" y="789"/>
      <point x="269" y="792"/>
      <point x="279" y="792" type="curve"/>
      <point x="282" y="793" type="line"/>
      <point x="294" y="793"/>
      <point x="354" y="728"/>
      <point x="416" y="728" type="curve" smooth="yes"/>
      <point x="427" y="728"/>
      <point x="433" y="729"/>
      <point x="438" y="730" type="curve" smooth="yes"/>
      <point x="475" y="740"/>
      <point x="497" y="753"/>
      <point x="562" y="838" type="curve"/>
      <point x="487" y="921" type="line"/>
      <point x="454" y="874"/>
      <point x="430" y="850"/>
      <point x="417" y="843" type="curve"/>
      <point x="409" y="843"/>
      <point x="401" y="846"/>
      <point x="378" y="864" type="curve" smooth="yes"/>
      <point x="337" y="896"/>
      <point x="311" y="907"/>
      <point x="280" y="907" type="curve" smooth="yes"/>
      <point x="247" y="907"/>
      <point x="240" y="902"/>
      <point x="228" y="895" type="curve" smooth="yes"/>
      <point x="206" y="882"/>
      <point x="186" y="866"/>
      <point x="134" y="798" type="curve"/>
    </contour>
  </outline>
</glyph>
<glyph name="otilde" format="2">
  <advance width="671"/>
  <unicode hex="00F5"/>
  <outline>
    <contour>
      <point x="341" y="0" type="curve" smooth="yes"/>
      <point x="504" y="0"/>
      <point x="633" y="132"/>
      <point x="633" y="292" type="curve" smooth="yes"/>
      <point x="633" y="401" type="line" smooth="yes"/>
      <point x="633" y="520"/>
      <point x="562" y="624"/>
      <point x="455" y="670" type="curve" smooth="yes"/>
      <point x="404" y="692"/>
      <point x="371" y="693"/>
      <point x="311" y="693" type="curve" smooth="yes"/>
      <point x="152" y="693"/>
      <point x="18" y="565"/>
      <point x="18" y="401" type="curve" smooth="yes"/>
      <point x="18" y="292" type="line" smooth="yes"/>
      <point x="18" y="173"/>
      <point x="88" y="70"/>
      <point x="198" y="23" type="curve" smooth="yes"/>
      <point x="249" y="1"/>
      <point x="282" y="0"/>
    </contour>
    <contour>
      <point x="341" y="150" type="curve" smooth="yes"/>
      <point x="311" y="150" type="line" smooth="yes"/>
      <point x="230" y="150"/>
      <point x="169" y="215"/>
      <point x="169" y="292" type="curve" smooth="yes"/>
      <point x="169" y="401" type="line" smooth="yes"/>
      <point x="169" y="481"/>
      <point x="231" y="544"/>
      <point x="311" y="544" type="curve" smooth="yes"/>
      <point x="341" y="544" type="line" smooth="yes"/>
      <point x="421" y="544"/>
      <point x="483" y="480"/>
      <point x="483" y="401" type="curve" smooth="yes"/>
      <point x="483" y="292" type="line" smooth="yes"/>
      <point x="483" y="211"/>
      <point x="418" y="150"/>
    </contour>
    <contour>
      <point x="195" y="714" type="line"/>
      <point x="212" y="737"/>
      <point x="226" y="755"/>
      <point x="237" y="768" type="curve" smooth="yes"/>
      <point x="254" y="789"/>
      <point x="256" y="792"/>
      <point x="266" y="792" type="curve"/>
      <point x="269" y="793" type="line"/>
      <point x="281" y="793"/>
      <point x="341" y="728"/>
      <point x="403" y="728" type="curve" smooth="yes"/>
      <point x="414" y="728"/>
      <point x="420" y="729"/>
      <point x="425" y="730" type="curve" smooth="yes"/>
      <point x="462" y="740"/>
      <point x="484" y="753"/>
      <point x="549" y="838" type="curve"/>
      <point x="474" y="921" type="line"/>
      <point x="441" y="874"/>
      <point x="417" y="850"/>
      <point x="404" y="843" type="curve"/>
      <point x="396" y="843"/>
      <point x="388" y="846"/>
      <point x="365" y="864" type="curve" smooth="yes"/>
      <point x="324" y="896"/>
      <point x="298" y="907"/>
      <point x="267" y="907" type="curve" smooth="yes"/>
      <point x="234" y="907"/>
      <point x="227" y="902"/>
      <point x="215" y="895" type="curve" smooth="yes"/>
      <point x="193" y="882"/>
      <point x="173" y="866"/>
      <point x="121" y="798" type="curve"/>
    </contour>
  </outline>
</glyph>
<glyph name="divide" format="2">
  <advance width="716"/>
  <unicode hex="00F7"/>
  <outline>
    <contour>
      <point x="689" y="285" type="line"/>
      <point x="689" y="403" type="line"/>
      <point x="27" y="403" type="line"/>
      <point x="27" y="285" type="line"/>
    </contour>
    <contour>
      <point x="352" y="0" type="curve" smooth="yes"/>
      <point x="396" y="0"/>
      <point x="428" y="34"/>
      <point x="428" y="75" type="curve" smooth="yes"/>
      <point x="428" y="119"/>
      <point x="394" y="150"/>
      <point x="352" y="150" type="curve" smooth="yes"/>
      <point x="313" y="150"/>
      <point x="278" y="119"/>
      <point x="278" y="75" type="curve" smooth="yes"/>
      <point x="278" y="33"/>
      <point x="312" y="0"/>
    </contour>
    <contour>
      <point x="352" y="544" type="curve" smooth="yes"/>
      <point x="394" y="544"/>
      <point x="428" y="576"/>
      <point x="428" y="620" type="curve" smooth="yes"/>
      <point x="428" y="661"/>
      <point x="396" y="694"/>
      <point x="352" y="694" type="curve" smooth="yes"/>
      <point x="313" y="694"/>
      <point x="278" y="662"/>
      <point x="278" y="620" type="curve" smooth="yes"/>
      <point x="278" y="576"/>
      <point x="313" y="544"/>
    </contour>
  </outline>
</glyph>
<glyph name="udieresis" format="2">
  <advance width="708"/>
  <unicode hex="00FC"/>
  <outline>
    <contour>
      <point x="338" y="0" type="curve" smooth="yes"/>
      <point x="497" y="0"/>
      <point x="630" y="129"/>
      <point x="630" y="292" type="curve" smooth="yes"/>
      <point x="630" y="693" type="line"/>
      <point x="480" y="693" type="line"/>
      <point x="480" y="292" type="line" smooth="yes"/>
      <point x="480" y="211"/>
      <point x="415" y="150"/>
      <point x="338" y="150" type="curve" smooth="yes"/>
      <point x="254" y="150"/>
      <point x="191" y="211"/>
      <point x="191" y="292" type="curve" smooth="yes"/>
      <point x="191" y="693" type="line"/>
      <point x="40" y="693" type="line"/>
      <point x="40" y="292" type="line" smooth="yes"/>
      <point x="40" y="127"/>
      <point x="171" y="0"/>
    </contour>
    <contour>
      <point x="234" y="728" type="curve" smooth="yes"/>
      <point x="274" y="728"/>
      <point x="309" y="760"/>
      <point x="309" y="803" type="curve" smooth="yes"/>
      <point x="309" y="847"/>
      <point x="275" y="878"/>
      <point x="234" y="878" type="curve" smooth="yes"/>
      <point x="193" y="878"/>
      <point x="159" y="847"/>
      <point x="159" y="803" type="curve" smooth="yes"/>
      <point x="159" y="760"/>
      <point x="194" y="728"/>
    </contour>
    <contour>
      <point x="459" y="728" type="curve" smooth="yes"/>
      <point x="502" y="728"/>
      <point x="534" y="763"/>
      <point x="534" y="803" type="curve" smooth="yes"/>
      <point x="534" y="847"/>
      <point x="500" y="878"/>
      <point x="459" y="878" type="curve" smooth="yes"/>
      <point x="418" y="878"/>
      <point x="384" y="847"/>
      <point x="384" y="803" type="curve" smooth="yes"/>
      <point x="384" y="763"/>
      <point x="416" y="728"/>
    </contour>
  </outline>
</glyph>
<glyph name="ydieresis" format="2">
  <advance width="548"/>
  <unicode hex="00FF"/>
  <outline>
    <contour>
      <point x="373" y="415" type="line"/>
      <point x="570" y="693" type="line"/>
      <point x="390" y="693" type="line"/>
      <point x="283" y="550" type="line"/>
    </contour>
    <contour>
      <point x="356" y="0" type="line"/>
      <point x="356" y="385" type="line"/>
      <point x="150" y="693" type="line"/>
      <point x="-29" y="693" type="line"/>
      <point x="207" y="340" type="line"/>
      <point x="207" y="0" type="line"/>
    </contour>
    <contour>
      <point x="162" y="728" type="curve" smooth="yes"/>
      <point x="202" y="728"/>
      <point x="237" y="760"/>
      <point x="237" y="803" type="curve" smooth="yes"/>
      <point x="237" y="847"/>
      <point x="203" y="878"/>
      <point x="162" y="878" type="curve" smooth="yes"/>
      <point x="121" y="878"/>
      <point x="87" y="847"/>
      <point x="87" y="803" type="curve" smooth="yes"/>
      <point x="87" y="760"/>
      <point x="122" y="728"/>
    </contour>
    <contour>
      <point x="387" y="728" type="curve" smooth="yes"/>
      <point x="427" y="728"/>
      <point x="462" y="760"/>
      <point x="462" y="803" type="curve" smooth="yes"/>
      <point x="462" y="847"/>
      <point x="428" y="878"/>
      <point x="387" y="878" type="curve" smooth="yes"/>
      <point x="346" y="878"/>
      <point x="312" y="847"/>
      <point x="312" y="803" type="curve" smooth="yes"/>
      <point x="312" y="763"/>
      <point x="344" y="728"/>
    </contour>
  </outline>
</glyph>
<glyph name="Amacron" format="2">
  <advance width="573"/>
  <unicode hex="0100"/>
  <outline>
    <contour>
      <point x="576" y="0" type="line"/>
      <point x="275" y="725" type="line"/>
      <point x="-28" y="0" type="line"/>
      <point x="134" y="0" type="line"/>
      <point x="275" y="337" type="line"/>
      <point x="306" y="262"/>
      <point x="325" y="217"/>
      <point x="354" y="150" type="curve"/>
      <point x="237" y="150" type="line"/>
      <point x="175" y="0" type="line"/>
    </contour>
    <contour>
      <point x="424" y="763" type="line"/>
      <point x="424" y="891" type="line"/>
      <point x="116" y="891" type="line"/>
      <point x="116" y="763" type="line"/>
    </contour>
  </outline>
</glyph>
<glyph name="abreve" format="2">
  <advance width="573"/>
  <unicode hex="0103"/>
  <outline>
    <contour>
      <point x="576" y="0" type="line"/>
      <point x="275" y="725" type="line"/>
      <point x="-28" y="0" type="line"/>
      <point x="134" y="0" type="line"/>
      <point x="275" y="337" type="line"/>
      <point x="306" y="262"/>
      <point x="325" y="217"/>
      <point x="354" y="150" type="curve"/>
      <point x="237" y="150" type="line"/>
      <point x="175" y="0" type="line"/>
    </contour>
    <contour>
      <point x="286" y="724" type="curve" smooth="yes"/>
      <point x="373" y="724"/>
      <point x="443" y="783"/>
      <point x="451" y="865" type="curve"/>
      <point x="338" y="865" type="line"/>
      <point x="329" y="844"/>
      <point x="311" y="834"/>
      <point x="286" y="834" type="curve" smooth="yes"/>
      <point x="263" y="834"/>
      <point x="243" y="847"/>
      <point x="234" y="865" type="curve"/>
      <point x="121" y="865" type="line"/>
      <point x="134" y="788"/>
      <point x="204" y="724"/>
    </contour>
  </outline>
</glyph>
<glyph name="Aogonek" format="2">
  <advance width="573"/>
  <unicode hex="0104"/>
  <outline>
    <contour>
      <point x="576" y="0" type="line"/>
      <point x="275" y="725" type="line"/>
      <point x="-28" y="0" type="line"/>
      <point x="134" y="0" type="line"/>
      <point x="275" y="337" type="line"/>
      <point x="306" y="262"/>
      <point x="325" y="217"/>
      <point x="354" y="150" type="curve"/>
      <point x="237" y="150" type="line"/>
      <point x="175" y="0" type="line"/>
    </contour>
    <contour>
      <point x="520" y="-280" type="line"/>
      <point x="520" y="-199" type="line"/>
      <point x="416" y="-199" type="line" smooth="yes"/>
      <point x="404" y="-199"/>
      <point x="395" y="-190"/>
      <point x="395" y="-178" type="curve" smooth="yes"/>
      <point x="395" y="-157" type="line"/>
      <point x="520" y="-157" type="line"/>
      <point x="520" y="32" type="line"/>
      <point x="438" y="32" type="line"/>
      <point x="438" y="-84" type="line"/>
      <point x="313" y="-84" type="line"/>
      <point x="313" y="-178" type="line" smooth="yes"/>
      <point x="313" y="-236"/>
      <point x="361" y="-280"/>
      <point x="416" y="-280" type="curve" smooth="yes"/>
    </contour>
  </outline>
</glyph>
<glyph name="Cacute" format="2">
  <advance width="554"/>
  <unicode hex="0106"/>
  <outline>
    <contour>
      <point x="502" y="0" type="line"/>
      <point x="502" y="150" type="line"/>
      <point x="350" y="150" type="line" smooth="yes"/>
      <point x="241" y="150"/>
      <point x="153" y="237"/>
      <point x="153" y="346" type="curve" smooth="yes"/>
      <point x="153" y="455"/>
      <point x="240" y="543"/>
      <point x="350" y="543" type="curve" smooth="yes"/>
      <point x="502" y="543" type="line"/>
      <point x="502" y="693" type="line"/>
      <point x="350" y="693" type="line" smooth="yes"/>
      <point x="158" y="693"/>
      <point x="3" y="539"/>
      <point x="3" y="346" type="curve" smooth="yes"/>
      <point x="3" y="161"/>
      <point x="150" y="0"/>
      <point x="350" y="0" type="curve" smooth="yes"/>
    </contour>
    <contour>
      <point x="310" y="731" type="line"/>
      <point x="412" y="868" type="line"/>
      <point x="249" y="868" type="line"/>
      <point x="142" y="731" type="line"/>
    </contour>
  </outline>
</glyph>
<glyph name="Cdotaccent" format="2">
  <advance width="554"/>
  <unicode hex="010A"/>
  <outline>
    <contour>
      <point x="502" y="0" type="line"/>
      <point x="502" y="150" type="line"/>
      <point x="350" y="150" type="line" smooth="yes"/>
      <point x="241" y="150"/>
      <point x="153" y="237"/>
      <point x="153" y="346" type="curve" smooth="yes"/>
      <point x="153" y="455"/>
      <point x="240" y="543"/>
      <point x="350" y="543" type="curve" smooth="yes"/>
      <point x="502" y="543" type="line"/>
      <point x="502" y="693" type="line"/>
      <point x="350" y="693" type="line" smooth="yes"/>
      <point x="158" y="693"/>
      <point x="3" y="539"/>
      <point x="3" y="346" type="curve" smooth="yes"/>
      <point x="3" y="161"/>
      <point x="150" y="0"/>
      <point x="350" y="0" type="curve" smooth="yes"/>
    </contour>
    <contour>
      <point x="276" y="712" type="curve" smooth="yes"/>
      <point x="332" y="712"/>
      <point x="376" y="754"/>
      <point x="376" y="811" type="curve" smooth="yes"/>
      <point x="376" y="867"/>
      <point x="332" y="911"/>
      <point x="276" y="911" type="curve" smooth="yes"/>
      <point x="219" y="911"/>
      <point x="177" y="867"/>
      <point x="177" y="811" type="curve" smooth="yes"/>
      <point x="177" y="755"/>
      <point x="220" y="712"/>
    </contour>
  </outline>
</glyph>
<glyph name="cdotaccent" format="2">
  <advance width="554"/>
  <unicode hex="010B"/>
  <outline>
    <contour>
      <point x="502" y="0" type="line"/>
      <point x="502" y="150" type="line"/>
      <point x="350" y="150" type="line" smooth="yes"/>
      <point x="241" y="150"/>
      <point x="153" y="237"/>
      <point x="153" y="346" type="curve" smooth="yes"/>
      <point x="153" y="455"/>
      <point x="240" y="543"/>
      <point x="350" y="543" type="curve" smooth="yes"/>
      <point x="502" y="543" type="line"/>
      <point x="502" y="693" type="line"/>
      <point x="350" y="693" type="line" smooth="yes"/>
      <point x="158" y="693"/>
      <point x="3" y="539"/>
      <point x="3" y="346" type="curve" smooth="yes"/>
      <point x="3" y="161"/>
      <point x="150" y="0"/>
      <point x="350" y="0" type="curve" smooth="yes"/>
    </contour>
    <contour>
      <point x="276" y="711" type="curve" smooth="yes"/>
      <point x="332" y="711"/>
      <point x="376" y="753"/>
      <point x="376" y="810" type="curve" smooth="yes"/>
      <point x="376" y="866"/>
      <point x="332" y="910"/>
      <point x="276" y="910" type="curve" smooth="yes"/>
      <point x="219" y="910"/>
      <point x="177" y="866"/>
      <point x="177" y="810" type="curve" smooth="yes"/>
      <point x="177" y="754"/>
      <point x="220" y="711"/>
    </contour>
  </outline>
</glyph>
<glyph name="Edotaccent" format="2">
  <advance width="570"/>
  <unicode hex="0116"/>
  <outline>
    <contour>
      <point x="517" y="0" type="line"/>
      <point x="517" y="150" type="line"/>
      <point x="360" y="150" type="line" smooth="yes"/>
      <point x="250" y="150"/>
      <point x="164" y="239"/>
      <point x="164" y="347" type="curve" smooth="yes"/>
      <point x="164" y="456"/>
      <point x="251" y="544"/>
      <point x="360" y="544" type="curve" smooth="yes"/>
      <point x="517" y="544" type="line"/>
      <point x="517" y="694" type="line"/>
      <point x="360" y="694" type="line" smooth="yes"/>
      <point x="168" y="694"/>
      <point x="14" y="538"/>
      <point x="14" y="347" type="curve" smooth="yes"/>
      <point x="14" y="161"/>
      <point x="162" y="0"/>
      <point x="360" y="0" type="curve" smooth="yes"/>
    </contour>
    <contour>
      <point x="517" y="272" type="line"/>
      <point x="517" y="422" type="line"/>
      <point x="211" y="422" type="line"/>
      <point x="200" y="391"/>
      <point x="195" y="369"/>
      <point x="195" y="347" type="curve" smooth="yes"/>
      <point x="195" y="328"/>
      <point x="200" y="304"/>
      <point x="213" y="272" type="curve"/>
    </contour>
    <contour>
      <point x="284" y="712" type="curve" smooth="yes"/>
      <point x="340" y="712"/>
      <point x="384" y="754"/>
      <point x="384" y="811" type="curve" smooth="yes"/>
      <point x="384" y="867"/>
      <point x="340" y="911"/>
      <point x="284" y="911" type="curve" smooth="yes"/>
      <point x="227" y="911"/>
      <point x="185" y="867"/>
      <point x="185" y="811" type="curve" smooth="yes"/>
      <point x="185" y="755"/>
      <point x="228" y="712"/>
    </contour>
  </outline>
</glyph>
<glyph name="eogonek" format="2">
  <advance width="570"/>
  <unicode hex="0119"/>
  <outline>
    <contour>
      <point x="517" y="0" type="line"/>
      <point x="517" y="150" type="line"/>
      <point x="360" y="150" type="line" smooth="yes"/>
      <point x="250" y="150"/>
      <point x="164" y="239"/>
      <point x="164" y="347" type="curve" smooth="yes"/>
      <point x="164" y="456"/>
      <point x="251" y="544"/>
      <point x="360" y="544" type="curve" smooth="yes"/>
      <point x="517" y="544" type="line"/>
      <point x="517" y="694" type="line"/>
      <point x="360" y="694" type="line" smooth="yes"/>
      <point x="168" y="694"/>
      <point x="14" y="538"/>
      <point x="14" y="347" type="curve" smooth="yes"/>
      <point x="14" y="161"/>
      <point x="162" y="0"/>
      <point x="360" y="0" type="curve" smooth="yes"/>
    </contour>
    <contour>
      <point x="517" y="272" type="line"/>
      <point x="517" y="422" type="line"/>
      <point x="211" y="422" type="line"/>
      <point x="200" y="391"/>
      <point x="195" y="369"/>
      <point x="195" y="347" type="curve" smooth="yes"/>
      <point x="195" y="328"/>
      <point x="200" y="304"/>
      <point x="213" y="272" type="curve"/>
    </contour>
    <contour>
      <point x="480" y="-280" type="line"/>
      <point x="480" y="-199" type="line"/>
      <point x="376" y="-199" type="line" smooth="yes"/>
      <point x="364" y="-199"/>
      <point x="355" y="-190"/>
      <point x="355" y="-178" type="curve" smooth="yes"/>
      <point x="355" y="-157" type="line"/>
      <point x="480" y="-157" type="line"/>
      <point x="480" y="0" type="line"/>
      <point x="398" y="0" type="line"/>
      <point x="398" y="-84" type="line"/>
      <point x="273" y="-84" type="line"/>
      <point x="273" y="-178" type="line" smooth="yes"/>
      <point x="273" y="-236"/>
      <point x="321" y="-280"/>
      <point x="376" y="-280" type="curve" smooth="yes"/>
    </contour>
  </outline>
</glyph>
<glyph name="gcircumflex" format="2">
  <advance width="599"/>
  <unicode hex="011D"/>
  <outline>
    <contour>
      <point x="550" y="0" type="line"/>
      <point x="550" y="150" type="line"/>
      <point x="366" y="150" type="line" smooth="yes"/>
      <point x="257" y="150"/>
      <point x="169" y="237"/>
      <point x="169" y="347" type="curve" smooth="yes"/>
      <point x="169" y="456"/>
      <point x="256" y="544"/>
      <point x="366" y="544" type="curve" smooth="yes"/>
      <point x="550" y="544" type="line"/>
      <point x="550" y="694" type="line"/>
      <point x="366" y="694" type="line" smooth="yes"/>
      <point x="181" y="694"/>
      <point x="20" y="547"/>
      <point x="20" y="347" type="curve" smooth="yes"/>
      <point x="20" y="161"/>
      <point x="168" y="0"/>
      <point x="366" y="0" type="curve" smooth="yes"/>
    </contour>
    <contour>
      <point x="550" y="181" type="line"/>
      <point x="550" y="422" type="line"/>
      <point x="216" y="422" type="line"/>
      <point x="205" y="391"/>
      <point x="200" y="369"/>
      <point x="200" y="347" type="curve" smooth="yes"/>
      <point x="200" y="328"/>
      <point x="205" y="304"/>
      <point x="218" y="272" type="curve"/>
      <point x="399" y="272" type="line"/>
      <point x="399" y="181" type="line"/>
    </contour>
    <contour>
      <point x="491" y="730" type="line"/>
      <point x="389" y="867" type="line"/>
      <point x="209" y="867" type="line"/>
      <point x="107" y="730" type="line"/>
      <point x="257" y="730" type="line"/>
      <point x="299" y="787" type="line"/>
      <point x="341" y="730" type="line"/>
    </contour>
  </outline>
</glyph>
<glyph name="Gbreve" format="2">
  <advance width="599"/>
  <unicode hex="011E"/>
  <outline>
    <contour>
      <point x="550" y="0" type="line"/>
      <point x="550" y="150" type="line"/>
      <point x="366" y="150" type="line" smooth="yes"/>
      <point x="257" y="150"/>
      <point x="169" y="237"/>
      <point x="169" y="347" type="curve" smooth="yes"/>
      <point x="169" y="456"/>
      <point x="256" y="544"/>
      <point x="366" y="544" type="curve" smooth="yes"/>
      <point x="550" y="544" type="line"/>
      <point x="550" y="694" type="line"/>
      <point x="366" y="694" type="line" smooth="yes"/>
      <point x="181" y="694"/>
      <point x="20" y="547"/>
      <point x="20" y="347" type="curve" smooth="yes"/>
      <point x="20" y="161"/>
      <point x="168" y="0"/>
      <point x="366" y="0" type="curve" smooth="yes"/>
    </contour>
    <contour>
      <point x="550" y="181" type="line"/>
      <point x="550" y="422" type="line"/>
      <point x="216" y="422" type="line"/>
      <point x="205" y="391"/>
      <point x="200" y="369"/>
      <point x="200" y="347" type="curve" smooth="yes"/>
      <point x="200" y="328"/>
      <point x="205" y="304"/>
      <point x="218" y="272" type="curve"/>
      <point x="399" y="272" type="line"/>
      <point x="399" y="181" type="line"/>
    </contour>
    <contour>
      <point x="299" y="725" type="curve" smooth="yes"/>
      <point x="386" y="725"/>
      <point x="456" y="784"/>
      <point x="464" y="866" type="curve"/>
      <point x="351" y="866" type="line"/>
      <point x="342" y="845"/>
      <point x="324" y="835"/>
      <point x="299" y="835" type="curve" smooth="yes"/>
      <point x="276" y="835"/>
      <point x="256" y="848"/>
      <point x="247" y="866" type="curve"/>
      <point x="134" y="866" type="line"/>
      <point x="147" y="789"/>
      <point x="217" y="725"/>
    </contour>
  </outline>
</glyph>
<glyph name="gbreve" format="2">
  <advance width="599"/>
  <unicode hex="011F"/>
  <outline>
    <contour>
      <point x="550" y="0" type="line"/>
      <point x="550" y="150" type="line"/>
      <point x="366" y="150" type="line" smooth="yes"/>
      <point x="257" y="150"/>
      <point x="169" y="237"/>
      <point x="169" y="347" type="curve" smooth="yes"/>
      <point x="169" y="456"/>
      <point x="256" y="544"/>
      <point x="366" y="544" type="curve" smooth="yes"/>
      <point x="550" y="544" type="line"/>
      <point x="550" y="694" type="line"/>
      <point x="366" y="694" type="line" smooth="yes"/>
      <point x="181" y="694"/>
      <point x="20" y="547"/>
      <point x="20" y="347" type="curve" smooth="yes"/>
      <point x="20" y="161"/>
      <point x="168" y="0"/>
      <point x="366" y="0" type="curve" smooth="yes"/>
    </contour>
    <contour>
      <point x="550" y="181" type="line"/>
      <point x="550" y="422" type="line"/>
      <point x="216" y="422" type="line"/>
      <point x="205" y="391"/>
      <point x="200" y="369"/>
      <point x="200" y="347" type="curve" smooth="yes"/>
      <point x="200" y="328"/>
      <point x="205" y="304"/>
      <point x="218" y="272" type="curve"/>
      <point x="399" y="272" type="line"/>
      <point x="399" y="181" type="line"/>
    </contour>
    <contour>
      <point x="299" y="724" type="curve" smooth="yes"/>
      <point x="386" y="724"/>
      <point x="456" y="783"/>
      <point x="464" y="865" type="curve"/>
      <point x="351" y="865" type="line"/>
      <point x="342" y="844"/>
      <point x="324" y="834"/>
      <point x="299" y="834" type="curve" smooth="yes"/>
      <point x="276" y="834"/>
      <point x="256" y="847"/>
      <point x="247" y="865" type="curve"/>
      <point x="134" y="865" type="line"/>
      <point x="147" y="788"/>
      <point x="217" y="724"/>
    </contour>
  </outline>
</glyph>
<glyph name="Gdotaccent" format="2">
  <advance width="599"/>
  <unicode hex="0120"/>
  <outline>
    <contour>
      <point x="550" y="0" type="line"/>
      <point x="550" y="150" type="line"/>
      <point x="366" y="150" type="line" smooth="yes"/>
      <point x="257" y="150"/>
      <point x="169" y="237"/>
      <point x="169" y="347" type="curve" smooth="yes"/>
      <point x="169" y="456"/>
      <point x="256" y="544"/>
      <point x="366" y="544" type="curve" smooth="yes"/>
      <point x="550" y="544" type="line"/>
      <point x="550" y="694" type="line"/>
      <point x="366" y="694" type="line" smooth="yes"/>
      <point x="181" y="694"/>
      <point x="20" y="547"/>
      <point x="20" y="347" type="curve" smooth="yes"/>
      <point x="20" y="161"/>
      <point x="168" y="0"/>
      <point x="366" y="0" type="curve" smooth="yes"/>
    </contour>
    <contour>
      <point x="550" y="181" type="line"/>
      <point x="550" y="422" type="line"/>
      <point x="216" y="422" type="line"/>
      <point x="205" y="391"/>
      <point x="200" y="369"/>
      <point x="200" y="347" type="curve" smooth="yes"/>
      <point x="200" y="328"/>
      <point x="205" y="304"/>
      <point x="218" y="272" type="curve"/>
      <point x="399" y="272" type="line"/>
      <point x="399" y="181" type="line"/>
    </contour>
    <contour>
      <point x="299" y="712" type="curve" smooth="yes"/>
      <point x="355" y="712"/>
      <point x="399" y="754"/>
      <point x="399" y="811" type="curve" smooth="yes"/>
      <point x="399" y="867"/>
      <point x="355" y="911"/>
      <point x="299" y="911" type="curve" smooth="yes"/>
      <point x="242" y="911"/>
      <point x="200" y="867"/>
      <point x="200" y="811" type="curve" smooth="yes"/>
      <point x="200" y="755"/>
      <point x="243" y="712"/>
    </contour>
  </outline>
</glyph>
<glyph name="gdotaccent" format="2">
  <advance width="599"/>
  <unicode hex="0121"/>
  <outline>
    <contour>
      <point x="550" y="0" type="line"/>
      <point x="550" y="150" type="line"/>
      <point x="366" y="150" type="line" smooth="yes"/>
      <point x="257" y="150"/>
      <point x="169" y="237"/>
      <point x="169" y="347" type="curve" smooth="yes"/>
      <point x="169" y="456"/>
      <point x="256" y="544"/>
      <point x="366" y="544" type="curve" smooth="yes"/>
      <point x="550" y="544" type="line"/>
      <point x="550" y="694" type="line"/>
      <point x="366" y="694" type="line" smooth="yes"/>
      <point x="181" y="694"/>
      <point x="20" y="547"/>
      <point x="20" y="347" type="curve" smooth="yes"/>
      <point x="20" y="161"/>
      <point x="168" y="0"/>
      <point x="366" y="0" type="curve" smooth="yes"/>
    </contour>
    <contour>
      <point x="550" y="181" type="line"/>
      <point x="550" y="422" type="line"/>
      <point x="216" y="422" type="line"/>
      <point x="205" y="391"/>
      <point x="200" y="369"/>
      <point x="200" y="347" type="curve" smooth="yes"/>
      <point x="200" y="328"/>
      <point x="205" y="304"/>
      <point x="218" y="272" type="curve"/>
      <point x="399" y="272" type="line"/>
      <point x="399" y="181" type="line"/>
    </contour>
    <contour>
      <point x="299" y="711" type="curve" smooth="yes"/>
      <point x="355" y="711"/>
      <point x="399" y="753"/>
      <point x="399" y="810" type="curve" smooth="yes"/>
      <point x="399" y="866"/>
      <point x="355" y="910"/>
      <point x="299" y="910" type="curve" smooth="yes"/>
      <point x="242" y="910"/>
      <point x="200" y="866"/>
      <point x="200" y="810" type="curve" smooth="yes"/>
      <point x="200" y="754"/>
      <point x="243" y="711"/>
    </contour>
  </outline>
</glyph>
<glyph name="gcedilla" format="2">
  <advance width="599"/>
  <unicode hex="0123"/>
  <outline>
    <contour>
      <point x="550" y="0" type="line"/>
      <point x="550" y="150" type="line"/>
      <point x="366" y="150" type="line" smooth="yes"/>
      <point x="257" y="150"/>
      <point x="169" y="237"/>
      <point x="169" y="347" type="curve" smooth="yes"/>
      <point x="169" y="456"/>
      <point x="256" y="544"/>
      <point x="366" y="544" type="curve" smooth="yes"/>
      <point x="550" y="544" type="line"/>
      <point x="550" y="694" type="line"/>
      <point x="366" y="694" type="line" smooth="yes"/>
      <point x="181" y="694"/>
      <point x="20" y="547"/>
      <point x="20" y="347" type="curve" smooth="yes"/>
      <point x="20" y="161"/>
      <point x="168" y="0"/>
      <point x="366" y="0" type="curve" smooth="yes"/>
    </contour>
    <contour>
      <point x="550" y="181" type="line"/>
      <point x="550" y="422" type="line"/>
      <point x="216" y="422" type="line"/>
      <point x="205" y="391"/>
      <point x="200" y="369"/>
      <point x="200" y="347" type="curve" smooth="yes"/>
      <point x="200" y="328"/>
      <point x="205" y="304"/>
      <point x="218" y="272" type="curve"/>
      <point x="399" y="272" type="line"/>
      <point x="399" y="181" type="line"/>
    </contour>
    <contour>
      <point x="233" y="-268" type="curve" smooth="yes"/>
      <point x="242" y="-268"/>
      <point x="253" y="-262"/>
      <point x="265" y="-250" type="curve" smooth="yes"/>
      <point x="340" y="-172" type="line"/>
      <point x="340" y="-169" type="line"/>
      <point x="343" y="-166"/>
      <point x="345" y="-161"/>
      <point x="346" y="-156" type="curve"/>
      <point x="351" y="-145"/>
      <point x="354" y="-134"/>
      <point x="354" y="-124" type="curve"/>
      <point x="353" y="-114" type="line"/>
      <point x="350" y="-101"/>
      <point x="345" y="-90"/>
      <point x="338" y="-81" type="curve" smooth="yes"/>
      <point x="330" y="-72"/>
      <point x="320" y="-66"/>
      <point x="309" y="-61" type="curve" smooth="yes"/>
      <point x="298" y="-56"/>
      <point x="286" y="-54"/>
      <point x="274" y="-54" type="curve" smooth="yes"/>
      <point x="255" y="-54"/>
      <point x="239" y="-60"/>
      <point x="224" y="-71" type="curve" smooth="yes"/>
      <point x="209" y="-83"/>
      <point x="202" y="-103"/>
      <point x="202" y="-130" type="curve" smooth="yes"/>
      <point x="202" y="-224" type="line" smooth="yes"/>
      <point x="202" y="-245"/>
      <point x="208" y="-259"/>
      <point x="221" y="-265" type="curve" smooth="yes"/>
      <point x="225" y="-267"/>
      <point x="229" y="-268"/>
    </contour>
  </outline>
</glyph>
<glyph name="Hcircumflex" format="2">
  <advance width="665"/>
  <unicode hex="0124"/>
  <outline>
    <contour>
      <point x="596" y="0" type="line"/>
      <point x="596" y="694" type="line"/>
      <point x="446" y="694" type="line"/>
      <point x="446" y="422" type="line"/>
      <point x="65" y="422" type="line"/>
      <point x="65" y="0" type="line"/>
      <point x="216" y="0" type="line"/>
      <point x="216" y="272" type="line"/>
      <point x="446" y="272" type="line"/>
      <point x="446" y="0" type="line"/>
    </contour>
    <contour>
      <point x="216" y="454" type="line"/>
      <point x="216" y="694" type="line"/>
      <point x="65" y="694" type="line"/>
      <point x="65" y="454" type="line"/>
    </contour>
    <contour>
      <point x="524" y="731" type="line"/>
      <point x="422" y="868" type="line"/>
      <point x="242" y="868" type="line"/>
      <point x="140" y="731" type="line"/>
      <point x="290" y="731" type="line"/>
      <point x="332" y="788" type="line"/>
      <point x="374" y="731" type="line"/>
    </contour>
  </outline>
</glyph>
<glyph name="hcircumflex" format="2">
  <advance width="665"/>
  <unicode hex="0125"/>
  <outline>
    <contour>
      <point x="596" y="0" type="line"/>
      <point x="596" y="694" type="line"/>
      <point x="446" y="694" type="line"/>
      <point x="446" y="422" type="line"/>
      <point x="65" y="422" type="line"/>
      <point x="65" y="0" type="line"/>
      <point x="216" y="0" type="line"/>
      <point x="216" y="272" type="line"/>
      <point x="446" y="272" type="line"/>
      <point x="446" y="0" type="line"/>
    </contour>
    <contour>
      <point x="216" y="454" type="line"/>
      <point x="216" y="694" type="line"/>
      <point x="65" y="694" type="line"/>
      <point x="65" y="454" type="line"/>
    </contour>
    <contour>
      <point x="524" y="730" type="line"/>
      <point x="422" y="867" type="line"/>
      <point x="242" y="867" type="line"/>
      <point x="140" y="730" type="line"/>
      <point x="290" y="730" type="line"/>
      <point x="332" y="787" type="line"/>
      <point x="374" y="730" type="line"/>
    </contour>
  </outline>
</glyph>
<glyph name="hbar" format="2">
  <advance width="712"/>
  <unicode hex="0127"/>
  <outline>
    <contour>
      <point x="623" y="0" type="line"/>
      <point x="623" y="694" type="line"/>
      <point x="473" y="694" type="line"/>
      <point x="473" y="422" type="line"/>
      <point x="92" y="422" type="line"/>
      <point x="92" y="0" type="line"/>
      <point x="243" y="0" type="line"/>
      <point x="243" y="272" type="line"/>
      <point x="473" y="272" type="line"/>
      <point x="473" y="0" type="line"/>
    </contour>
    <contour>
      <point x="243" y="454" type="line"/>
      <point x="243" y="694" type="line"/>
      <point x="92" y="694" type="line"/>
      <point x="92" y="454" type="line"/>
    </contour>
    <contour>
      <point x="698" y="485" type="line"/>
      <point x="698" y="605" type="line"/>
      <point x="17" y="605" type="line"/>
      <point x="17" y="485" type="line"/>
    </contour>
  </outline>
</glyph>
<glyph name="Itilde" format="2">
  <advance width="260"/>
  <unicode hex="0128"/>
  <outline>
    <contour>
      <point x="207" y="0" type="line"/>
      <point x="207" y="693" type="line"/>
      <point x="57" y="693" type="line"/>
      <point x="57" y="0" type="line"/>
    </contour>
    <contour>
      <point x="-10" y="715" type="line"/>
      <point x="7" y="738"/>
      <point x="21" y="756"/>
      <point x="32" y="769" type="curve" smooth="yes"/>
      <point x="49" y="790"/>
      <point x="51" y="793"/>
      <point x="61" y="793" type="curve"/>
      <point x="64" y="794" type="line"/>
      <point x="76" y="794"/>
      <point x="136" y="729"/>
      <point x="198" y="729" type="curve" smooth="yes"/>
      <point x="209" y="729"/>
      <point x="215" y="730"/>
      <point x="220" y="731" type="curve" smooth="yes"/>
      <point x="257" y="741"/>
      <point x="279" y="754"/>
      <point x="344" y="839" type="curve"/>
      <point x="269" y="922" type="line"/>
      <point x="236" y="875"/>
      <point x="212" y="851"/>
      <point x="199" y="844" type="curve"/>
      <point x="191" y="844"/>
      <point x="183" y="847"/>
      <point x="160" y="865" type="curve" smooth="yes"/>
      <point x="119" y="897"/>
      <point x="93" y="908"/>
      <point x="62" y="908" type="curve" smooth="yes"/>
      <point x="29" y="908"/>
      <point x="22" y="903"/>
      <point x="10" y="896" type="curve" smooth="yes"/>
      <point x="-12" y="883"/>
      <point x="-32" y="867"/>
      <point x="-84" y="799" type="curve"/>
    </contour>
  </outline>
</glyph>
<glyph name="itilde" format="2">
  <advance width="318"/>
  <unicode hex="0129"/>
  <outline>
    <contour>
      <point x="282" y="0" type="line"/>
      <point x="282" y="693" type="line"/>
      <point x="35" y="693" type="line"/>
      <point x="35" y="543" type="line"/>
      <point x="132" y="543" type="line"/>
      <point x="132" y="0" type="line"/>
    </contour>
    <contour>
      <point x="19" y="714" type="line"/>
      <point x="36" y="737"/>
      <point x="50" y="755"/>
      <point x="61" y="768" type="curve" smooth="yes"/>
      <point x="78" y="789"/>
      <point x="80" y="792"/>
      <point x="90" y="792" type="curve"/>
      <point x="93" y="793" type="line"/>
      <point x="105" y="793"/>
      <point x="165" y="728"/>
      <point x="227" y="728" type="curve" smooth="yes"/>
      <point x="238" y="728"/>
      <point x="244" y="729"/>
      <point x="249" y="730" type="curve" smooth="yes"/>
      <point x="286" y="740"/>
      <point x="308" y="753"/>
      <point x="373" y="838" type="curve"/>
      <point x="298" y="921" type="line"/>
      <point x="265" y="874"/>
      <point x="241" y="850"/>
      <point x="228" y="843" type="curve"/>
      <point x="220" y="843"/>
      <point x="212" y="846"/>
      <point x="189" y="864" type="curve" smooth="yes"/>
      <point x="148" y="896"/>
      <point x="122" y="907"/>
      <point x="91" y="907" type="curve" smooth="yes"/>
      <point x="58" y="907"/>
      <point x="51" y="902"/>
      <point x="39" y="895" type="curve" smooth="yes"/>
      <point x="17" y="882"/>
      <point x="-3" y="866"/>
      <point x="-55" y="798" type="curve"/>
    </contour>
  </outline>
</glyph>
<glyph name="Imacron" format="2">
  <advance width="260"/>
  <unicode hex="012A"/>
  <outline>
    <contour>
      <point x="207" y="0" type="line"/>
      <point x="207" y="693" type="line"/>
      <point x="57" y="693" type="line"/>
      <point x="57" y="0" type="line"/>
    </contour>
    <contour>
      <point x="296" y="763" type="line"/>
      <point x="296" y="891" type="line"/>
      <point x="-12" y="891" type="line"/>
      <point x="-12" y="763" type="line"/>
    </contour>
  </outline>
</glyph>
<glyph name="imacron" format="2">
  <advance width="318"/>
  <unicode hex="012B"/>
  <outline>
    <contour>
      <point x="282" y="0" type="line"/>
      <point x="282" y="693" type="line"/>
      <point x="35" y="693" type="line"/>
      <point x="35" y="543" type="line"/>
      <point x="132" y="543" type="line"/>
      <point x="132" y="0" type="line"/>
    </contour>
    <contour>
      <point x="313" y="762" type="line"/>
      <point x="313" y="890" type="line"/>
      <point x="5" y="890" type="line"/>
      <point x="5" y="762" type="line"/>
    </contour>
  </outline>
</glyph>
<glyph name="Iogonek" format="2">
  <advance width="260"/>
  <unicode hex="012E"/>
  <outline>
    <contour>
      <point x="207" y="0" type="line"/>
      <point x="207" y="693" type="line"/>
      <point x="57" y="693" type="line"/>
      <point x="57" y="0" type="line"/>
    </contour>
    <contour>
      <point x="207" y="-280" type="line"/>
      <point x="207" y="-199" type="line"/>
      <point x="103" y="-199" type="line" smooth="yes"/>
      <point x="91" y="-199"/>
      <point x="82" y="-190"/>
      <point x="82" y="-178" type="curve" smooth="yes"/>
      <point x="82" y="-157" type="line"/>
      <point x="207" y="-157" type="line"/>
      <point x="207" y="32" type="line"/>
      <point x="125" y="32" type="line"/>
      <point x="125" y="-84" type="line"/>
      <point x="0" y="-84" type="line"/>
      <point x="0" y="-178" type="line" smooth="yes"/>
      <point x="0" y="-236"/>
      <point x="48" y="-280"/>
      <point x="103" y="-280" type="curve" smooth="yes"/>
    </contour>
  </outline>
</glyph>
<glyph name="iogonek" format="2">
  <advance width="309"/>
  <unicode hex="012F"/>
  <outline>
    <contour>
      <point x="249" y="-280" type="line"/>
      <point x="249" y="-199" type="line"/>
      <point x="145" y="-199" type="line" smooth="yes"/>
      <point x="133" y="-199"/>
      <point x="124" y="-190"/>
      <point x="124" y="-178" type="curve" smooth="yes"/>
      <point x="124" y="-157" type="line"/>
      <point x="249" y="-157" type="line"/>
      <point x="249" y="32" type="line"/>
      <point x="167" y="32" type="line"/>
      <point x="167" y="-84" type="line"/>
      <point x="42" y="-84" type="line"/>
      <point x="42" y="-178" type="line" smooth="yes"/>
      <point x="42" y="-236"/>
      <point x="90" y="-280"/>
      <point x="145" y="-280" type="curve" smooth="yes"/>
    </contour>
    <contour>
      <point x="282" y="0" type="line"/>
      <point x="282" y="693" type="line"/>
      <point x="35" y="693" type="line"/>
      <point x="35" y="543" type="line"/>
      <point x="132" y="543" type="line"/>
      <point x="132" y="0" type="line"/>
    </contour>
    <contour>
      <point x="173" y="712" type="curve" smooth="yes"/>
      <point x="229" y="712"/>
      <point x="273" y="754"/>
      <point x="273" y="811" type="curve" smooth="yes"/>
      <point x="273" y="867"/>
      <point x="229" y="911"/>
      <point x="173" y="911" type="curve" smooth="yes"/>
      <point x="116" y="911"/>
      <point x="74" y="867"/>
      <point x="74" y="811" type="curve" smooth="yes"/>
      <point x="74" y="755"/>
      <point x="117" y="712"/>
    </contour>
  </outline>
</glyph>
<glyph name="Idotaccent" format="2">
  <advance width="260"/>
  <unicode hex="0130"/>
  <outline>
    <contour>
      <point x="207" y="0" type="line"/>
      <point x="207" y="693" type="line"/>
      <point x="57" y="693" type="line"/>
      <point x="57" y="0" type="line"/>
    </contour>
    <contour>
      <point x="129" y="712" type="curve" smooth="yes"/>
      <point x="185" y="712"/>
      <point x="229" y="754"/>
      <point x="229" y="811" type="curve" smooth="yes"/>
      <point x="229" y="867"/>
      <point x="185" y="911"/>
      <point x="129" y="911" type="curve" smooth="yes"/>
      <point x="72" y="911"/>
      <point x="30" y="867"/>
      <point x="30" y="811" type="curve" smooth="yes"/>
      <point x="30" y="755"/>
      <point x="73" y="712"/>
    </contour>
  </outline>
</glyph>
<glyph name="idotless" format="2">
  <advance width="318"/>
  <unicode hex="0131"/>
  <outline>
    <contour>
      <point x="282" y="0" type="line"/>
      <point x="282" y="693" type="line"/>
      <point x="35" y="693" type="line"/>
      <point x="35" y="543" type="line"/>
      <point x="132" y="543" type="line"/>
      <point x="132" y="0" type="line"/>
    </contour>
  </outline>
</glyph>
<glyph name="ij" format="2">
  <advance width="561"/>
  <unicode hex="0133"/>
  <outline>
    <contour>
      <point x="207" y="0" type="line"/>
      <point x="207" y="693" type="line"/>
      <point x="57" y="693" type="line"/>
      <point x="57" y="0" type="line"/>
    </contour>
    <contour>
      <point x="267" y="0" type="line"/>
      <point x="409" y="0"/>
      <point x="526" y="104"/>
      <point x="526" y="238" type="curve" smooth="yes"/>
      <point x="526" y="693" type="line"/>
      <point x="375" y="693" type="line"/>
      <point x="375" y="238" type="line" smooth="yes"/>
      <point x="375" y="190"/>
      <point x="327" y="150"/>
      <point x="267" y="150" type="curve"/>
    </contour>
  </outline>
</glyph>
<glyph name="jcircumflex" format="2">
  <advance width="301"/>
  <unicode hex="0135"/>
  <outline>
    <contour>
      <point x="7" y="0" type="line"/>
      <point x="149" y="0"/>
      <point x="266" y="104"/>
      <point x="266" y="238" type="curve" smooth="yes"/>
      <point x="266" y="693" type="line"/>
      <point x="115" y="693" type="line"/>
      <point x="115" y="238" type="line" smooth="yes"/>
      <point x="115" y="190"/>
      <point x="67" y="150"/>
      <point x="7" y="150" type="curve"/>
    </contour>
    <contour>
      <point x="343" y="730" type="line"/>
      <point x="241" y="867" type="line"/>
      <point x="61" y="867" type="line"/>
      <point x="-41" y="730" type="line"/>
      <point x="109" y="730" type="line"/>
      <point x="151" y="787" type="line"/>
      <point x="193" y="730" type="line"/>
    </contour>
  </outline>
</glyph>
<glyph name="kcedilla" format="2">
  <advance width="636"/>
  <unicode hex="0137"/>
  <outline>
    <contour>
      <point x="617" y="0" type="line"/>
      <point x="545" y="106"/>
      <point x="458" y="239"/>
      <point x="385" y="347" type="curve"/>
      <point x="617" y="694" type="line"/>
      <point x="437" y="694" type="line"/>
      <point x="206" y="347" type="line"/>
      <point x="437" y="0" type="line"/>
    </contour>
    <contour>
      <point x="196" y="0" type="line"/>
      <point x="196" y="694" type="line"/>
      <point x="47" y="694" type="line"/>
      <point x="47" y="0" type="line"/>
    </contour>
    <contour>
      <point x="233" y="-268" type="curve" smooth="yes"/>
      <point x="242" y="-268"/>
      <point x="253" y="-262"/>
      <point x="265" y="-250" type="curve" smooth="yes"/>
      <point x="340" y="-172" type="line"/>
      <point x="340" y="-169" type="line"/>
      <point x="343" y="-166"/>
      <point x="345" y="-161"/>
      <point x="346" y="-156" type="curve"/>
      <point x="351" y="-145"/>
      <point x="354" y="-134"/>
      <point x="354" y="-124" type="curve"/>
      <point x="353" y="-114" type="line"/>
      <point x="350" y="-101"/>
      <point x="345" y="-90"/>
      <point x="338" y="-81" type="curve" smooth="yes"/>
      <point x="330" y="-72"/>
      <point x="320" y="-66"/>
      <point x="309" y="-61" type="curve" smooth="yes"/>
      <point x="298" y="-56"/>
      <point x="286" y="-54"/>
      <point x="274" y="-54" type="curve" smooth="yes"/>
      <point x="255" y="-54"/>
      <point x="239" y="-60"/>
      <point x="224" y="-71" type="curve" smooth="yes"/>
      <point x="209" y="-83"/>
      <point x="202" y="-103"/>
      <point x="202" y="-130" type="curve" smooth="yes"/>
      <point x="202" y="-224" type="line" smooth="yes"/>
      <point x="202" y="-245"/>
      <point x="208" y="-259"/>
      <point x="221" y="-265" type="curve" smooth="yes"/>
      <point x="225" y="-267"/>
      <point x="229" y="-268"/>
    </contour>
  </outline>
</glyph>
<glyph name="Lacute" format="2">
  <advance width="437"/>
  <unicode hex="0139"/>
  <outline>
    <contour>
      <point x="433" y="0" type="line"/>
      <point x="433" y="150" type="line"/>
      <point x="194" y="150" type="line"/>
      <point x="194" y="693" type="line"/>
      <point x="44" y="693" type="line"/>
      <point x="44" y="0" type="line"/>
    </contour>
    <contour>
      <point x="251" y="731" type="line"/>
      <point x="353" y="868" type="line"/>
      <point x="190" y="868" type="line"/>
      <point x="83" y="731" type="line"/>
    </contour>
  </outline>
</glyph>
<glyph name="Lcedilla" format="2">
  <advance width="437"/>
  <unicode hex="013B"/>
  <outline>
    <contour>
      <point x="433" y="0" type="line"/>
      <point x="433" y="150" type="line"/>
      <point x="194" y="150" type="line"/>
      <point x="194" y="693" type="line"/>
      <point x="44" y="693" type="line"/>
      <point x="44" y="0" type="line"/>
    </contour>
    <contour>
      <point x="202" y="-268" type="curve" smooth="yes"/>
      <point x="211" y="-268"/>
      <point x="222" y="-262"/>
      <point x="234" y="-250" type="curve" smooth="yes"/>
      <point x="309" y="-172" type="line"/>
      <point x="309" y="-169" type="line"/>
      <point x="312" y="-166"/>
      <point x="314" y="-161"/>
      <point x="315" y="-156" type="curve"/>
      <point x="320" y="-145"/>
      <point x="323" y="-134"/>
      <point x="323" y="-124" type="curve"/>
      <point x="322" y="-114" type="line"/>
      <point x="319" y="-101"/>
      <point x="314" y="-90"/>
      <point x="307" y="-81" type="curve" smooth="yes"/>
      <point x="299" y="-72"/>
      <point x="289" y="-66"/>
      <point x="278" y="-61" type="curve" smooth="yes"/>
      <point x="267" y="-56"/>
      <point x="255" y="-54"/>
      <point x="243" y="-54" type="curve" smooth="yes"/>
      <point x="224" y="-54"/>
      <point x="208" y="-60"/>
      <point x="193" y="-71" type="curve" smooth="yes"/>
      <point x="178" y="-83"/>
      <point x="171" y="-103"/>
      <point x="171" y="-130" type="curve" smooth="yes"/>
      <point x="171" y="-224" type="line" smooth="yes"/>
      <point x="171" y="-245"/>
      <point x="177" y="-259"/>
      <point x="190" y="-265" type="curve" smooth="yes"/>
      <point x="194" y="-267"/>
      <point x="198" y="-268"/>
    </contour>
  </outline>
</glyph>
<glyph name="Lcaron" format="2">
  <advance width="463"/>
  <unicode hex="013D"/>
  <outline>
    <contour>
      <point x="433" y="0" type="line"/>
      <point x="433" y="150" type="line"/>
      <point x="194" y="150" type="line"/>
      <point x="194" y="693" type="line"/>
      <point x="44" y="693" type="line"/>
      <point x="44" y="0" type="line"/>
    </contour>
    <contour>
      <point x="279" y="463" type="curve" smooth="yes"/>
      <point x="288" y="463"/>
      <point x="299" y="469"/>
      <point x="311" y="481" type="curve" smooth="yes"/>
      <point x="386" y="559" type="line"/>
      <point x="386" y="562" type="line"/>
      <point x="389" y="565"/>
      <point x="391" y="570"/>
      <point x="392" y="575" type="curve"/>
      <point x="397" y="586"/>
      <point x="400" y="597"/>
      <point x="400" y="607" type="curve"/>
      <point x="399" y="617" type="line"/>
      <point x="396" y="630"/>
      <point x="391" y="641"/>
      <point x="384" y="650" type="curve" smooth="yes"/>
      <point x="376" y="659"/>
      <point x="366" y="665"/>
      <point x="355" y="670" type="curve" smooth="yes"/>
      <point x="344" y="675"/>
      <point x="332" y="677"/>
      <point x="320" y="677" type="curve" smooth="yes"/>
      <point x="301" y="677"/>
      <point x="285" y="671"/>
      <point x="270" y="660" type="curve" smooth="yes"/>
      <point x="255" y="648"/>
      <point x="248" y="628"/>
      <point x="248" y="601" type="curve" smooth="yes"/>
      <point x="248" y="507" type="line" smooth="yes"/>
      <point x="248" y="486"/>
      <point x="254" y="472"/>
      <point x="267" y="466" type="curve" smooth="yes"/>
      <point x="271" y="464"/>
      <point x="275" y="463"/>
    </contour>
  </outline>
</glyph>
<glyph name="lcaron" format="2">
  <advance width="463"/>
  <unicode hex="013E"/>
  <outline>
    <contour>
      <point x="433" y="0" type="line"/>
      <point x="433" y="150" type="line"/>
      <point x="194" y="150" type="line"/>
      <point x="194" y="693" type="line"/>
      <point x="44" y="693" type="line"/>
      <point x="44" y="0" type="line"/>
    </contour>
    <contour>
      <point x="316" y="462" type="curve" smooth="yes"/>
      <point x="325" y="462"/>
      <point x="336" y="468"/>
      <point x="348" y="480" type="curve" smooth="yes"/>
      <point x="423" y="558" type="line"/>
      <point x="423" y="561" type="line"/>
      <point x="426" y="564"/>
      <point x="428" y="569"/>
      <point x="429" y="574" type="curve"/>
      <point x="434" y="585"/>
      <point x="437" y="596"/>
      <point x="437" y="606" type="curve"/>
      <point x="436" y="616" type="line"/>
      <point x="433" y="629"/>
      <point x="428" y="640"/>
      <point x="421" y="649" type="curve" smooth="yes"/>
      <point x="413" y="658"/>
      <point x="403" y="664"/>
      <point x="392" y="669" type="curve" smooth="yes"/>
      <point x="381" y="674"/>
      <point x="369" y="676"/>
      <point x="357" y="676" type="curve" smooth="yes"/>
      <point x="338" y="676"/>
      <point x="322" y="670"/>
      <point x="307" y="659" type="curve" smooth="yes"/>
      <point x="292" y="647"/>
      <point x="285" y="627"/>
      <point x="285" y="600" type="curve" smooth="yes"/>
      <point x="285" y="506" type="line" smooth="yes"/>
      <point x="285" y="485"/>
      <point x="291" y="471"/>
      <point x="304" y="465" type="curve" smooth="yes"/>
      <point x="308" y="463"/>
      <point x="312" y="462"/>
    </contour>
  </outline>
</glyph>
<glyph name="Lslash" format="2">
  <advance width="508"/>
  <unicode hex="0141"/>
  <outline>
    <contour>
      <point x="477" y="0" type="line"/>
      <point x="477" y="150" type="line"/>
      <point x="238" y="150" type="line"/>
      <point x="238" y="693" type="line"/>
      <point x="88" y="693" type="line"/>
      <point x="88" y="0" type="line"/>
    </contour>
    <contour>
      <point x="368" y="287" type="line"/>
      <point x="368" y="407" type="line"/>
      <point x="33" y="407" type="line"/>
      <point x="33" y="287" type="line"/>
    </contour>
  </outline>
</glyph>
<glyph name="lslash" format="2">
  <advance width="508"/>
  <unicode hex="0142"/>
  <outline>
    <contour>
      <point x="477" y="0" type="line"/>
      <point x="477" y="150" type="line"/>
      <point x="238" y="150" type="line"/>
      <point x="238" y="693" type="line"/>
      <point x="88" y="693" type="line"/>
      <point x="88" y="0" type="line"/>
    </contour>
    <contour>
      <point x="368" y="287" type="line"/>
      <point x="368" y="407" type="line"/>
      <point x="33" y="407" type="line"/>
      <point x="33" y="287" type="line"/>
    </contour>
  </outline>
</glyph>
<glyph name="nacute" format="2">
  <advance width="696"/>
  <unicode hex="0144"/>
  <outline>
    <contour>
      <point x="632" y="81" type="line"/>
      <point x="632" y="693" type="line"/>
      <point x="482" y="693" type="line"/>
      <point x="482" y="306" type="line"/>
    </contour>
    <contour>
      <point x="650" y="0" type="line"/>
      <point x="187" y="693" type="line"/>
      <point x="47" y="693" type="line"/>
      <point x="47" y="0" type="line"/>
      <point x="197" y="0" type="line"/>
      <point x="197" y="410" type="line"/>
      <point x="471" y="0" type="line"/>
    </contour>
    <contour>
      <point x="381" y="730" type="line"/>
      <point x="483" y="867" type="line"/>
      <point x="320" y="867" type="line"/>
      <point x="213" y="730" type="line"/>
    </contour>
  </outline>
</glyph>
<glyph name="Ncedilla" format="2">
  <advance width="696"/>
  <unicode hex="0145"/>
  <outline>
    <contour>
      <point x="632" y="81" type="line"/>
      <point x="632" y="693" type="line"/>
      <point x="482" y="693" type="line"/>
      <point x="482" y="306" type="line"/>
    </contour>
    <contour>
      <point x="650" y="0" type="line"/>
      <point x="187" y="693" type="line"/>
      <point x="47" y="693" type="line"/>
      <point x="47" y="0" type="line"/>
      <point x="197" y="0" type="line"/>
      <point x="197" y="410" type="line"/>
      <point x="471" y="0" type="line"/>
    </contour>
    <contour>
      <point x="280" y="-268" type="curve" smooth="yes"/>
      <point x="289" y="-268"/>
      <point x="300" y="-262"/>
      <point x="312" y="-250" type="curve" smooth="yes"/>
      <point x="387" y="-172" type="line"/>
      <point x="387" y="-169" type="line"/>
      <point x="390" y="-166"/>
      <point x="392" y="-161"/>
      <point x="393" y="-156" type="curve"/>
      <point x="398" y="-145"/>
      <point x="401" y="-134"/>
      <point x="401" y="-124" type="curve"/>
      <point x="400" y="-114" type="line"/>
      <point x="397" y="-101"/>
      <point x="392" y="-90"/>
      <point x="385" y="-81" type="curve" smooth="yes"/>
      <point x="377" y="-72"/>
      <point x="367" y="-66"/>
      <point x="356" y="-61" type="curve" smooth="yes"/>
      <point x="345" y="-56"/>
      <point x="333" y="-54"/>
      <point x="321" y="-54" type="curve" smooth="yes"/>
      <point x="302" y="-54"/>
      <point x="286" y="-60"/>
      <point x="271" y="-71" type="curve" smooth="yes"/>
      <point x="256" y="-83"/>
      <point x="249" y="-103"/>
      <point x="249" y="-130" type="curve" smooth="yes"/>
      <point x="249" y="-224" type="line" smooth="yes"/>
      <point x="249" y="-245"/>
      <point x="255" y="-259"/>
      <point x="268" y="-265" type="curve" smooth="yes"/>
      <point x="272" y="-267"/>
      <point x="276" y="-268"/>
    </contour>
  </outline>
</glyph>
<glyph name="Ncaron" format="2">
  <advance width="696"/>
  <unicode hex="0147"/>
  <outline>
    <contour>
      <point x="632" y="81" type="line"/>
      <point x="632" y="693" type="line"/>
      <point x="482" y="693" type="line"/>
      <point x="482" y="306" type="line"/>
    </contour>
    <contour>
      <point x="650" y="0" type="line"/>
      <point x="187" y="693" type="line"/>
      <point x="47" y="693" type="line"/>
      <point x="47" y="0" type="line"/>
      <point x="197" y="0" type="line"/>
      <point x="197" y="410" type="line"/>
      <point x="471" y="0" type="line"/>
    </contour>
    <contour>
      <point x="438" y="731" type="line"/>
      <point x="540" y="868" type="line"/>
      <point x="390" y="868" type="line"/>
      <point x="348" y="811" type="line"/>
      <point x="306" y="868" type="line"/>
      <point x="156" y="868" type="line"/>
      <point x="258" y="731" type="line"/>
    </contour>
  </outline>
</glyph>
<glyph name="ncaron" format="2">
  <advance width="696"/>
  <unicode hex="0148"/>
  <outline>
    <contour>
      <point x="632" y="81" type="line"/>
      <point x="632" y="693" type="line"/>
      <point x="482" y="693" type="line"/>
      <point x="482" y="306" type="line"/>
    </contour>
    <contour>
      <point x="650" y="0" type="line"/>
      <point x="187" y="693" type="line"/>
      <point x="47" y="693" type="line"/>
      <point x="47" y="0" type="line"/>
      <point x="197" y="0" type="line"/>
      <point x="197" y="410" type="line"/>
      <point x="471" y="0" type="line"/>
    </contour>
    <contour>
      <point x="438" y="730" type="line"/>
      <point x="540" y="867" type="line"/>
      <point x="390" y="867" type="line"/>
      <point x="348" y="810" type="line"/>
      <point x="306" y="867" type="line"/>
      <point x="156" y="867" type="line"/>
      <point x="258" y="730" type="line"/>
    </contour>
  </outline>
</glyph>
<glyph name="eng" format="2">
  <advance width="696"/>
  <unicode hex="014B"/>
  <outline>
    <contour>
      <point x="374" y="-277" type="line"/>
      <point x="519" y="-277"/>
      <point x="632" y="-171"/>
      <point x="632" y="-39" type="curve" smooth="yes"/>
      <point x="632" y="693" type="line"/>
      <point x="482" y="693" type="line"/>
      <point x="482" y="251" type="line"/>
      <point x="187" y="693" type="line"/>
      <point x="47" y="693" type="line"/>
      <point x="47" y="0" type="line"/>
      <point x="197" y="0" type="line"/>
      <point x="197" y="410" type="line"/>
      <point x="482" y="0" type="line"/>
      <point x="482" y="-39" type="line" smooth="yes"/>
      <point x="482" y="-87"/>
      <point x="434" y="-127"/>
      <point x="374" y="-127" type="curve"/>
    </contour>
  </outline>
</glyph>
<glyph name="oe" format="2">
  <advance width="1057"/>
  <unicode hex="0153"/>
  <outline>
    <contour>
      <point x="1026" y="0" type="line"/>
      <point x="1026" y="150" type="line"/>
      <point x="869" y="150" type="line" smooth="yes"/>
      <point x="759" y="150"/>
      <point x="673" y="239"/>
      <point x="673" y="347" type="curve" smooth="yes"/>
      <point x="673" y="456"/>
      <point x="760" y="544"/>
      <point x="869" y="544" type="curve" smooth="yes"/>
      <point x="1026" y="544" type="line"/>
      <point x="1026" y="694" type="line"/>
      <point x="869" y="694" type="line" smooth="yes"/>
      <point x="759" y="694"/>
      <point x="654" y="641"/>
      <point x="591" y="553" type="curve"/>
      <point x="560" y="604"/>
      <point x="510" y="647"/>
      <point x="456" y="670" type="curve" smooth="yes"/>
      <point x="405" y="692"/>
      <point x="372" y="693"/>
      <point x="312" y="693" type="curve" smooth="yes"/>
      <point x="153" y="693"/>
      <point x="19" y="565"/>
      <point x="19" y="401" type="curve" smooth="yes"/>
      <point x="19" y="292" type="line" smooth="yes"/>
      <point x="19" y="173"/>
      <point x="89" y="70"/>
      <point x="199" y="23" type="curve" smooth="yes"/>
      <point x="250" y="1"/>
      <point x="283" y="0"/>
      <point x="342" y="0" type="curve" smooth="yes"/>
      <point x="454" y="0"/>
      <point x="542" y="61"/>
      <point x="591" y="139" type="curve"/>
      <point x="650" y="64"/>
      <point x="743" y="0"/>
      <point x="869" y="0" type="curve" smooth="yes"/>
    </contour>
    <contour>
      <point x="342" y="150" type="curve" smooth="yes"/>
      <point x="312" y="150" type="line" smooth="yes"/>
      <point x="231" y="150"/>
      <point x="170" y="215"/>
      <point x="170" y="292" type="curve" smooth="yes"/>
      <point x="170" y="401" type="line" smooth="yes"/>
      <point x="170" y="481"/>
      <point x="232" y="544"/>
      <point x="312" y="544" type="curve" smooth="yes"/>
      <point x="342" y="544" type="line" smooth="yes"/>
      <point x="422" y="544"/>
      <point x="484" y="480"/>
      <point x="484" y="401" type="curve" smooth="yes"/>
      <point x="484" y="292" type="line" smooth="yes"/>
      <point x="484" y="211"/>
      <point x="419" y="150"/>
    </contour>
    <contour>
      <point x="1026" y="272" type="line"/>
      <point x="1026" y="422" type="line"/>
      <point x="720" y="422" type="line"/>
      <point x="709" y="391"/>
      <point x="704" y="369"/>
      <point x="704" y="347" type="curve" smooth="yes"/>
      <point x="704" y="328"/>
      <point x="709" y="304"/>
      <point x="722" y="272" type="curve"/>
    </contour>
  </outline>
</glyph>
<glyph name="Racute" format="2">
  <advance width="575"/>
  <unicode hex="0154"/>
  <outline>
    <contour>
      <point x="553" y="0" type="line"/>
      <point x="412" y="246" type="line"/>
      <point x="503" y="294"/>
      <point x="538" y="373"/>
      <point x="538" y="452" type="curve" smooth="yes"/>
      <point x="538" y="576"/>
      <point x="447" y="693"/>
      <point x="299" y="693" type="curve" smooth="yes"/>
      <point x="35" y="693" type="line"/>
      <point x="35" y="544" type="line"/>
      <point x="299" y="544" type="line" smooth="yes"/>
      <point x="349" y="544"/>
      <point x="387" y="504"/>
      <point x="387" y="455" type="curve" smooth="yes"/>
      <point x="387" y="405"/>
      <point x="348" y="368"/>
      <point x="299" y="368" type="curve" smooth="yes"/>
      <point x="35" y="368" type="line"/>
      <point x="35" y="0" type="line"/>
      <point x="186" y="0" type="line"/>
      <point x="186" y="217" type="line"/>
      <point x="254" y="217" type="line"/>
      <point x="379" y="0" type="line"/>
    </contour>
    <contour>
      <point x="320" y="731" type="line"/>
      <point x="422" y="868" type="line"/>
      <point x="259" y="868" type="line"/>
      <point x="152" y="731" type="line"/>
    </contour>
  </outline>
</glyph>
<glyph name="Rcedilla" format="2">
  <advance width="575"/>
  <unicode hex="0156"/>
  <outline>
    <contour>
      <point x="553" y="0" type="line"/>
      <point x="412" y="246" type="line"/>
      <point x="503" y="294"/>
      <point x="538" y="373"/>
      <point x="538" y="452" type="curve" smooth="yes"/>
      <point x="538" y="576"/>
      <point x="447" y="693"/>
      <point x="299" y="693" type="curve" smooth="yes"/>
      <point x="35" y="693" type="line"/>
      <point x="35" y="544" type="line"/>
      <point x="299" y="544" type="line" smooth="yes"/>
      <point x="349" y="544"/>
      <point x="387" y="504"/>
      <point x="387" y="455" type="curve" smooth="yes"/>
      <point x="387" y="405"/>
      <point x="348" y="368"/>
      <point x="299" y="368" type="curve" smooth="yes"/>
      <point x="35" y="368" type="line"/>
      <point x="35" y="0" type="line"/>
      <point x="186" y="0" type="line"/>
      <point x="186" y="217" type="line"/>
      <point x="254" y="217" type="line"/>
      <point x="379" y="0" type="line"/>
    </contour>
    <contour>
      <point x="242" y="-268" type="curve" smooth="yes"/>
      <point x="251" y="-268"/>
      <point x="262" y="-262"/>
      <point x="274" y="-250" type="curve" smooth="yes"/>
      <point x="349" y="-172" type="line"/>
      <point x="349" y="-169" type="line"/>
      <point x="352" y="-166"/>
      <point x="354" y="-161"/>
      <point x="355" y="-156" type="curve"/>
      <point x="360" y="-145"/>
      <point x="363" y="-134"/>
      <point x="363" y="-124" type="curve"/>
      <point x="362" y="-114" type="line"/>
      <point x="359" y="-101"/>
      <point x="354" y="-90"/>
      <point x="347" y="-81" type="curve" smooth="yes"/>
      <point x="339" y="-72"/>
      <point x="329" y="-66"/>
      <point x="318" y="-61" type="curve" smooth="yes"/>
      <point x="307" y="-56"/>
      <point x="295" y="-54"/>
      <point x="283" y="-54" type="curve" smooth="yes"/>
      <point x="264" y="-54"/>
      <point x="248" y="-60"/>
      <point x="233" y="-71" type="curve" smooth="yes"/>
      <point x="218" y="-83"/>
      <point x="211" y="-103"/>
      <point x="211" y="-130" type="curve" smooth="yes"/>
      <point x="211" y="-224" type="line" smooth="yes"/>
      <point x="211" y="-245"/>
      <point x="217" y="-259"/>
      <point x="230" y="-265" type="curve" smooth="yes"/>
      <point x="234" y="-267"/>
      <point x="238" y="-268"/>
    </contour>
  </outline>
</glyph>
<glyph name="Sacute" format="2">
  <advance width="609"/>
  <unicode hex="015A"/>
  <outline>
    <contour>
      <point x="306" y="0" type="line" smooth="yes"/>
      <point x="437" y="0"/>
      <point x="544" y="104"/>
      <point x="544" y="238" type="curve" smooth="yes"/>
      <point x="544" y="368" type="line"/>
      <point x="393" y="368" type="line"/>
      <point x="393" y="238" type="line" smooth="yes"/>
      <point x="393" y="188"/>
      <point x="354" y="150"/>
      <point x="306" y="150" type="curve" smooth="yes"/>
      <point x="30" y="150" type="line"/>
      <point x="30" y="0" type="line"/>
    </contour>
    <contour>
      <point x="180" y="326" type="line"/>
      <point x="180" y="456" type="line" smooth="yes"/>
      <point x="180" y="503"/>
      <point x="217" y="544"/>
      <point x="268" y="544" type="curve" smooth="yes"/>
      <point x="544" y="544" type="line"/>
      <point x="544" y="694" type="line"/>
      <point x="268" y="694" type="line" smooth="yes"/>
      <point x="138" y="694"/>
      <point x="30" y="590"/>
      <point x="30" y="456" type="curve" smooth="yes"/>
      <point x="30" y="326" type="line"/>
    </contour>
    <contour>
      <point x="337" y="731" type="line"/>
      <point x="439" y="868" type="line"/>
      <point x="276" y="868" type="line"/>
      <point x="169" y="731" type="line"/>
    </contour>
  </outline>
</glyph>
<glyph name="Scedilla" format="2">
  <advance width="609"/>
  <unicode hex="015E"/>
  <outline>
    <contour>
      <point x="306" y="0" type="line" smooth="yes"/>
      <point x="437" y="0"/>
      <point x="544" y="104"/>
      <point x="544" y="238" type="curve" smooth="yes"/>
      <point x="544" y="368" type="line"/>
      <point x="393" y="368" type="line"/>
      <point x="393" y="238" type="line" smooth="yes"/>
      <point x="393" y="188"/>
      <point x="354" y="150"/>
      <point x="306" y="150" type="curve" smooth="yes"/>
      <point x="30" y="150" type="line"/>
      <point x="30" y="0" type="line"/>
    </contour>
    <contour>
      <point x="180" y="326" type="line"/>
      <point x="180" y="456" type="line" smooth="yes"/>
      <point x="180" y="503"/>
      <point x="217" y="544"/>
      <point x="268" y="544" type="curve" smooth="yes"/>
      <point x="544" y="544" type="line"/>
      <point x="544" y="694" type="line"/>
      <point x="268" y="694" type="line" smooth="yes"/>
      <point x="138" y="694"/>
      <point x="30" y="590"/>
      <point x="30" y="456" type="curve" smooth="yes"/>
      <point x="30" y="326" type="line"/>
    </contour>
    <contour>
      <point x="302" y="-280" type="line" smooth="yes"/>
      <point x="358" y="-280"/>
      <point x="405" y="-235"/>
      <point x="405" y="-178" type="curve" smooth="yes"/>
      <point x="405" y="-84" type="line"/>
      <point x="280" y="-84" type="line"/>
      <point x="280" y="76" type="line"/>
      <point x="198" y="76" type="line"/>
      <point x="198" y="-157" type="line"/>
      <point x="323" y="-157" type="line"/>
      <point x="323" y="-178" type="line" smooth="yes"/>
      <point x="323" y="-190"/>
      <point x="314" y="-199"/>
      <point x="302" y="-199" type="curve" smooth="yes"/>
      <point x="198" y="-199" type="line"/>
      <point x="198" y="-280" type="line"/>
    </contour>
  </outline>
</glyph>
<glyph name="Tcaron" format="2">
  <advance width="538"/>
  <unicode hex="0164"/>
  <outline>
    <contour>
      <point x="530" y="544" type="line"/>
      <point x="530" y="694" type="line"/>
      <point x="11" y="694" type="line"/>
      <point x="11" y="544" type="line"/>
    </contour>
    <contour>
      <point x="345" y="0" type="line"/>
      <point x="345" y="510" type="line"/>
      <point x="196" y="510" type="line"/>
      <point x="196" y="0" type="line"/>
    </contour>
    <contour>
      <point x="359" y="731" type="line"/>
      <point x="461" y="868" type="line"/>
      <point x="311" y="868" type="line"/>
      <point x="269" y="811" type="line"/>
      <point x="227" y="868" type="line"/>
      <point x="77" y="868" type="line"/>
      <point x="179" y="731" type="line"/>
    </contour>
  </outline>
</glyph>
<glyph name="Utilde" format="2">
  <advance width="708"/>
  <unicode hex="0168"/>
  <outline>
    <contour>
      <point x="338" y="0" type="curve" smooth="yes"/>
      <point x="497" y="0"/>
      <point x="630" y="129"/>
      <point x="630" y="292" type="curve" smooth="yes"/>
      <point x="630" y="693" type="line"/>
      <point x="480" y="693" type="line"/>
      <point x="480" y="292" type="line" smooth="yes"/>
      <point x="480" y="211"/>
      <point x="415" y="150"/>
      <point x="338" y="150" type="curve" smooth="yes"/>
      <point x="254" y="150"/>
      <point x="191" y="211"/>
      <point x="191" y="292" type="curve" smooth="yes"/>
      <point x="191" y="693" type="line"/>
      <point x="40" y="693" type="line"/>
      <point x="40" y="292" type="line" smooth="yes"/>
      <point x="40" y="127"/>
      <point x="171" y="0"/>
    </contour>
    <contour>
      <point x="214" y="715" type="line"/>
      <point x="231" y="738"/>
      <point x="245" y="756"/>
      <point x="256" y="769" type="curve" smooth="yes"/>
      <point x="273" y="790"/>
      <point x="275" y="793"/>
      <point x="285" y="793" type="curve"/>
      <point x="288" y="794" type="line"/>
      <point x="300" y="794"/>
      <point x="360" y="729"/>
      <point x="422" y="729" type="curve" smooth="yes"/>
      <point x="433" y="729"/>
      <point x="439" y="730"/>
      <point x="444" y="731" type="curve" smooth="yes"/>
      <point x="481" y="741"/>
      <point x="503" y="754"/>
      <point x="568" y="839" type="curve"/>
      <point x="493" y="922" type="line"/>
      <point x="460" y="875"/>
      <point x="436" y="851"/>
      <point x="423" y="844" type="curve"/>
      <point x="415" y="844"/>
      <point x="407" y="847"/>
      <point x="384" y="865" type="curve" smooth="yes"/>
      <point x="343" y="897"/>
      <point x="317" y="908"/>
      <point x="286" y="908" type="curve" smooth="yes"/>
      <point x="253" y="908"/>
      <point x="246" y="903"/>
      <point x="234" y="896" type="curve" smooth="yes"/>
      <point x="212" y="883"/>
      <point x="192" y="867"/>
      <point x="140" y="799" type="curve"/>
    </contour>
  </outline>
</glyph>
<glyph name="utilde" format="2">
  <advance width="708"/>
  <unicode hex="0169"/>
  <outline>
    <contour>
      <point x="338" y="0" type="curve" smooth="yes"/>
      <point x="497" y="0"/>
      <point x="630" y="129"/>
      <point x="630" y="292" type="curve" smooth="yes"/>
      <point x="630" y="693" type="line"/>
      <point x="480" y="693" type="line"/>
      <point x="480" y="292" type="line" smooth="yes"/>
      <point x="480" y="211"/>
      <point x="415" y="150"/>
      <point x="338" y="150" type="curve" smooth="yes"/>
      <point x="254" y="150"/>
      <point x="191" y="211"/>
      <point x="191" y="292" type="curve" smooth="yes"/>
      <point x="191" y="693" type="line"/>
      <point x="40" y="693" type="line"/>
      <point x="40" y="292" type="line" smooth="yes"/>
      <point x="40" y="127"/>
      <point x="171" y="0"/>
    </contour>
    <contour>
      <point x="214" y="714" type="line"/>
      <point x="231" y="737"/>
      <point x="245" y="755"/>
      <point x="256" y="768" type="curve" smooth="yes"/>
      <point x="273" y="789"/>
      <point x="275" y="792"/>
      <point x="285" y="792" type="curve"/>
      <point x="288" y="793" type="line"/>
      <point x="300" y="793"/>
      <point x="360" y="728"/>
      <point x="422" y="728" type="curve" smooth="yes"/>
      <point x="433" y="728"/>
      <point x="439" y="729"/>
      <point x="444" y="730" type="curve" smooth="yes"/>
      <point x="481" y="740"/>
      <point x="503" y="753"/>
      <point x="568" y="838" type="curve"/>
      <point x="493" y="921" type="line"/>
      <point x="460" y="874"/>
      <point x="436" y="850"/>
      <point x="423" y="843" type="curve"/>
      <point x="415" y="843"/>
      <point x="407" y="846"/>
      <point x="384" y="864" type="curve" smooth="yes"/>
      <point x="343" y="896"/>
      <point x="317" y="907"/>
      <point x="286" y="907" type="curve" smooth="yes"/>
      <point x="253" y="907"/>
      <point x="246" y="902"/>
      <point x="234" y="895" type="curve" smooth="yes"/>
      <point x="212" y="882"/>
      <point x="192" y="866"/>
      <point x="140" y="798" type="curve"/>
    </contour>
  </outline>
</glyph>
<glyph name="Umacron" format="2">
  <advance width="708"/>
  <unicode hex="016A"/>
  <outline>
    <contour>
      <point x="338" y="0" type="curve" smooth="yes"/>
      <point x="497" y="0"/>
      <point x="630" y="129"/>
      <point x="630" y="292" type="curve" smooth="yes"/>
      <point x="630" y="693" type="line"/>
      <point x="480" y="693" type="line"/>
      <point x="480" y="292" type="line" smooth="yes"/>
      <point x="480" y="211"/>
      <point x="415" y="150"/>
      <point x="338" y="150" type="curve" smooth="yes"/>
      <point x="254" y="150"/>
      <point x="191" y="211"/>
      <point x="191" y="292" type="curve" smooth="yes"/>
      <point x="191" y="693" type="line"/>
      <point x="40" y="693" type="line"/>
      <point x="40" y="292" type="line" smooth="yes"/>
      <point x="40" y="127"/>
      <point x="171" y="0"/>
    </contour>
    <contour>
      <point x="508" y="763" type="line"/>
      <point x="508" y="891" type="line"/>
      <point x="200" y="891" type="line"/>
      <point x="200" y="763" type="line"/>
    </contour>
  </outline>
</glyph>
<glyph name="Ubreve" format="2">
  <advance width="708"/>
  <unicode hex="016C"/>
  <outline>
    <contour>
      <point x="338" y="0" type="curve" smooth="yes"/>
      <point x="497" y="0"/>
      <point x="630" y="129"/>
      <point x="630" y="292" type="curve" smooth="yes"/>
      <point x="630" y="693" type="line"/>
      <point x="480" y="693" type="line"/>
      <point x="480" y="292" type="line" smooth="yes"/>
      <point x="480" y="211"/>
      <point x="415" y="150"/>
      <point x="338" y="150" type="curve" smooth="yes"/>
      <point x="254" y="150"/>
      <point x="191" y="211"/>
      <point x="191" y="292" type="curve" smooth="yes"/>
      <point x="191" y="693" type="line"/>
      <point x="40" y="693" type="line"/>
      <point x="40" y="292" type="line" smooth="yes"/>
      <point x="40" y="127"/>
      <point x="171" y="0"/>
    </contour>
    <contour>
      <point x="354" y="725" type="curve" smooth="yes"/>
      <point x="441" y="725"/>
      <point x="511" y="784"/>
      <point x="519" y="866" type="curve"/>
      <point x="406" y="866" type="line"/>
      <point x="397" y="845"/>
      <point x="379" y="835"/>
      <point x="354" y="835" type="curve" smooth="yes"/>
      <point x="331" y="835"/>
      <point x="311" y="848"/>
      <point x="302" y="866" type="curve"/>
      <point x="189" y="866" type="line"/>
      <point x="202" y="789"/>
      <point x="272" y="725"/>
    </contour>
  </outline>
</glyph>
<glyph name="ubreve" format="2">
  <advance width="708"/>
  <unicode hex="016D"/>
  <outline>
    <contour>
      <point x="338" y="0" type="curve" smooth="yes"/>
      <point x="497" y="0"/>
      <point x="630" y="129"/>
      <point x="630" y="292" type="curve" smooth="yes"/>
      <point x="630" y="693" type="line"/>
      <point x="480" y="693" type="line"/>
      <point x="480" y="292" type="line" smooth="yes"/>
      <point x="480" y="211"/>
      <point x="415" y="150"/>
      <point x="338" y="150" type="curve" smooth="yes"/>
      <point x="254" y="150"/>
      <point x="191" y="211"/>
      <point x="191" y="292" type="curve" smooth="yes"/>
      <point x="191" y="693" type="line"/>
      <point x="40" y="693" type="line"/>
      <point x="40" y="292" type="line" smooth="yes"/>
      <point x="40" y="127"/>
      <point x="171" y="0"/>
    </contour>
    <contour>
      <point x="354" y="724" type="curve" smooth="yes"/>
      <point x="441" y="724"/>
      <point x="511" y="783"/>
      <point x="519" y="865" type="curve"/>
      <point x="406" y="865" type="line"/>
      <point x="397" y="844"/>
      <point x="379" y="834"/>
      <point x="354" y="834" type="curve" smooth="yes"/>
      <point x="331" y="834"/>
      <point x="311" y="847"/>
      <point x="302" y="865" type="curve"/>
      <point x="189" y="865" type="line"/>
      <point x="202" y="788"/>
      <point x="272" y="724"/>
    </contour>
  </outline>
</glyph>
